<svg xmlns="http://www.w3.org/2000/svg" version="1.1" xmlns:xlink="http://www.w3.org/1999/xlink" xmlns:svgjs="http://svgjs.dev/svgjs" viewBox="0 0 800 800"><defs><linearGradient x1="50%" y1="0%" x2="50%" y2="100%" id="ccchaos-grad"><stop stop-color="hsl(206, 75%, 49%)" stop-opacity="1" offset="0%"></stop><stop stop-color="hsl(331, 90%, 56%)" stop-opacity="1" offset="100%"></stop></linearGradient></defs><g stroke-width="2" stroke="url(#ccchaos-grad)" fill="none" stroke-linecap="round"><path d="M381.7 99.88C391.14 101.47 400.6 105.06 410.07 110.18 419.56 115.95 429.07 122.21 438.61 128.41 448.2 133.71 457.85 138.16 467.56 141.59 477.35 143.52 487.25 144.52 497.23 144.85 507.35 144.34 517.58 143.87 527.92 143.83 538.38 144.1 548.95 145.48 559.58 148.15 570.3 151.86 581.02 157.06 591.66 163.66 602.25 171.28 612.65 180.04 622.73 189.67 632.55 199.82 641.87 210.43 650.53 221.25 658.68 232.05 665.96 242.74 672.24 253.23 677.77 263.36 682.12 273.17 685.21 282.69 687.45 291.77 688.39 300.61 688.02 309.3 686.95 317.63 684.73 325.93 681.49 334.3 677.95 342.44 673.74 350.77 669.07 359.36 664.71 367.83 660.35 376.66 656.21 385.88 653.02 395.05 650.44 404.68 648.62 414.77 648.14 424.86 648.53 435.2 649.72 445.75 652.09 456.3 654.99 467.02 658.23 477.86 662.15 488.63 665.99 499.4 669.53 510.05 673.13 520.49 676.03 530.61 678.08 540.22 679.67 549.36 680.14 557.74 679.44 565.13 676.68 574.51 664 585.68 654.4 587.5 647.06 587.96 638.89 587.7 630.03 587.1 620.8 587.2 611.05 587.85 600.93 589.57 590.65 593.22 580.13 598.7 569.49 606.25 558.82 616.12 548.12 627.89 537.45 641.14 526.84 655.35 516.29 669.59 505.83 682.87 495.47 694.43 485.2 703.19 475.03 708.34 464.95 709.94 454.95 707.48 445.04 701.28 435.19 692.73 425.4 682.31 415.69 671.36 406.01 661.92 396.37 654.66 386.81 650.66 377.25 651.01 367.97 655.1 358.98 662.23 349.97 671.94 341.25 682.33 332.81 692 324.36 700.33 316.19 705.63 308.32 707.26 300.42 705.41 292.8 699.65 285.49 690.51 278.13 678.93 271.04 665.49 264.24 651.2 257.36 637.03 250.74 623.66 244.37 611.68 237.89 601.65 231.62 593.6 225.56 587.48 219.35 583.46 213.31 580.88 207.45 579.31 201.39 578.89 195.49 578.62 189.74 578.09 183.78 577.61 177.97 576.27 172.34 573.86 166.52 570.9 160.89 566.7 155.49 561.31 149.96 555.25 144.71 548.13 139.78 540.11 134.82 531.6 130.24 522.43 126.1 512.77 122.03 502.85 118.46 492.64 115.46 482.28 112.62 471.84 110.4 461.36 108.84 450.95 107.51 440.52 106.87 430.2 106.96 420.03 107.3 409.86 108.35 400.07 110.07 390.64 111.98 381.17 114.51 371.99 117.6 363.08 120.79 354.05 124.48 345.18 128.6 336.4 132.73 327.39 137.22 318.36 142.03 309.22 146.74 299.76 151.72 290.09 156.92 280.17 161.94 269.91 167.16 259.38 172.54 248.65 177.71 237.72 183.04 226.75 188.53 215.89 193.81 205.23 199.27 195.02 204.9 185.52 210.35 176.74 216.02 169.04 221.9 162.61 227.66 157.25 233.67 153.29 239.94 150.73 246.13 149 252.62 148.3 259.39 148.39 266.12 148.39 273.16 148.44 280.5 148.17 287.82 146.76 295.45 144.47 303.36 141.14 311.27 136.39 319.47 130.78 327.93 124.63 336.39 118 345.11 111.77 354.08 106.52 363.04 102.33 372.25 100.02 381.69 99.88" stroke-dasharray="10 9" transform="rotate(0, 400, 400)" opacity="0.12"></path><path d="M384.86 110.47C394.01 112.02 403.21 115.47 412.45 120.43 421.71 126.05 431.03 132.23 440.4 138.45 449.81 143.91 459.31 148.65 468.87 152.47 478.51 154.86 488.26 156.33 498.09 157.06 508.01 156.84 518.04 156.47 528.14 156.31 538.32 156.21 548.56 156.96 558.81 158.8 569.08 161.46 579.29 165.49 589.36 170.85 599.33 177.21 609.02 184.77 618.34 193.33 627.36 202.55 635.84 212.43 643.63 222.73 650.91 233.22 657.34 243.83 662.77 254.4 667.52 264.81 671.17 275.02 673.63 285.01 675.34 294.69 675.87 304.14 675.23 313.4 673.99 322.35 671.74 331.21 668.6 340.03 665.24 348.64 661.3 357.32 656.96 366.13 652.97 374.84 648.97 383.76 645.18 392.95 642.27 402.1 639.9 411.56 638.2 421.36 637.72 431.16 638.01 441.06 639.01 451.04 641.09 460.99 643.65 470.97 646.53 480.88 650.07 490.7 653.55 500.35 656.8 509.68 660.16 518.76 662.92 527.36 664.95 535.3 666.97 546.11 664.96 562.06 660.72 566.81 656.85 569.1 651.92 570.42 646.04 570.92 639.58 571.49 632.3 571.78 624.31 572.18 615.93 573.6 607.01 575.89 597.65 579.45 588.09 584.91 578.24 592.13 568.19 601.19 558.08 612.12 547.87 624.49 537.63 637.81 527.42 651.52 517.21 664.77 507.07 676.67 496.98 686.64 486.97 693.75 477.04 697.39 467.18 697.76 457.4 694.5 447.72 687.97 438.08 679.51 428.51 669.54 419.05 659.26 409.6 650.5 400.22 643.8 390.94 640.07 381.65 640.32 372.65 643.98 363.95 650.45 355.24 659.41 346.81 669.14 338.67 678.43 330.51 686.77 322.63 692.55 315.04 695.13 307.41 694.63 300.05 690.51 292.97 683.1 285.84 673.19 278.96 661.16 272.34 647.88 265.64 634.22 259.17 620.8 252.92 608.25 246.55 597.12 240.38 587.61 234.4 579.8 228.26 573.9 222.28 569.51 216.46 566.31 210.45 564.45 204.58 563.12 198.86 561.94 192.95 561.18 187.19 559.98 181.59 558.09 175.83 555.97 170.27 552.88 164.92 548.78 159.48 544.21 154.3 538.64 149.45 532.16 144.58 525.25 140.09 517.59 136.02 509.31 132.05 500.77 128.56 491.78 125.62 482.46 122.86 473.03 120.69 463.4 119.17 453.66 117.89 443.89 117.28 434.07 117.38 424.23 117.73 414.39 118.77 404.77 120.46 395.36 122.35 385.92 124.84 376.63 127.88 367.47 131.03 358.2 134.66 348.98 138.72 339.74 142.79 330.32 147.22 320.8 151.97 311.13 156.63 301.22 161.56 291.11 166.7 280.81 171.68 270.3 176.86 259.66 182.2 248.96 187.33 238.27 192.63 227.72 198.07 217.49 203.31 207.66 208.71 198.46 214.27 190.11 219.65 182.58 225.23 176.17 230.99 171.04 236.62 166.86 242.48 163.96 248.58 162.26 254.58 161.15 260.84 160.83 267.37 161.03 273.85 160.92 280.6 160.67 287.64 159.95 294.65 158.06 301.95 155.26 309.53 151.49 317.09 146.41 324.94 140.61 333.06 134.42 341.17 127.87 349.54 121.81 358.18 116.75 366.81 112.76 375.7 110.57 384.85 110.47" stroke-dasharray="3 7" transform="rotate(4.04, 400, 400)" opacity="0.94"></path><path d="M388.69 121.06C397.56 122.56 406.5 125.88 415.5 130.65 424.52 136.12 433.62 142.19 442.79 148.39 451.99 153.97 461.29 158.96 470.65 163.13 480.08 165.98 489.6 167.94 499.2 169.11 508.86 169.27 518.59 169.12 528.36 168.99 538.17 168.69 548 169 557.77 170.16 567.52 171.93 577.15 174.9 586.57 179.08 595.85 184.17 604.81 190.46 613.33 197.8 621.55 205.89 629.19 214.78 636.12 224.26 642.57 234.12 648.17 244.27 652.83 254.57 656.86 264.9 659.86 275.19 661.77 285.35 663.03 295.35 663.22 305.17 662.36 314.81 661.02 324.25 658.78 333.54 655.75 342.73 652.59 351.75 648.93 360.75 644.93 369.77 641.28 378.69 637.64 387.71 634.18 396.85 631.54 405.96 629.37 415.24 627.78 424.7 627.31 434.15 627.5 443.55 628.33 452.85 630.14 462.13 632.38 471.26 634.92 480.17 638.08 488.96 641.21 497.42 644.16 505.41 647.26 513.17 649.86 520.32 651.83 526.75 653.46 541.47 644.25 553.48 637.07 554.88 631.45 556.06 625.01 557.35 617.88 559.1 610.35 562.04 602.25 566.04 593.68 571.38 584.89 578.47 575.75 587.13 566.36 597.32 556.87 608.92 547.22 621.48 537.49 634.48 527.75 647.39 517.97 659.44 508.22 669.85 498.49 678.2 488.8 683.72 479.18 685.97 469.6 685.27 460.09 681.35 450.67 674.59 441.29 666.31 431.99 656.83 422.78 647.22 413.59 639.12 404.48 632.94 395.46 629.48 386.45 629.64 377.73 632.9 369.3 638.74 360.86 646.95 352.7 656.02 344.83 664.87 336.93 673.11 329.3 679.22 321.95 682.59 314.55 683.29 307.42 680.67 300.54 674.94 293.6 666.72 286.89 656.25 280.43 644.21 273.86 631.4 267.51 618.33 261.37 605.65 255.09 593.87 249 583.29 243.07 574.1 236.99 566.55 231.06 560.43 225.27 555.55 219.31 552.07 213.48 549.36 207.8 547.12 201.94 545.58 196.22 543.96 190.68 542.01 184.99 540.13 179.49 537.59 174.22 534.28 168.86 530.71 163.78 526.28 159.01 521.01 154.25 515.43 149.86 509.08 145.89 502.05 142.01 494.78 138.62 486.96 135.76 478.68 133.08 470.29 130.98 461.54 129.5 452.51 128.27 443.46 127.69 434.18 127.79 424.73 128.15 415.28 129.18 405.88 130.84 396.54 132.7 387.18 135.14 377.84 138.12 368.5 141.21 359.1 144.78 349.63 148.76 340.07 152.76 330.4 157.13 320.58 161.8 310.61 166.4 300.52 171.26 290.27 176.34 279.92 181.28 269.53 186.41 259.12 191.7 248.83 196.81 238.72 202.07 228.93 207.46 219.64 212.67 210.87 218.03 202.87 223.53 195.81 228.85 189.57 234.35 184.45 240.03 180.53 245.56 177.41 251.3 175.4 257.25 174.37 263.1 173.69 269.18 173.55 275.51 173.7 281.77 173.35 288.29 172.7 295.07 171.48 301.81 169.08 308.83 165.79 316.11 161.61 323.37 156.26 330.91 150.32 338.72 144.12 346.51 137.69 354.57 131.82 362.9 126.98 371.22 123.18 379.82 121.13 388.68 121.06" stroke-dasharray="5 4" transform="rotate(8.08, 400, 400)" opacity="0.29"></path><path d="M393.03 131.65C401.62 133.1 410.29 136.27 419.04 140.86 427.8 146.15 436.65 152.08 445.57 158.23 454.53 163.89 463.57 169.08 472.68 173.56 481.84 176.86 491.07 179.29 500.35 180.95 509.67 181.55 519.03 181.74 528.39 181.76 537.75 181.44 547.08 181.49 556.3 182.17 565.47 183.23 574.46 185.28 583.19 188.39 591.74 192.29 599.94 197.31 607.66 203.39 615.07 210.22 621.88 217.94 627.99 226.37 633.65 235.29 638.49 244.68 642.43 254.37 645.81 264.26 648.24 274.25 649.66 284.25 650.54 294.24 650.46 304.13 649.44 313.89 648.03 323.55 645.84 333.07 642.96 342.45 640.01 351.73 636.64 360.92 632.97 370.04 629.66 379.1 626.35 388.14 623.21 397.16 620.82 406.18 618.84 415.21 617.37 424.27 616.9 433.32 617.01 442.16 617.67 450.76 619.23 459.33 621.18 467.6 623.38 475.5 626.18 483.3 628.97 490.64 631.61 497.42 635.66 506.97 640.91 522.15 641.53 527.59 640.67 531.97 633.62 537.79 627.5 540.15 622.65 542.34 617.02 544.93 610.7 548.2 604.01 552.73 596.73 558.37 588.96 565.29 580.94 573.73 572.54 583.47 563.86 594.37 555.04 606.23 546.01 618.59 536.85 630.93 527.65 642.79 518.37 653.48 509.06 662.33 499.76 669.09 490.47 673.11 481.21 674.1 471.98 672.48 462.8 668.03 453.69 661.17 444.61 653.13 435.59 644.17 426.67 635.22 417.76 627.77 408.93 622.1 400.19 618.89 391.45 618.97 383 621.84 374.84 627.09 366.66 634.58 358.76 642.97 351.13 651.34 343.47 659.37 336.06 665.68 328.92 669.67 321.73 671.4 314.78 670.14 308.07 665.99 301.29 659.46 294.73 650.61 288.39 640 281.95 628.31 275.69 615.96 269.63 603.54 263.44 591.57 257.4 580.35 251.53 570.17 245.5 561.29 239.61 553.66 233.86 547.21 227.95 542.08 222.16 537.87 216.51 534.32 210.71 531.62 205.06 529.14 199.57 526.65 193.96 524.48 188.55 521.94 183.37 518.89 178.12 515.8 173.14 512.04 168.48 507.58 163.83 502.94 159.55 497.58 155.69 491.55 151.93 485.35 148.64 478.54 145.87 471.19 143.27 463.75 141.25 455.84 139.83 447.52 138.64 439.18 138.09 430.48 138.21 421.47 138.57 412.45 139.59 403.35 141.21 394.17 143.03 384.99 145.42 375.71 148.32 366.35 151.34 356.95 154.83 347.42 158.72 337.77 162.65 328.07 166.93 318.23 171.52 308.28 176.05 298.31 180.84 288.27 185.85 278.23 190.74 268.29 195.81 258.48 201.05 248.93 206.12 239.7 211.34 230.94 216.69 222.8 221.86 215.26 227.18 208.56 232.63 202.82 237.92 197.84 243.36 193.92 248.96 191.06 254.41 188.84 260.06 187.51 265.89 186.95 271.61 186.49 277.55 186.35 283.71 186.29 289.78 185.59 296.11 184.47 302.67 182.72 309.18 179.8 315.96 176.05 322.99 171.5 329.98 165.93 337.24 159.9 344.77 153.73 352.27 147.46 360.05 141.81 368.09 137.19 376.12 133.61 384.43 131.69 393.02 131.65" stroke-dasharray="6 2" transform="rotate(12.12, 400, 400)" opacity="0.88"></path><path d="M397.68 142.25C405.99 143.63 414.38 146.66 422.85 151.05 431.34 156.14 439.91 161.91 448.55 167.97 457.21 173.66 465.95 179.01 474.75 183.76 483.57 187.46 492.45 190.36 501.34 192.51 510.26 193.61 519.17 194.21 528.05 194.51 536.9 194.32 545.67 194.3 554.28 194.68 562.81 195.24 571.12 196.57 579.13 198.78 586.94 201.61 594.36 205.45 601.29 210.29 607.91 215.83 613.93 222.28 619.26 229.51 624.17 237.29 628.31 245.65 631.6 254.46 634.4 263.58 636.33 272.95 637.35 282.45 637.91 292.06 637.61 301.69 636.49 311.27 635.06 320.84 632.95 330.31 630.24 339.66 627.52 348.96 624.42 358.15 621.08 367.21 618.09 376.24 615.11 385.17 612.27 393.99 610.12 402.81 608.32 411.53 606.95 420.14 606.49 428.74 606.53 437.01 607.04 444.92 608.37 452.8 610.03 460.27 611.93 467.28 614.38 474.2 616.84 480.59 619.18 486.4 625.34 501.04 628.18 516.45 626.09 519.87 622.55 523.57 610.8 532.88 602.81 539.7 596.91 545.72 590.42 552.79 583.44 561.01 576.2 570.43 568.56 580.85 560.59 592.04 552.47 603.75 544.11 615.56 535.57 626.96 526.96 637.57 518.23 646.79 509.43 654.07 500.62 659.3 491.78 661.95 482.94 661.81 474.11 659.43 465.3 654.59 456.54 647.72 447.8 639.99 439.11 631.57 430.5 623.29 421.9 616.46 413.36 611.27 404.91 608.3 396.46 608.3 388.28 610.82 380.37 615.51 372.45 622.29 364.78 630 357.38 637.84 349.94 645.59 342.74 651.98 335.79 656.43 328.78 659 322 658.95 315.44 656.25 308.8 651.34 302.37 644.13 296.13 635.05 289.79 624.7 283.62 613.37 277.62 601.59 271.5 589.84 265.53 578.44 259.7 567.7 253.73 557.89 247.88 549.08 242.17 541.29 236.32 534.67 230.58 528.97 224.99 524.02 219.26 519.98 213.68 516.37 208.27 512.99 202.76 510.09 197.45 507.1 192.37 503.85 187.24 500.74 182.38 497.18 177.84 493.08 173.33 488.94 169.18 484.2 165.43 478.86 161.8 473.42 158.62 467.38 155.95 460.79 153.46 454.13 151.51 446.94 150.15 439.29 149.02 431.6 148.5 423.47 148.63 414.93 148.99 406.39 149.98 397.65 151.56 388.76 153.34 379.87 155.66 370.81 158.48 361.61 161.43 352.41 164.82 343.06 168.62 333.59 172.45 324.13 176.64 314.57 181.13 304.96 185.57 295.43 190.28 285.92 195.2 276.54 200.02 267.36 205.03 258.44 210.21 249.91 215.23 241.78 220.4 234.22 225.71 227.37 230.85 221.11 236.13 215.7 241.53 211.23 249.47 205.96 265.88 200.57 274.39 199.82 280.02 199.4 285.83 199.09 291.85 198.69 297.78 197.55 303.94 195.91 310.31 193.6 316.63 190.19 323.19 186.02 330 181.16 336.76 175.43 343.77 169.37 351.04 163.28 358.29 157.2 365.8 151.78 373.57 147.4 381.33 144.03 389.36 142.25 397.67 142.24" stroke-dasharray="4 9" transform="rotate(16.16, 400, 400)" opacity="0.54"></path><path d="M402.43 152.84C410.45 154.17 418.55 157.05 426.72 161.22 434.91 166.1 443.17 171.68 451.48 177.62 459.81 183.3 468.2 188.74 476.63 193.72 485.06 197.78 493.53 201.12 501.98 203.76 510.43 205.38 518.84 206.45 527.17 207.13 535.46 207.21 543.62 207.29 551.59 207.57 559.45 207.83 567.06 208.65 574.33 210.17 581.4 212.11 588.05 214.92 594.21 218.62 600.06 222.93 605.33 228.11 609.94 234.08 614.17 240.6 617.66 247.79 620.38 255.5 622.68 263.59 624.17 272.06 624.86 280.78 625.16 289.7 624.7 298.75 623.52 307.83 622.11 316.99 620.11 326.13 617.59 335.17 615.1 344.23 612.29 353.18 609.27 361.99 606.58 370.8 603.91 379.47 601.36 387.97 599.43 396.47 597.8 404.81 596.54 412.94 596.08 421.06 596.05 428.78 596.43 436.06 597.54 443.31 598.95 450.1 600.55 456.39 603.75 465.46 610.14 480.76 612.72 486.96 615.14 497.35 611.07 511.54 606.73 517.23 603.23 521.97 599.04 527.38 594.2 533.61 589.05 540.89 583.32 549.1 577.09 558.23 570.62 568.24 563.73 578.9 556.48 589.97 549.08 601.19 541.4 612.14 533.51 622.37 525.53 631.6 517.39 639.3 509.15 645.04 500.87 648.84 492.52 650.24 484.15 649.15 475.77 646.14 467.38 641.05 459.01 634.27 450.66 626.89 442.33 619.04 434.05 611.41 425.78 605.18 417.56 600.44 409.41 597.7 401.26 597.64 393.35 599.84 385.7 603.98 378.03 610.09 370.6 617.12 363.41 624.41 356.19 631.79 349.19 638.13 342.4 642.9 335.57 646.15 328.95 647.12 322.51 645.72 316.01 642.33 309.69 636.72 303.54 629.23 297.31 620.35 291.22 610.27 285.29 599.45 279.24 588.31 273.33 577.15 267.55 566.29 261.64 555.99 255.85 546.4 250.19 537.61 244.41 529.76 238.74 522.75 233.22 516.48 227.58 511.09 222.09 506.24 216.78 501.77 211.38 497.87 206.19 494.1 201.22 490.28 196.24 486.74 191.52 482.96 187.11 478.84 182.74 474.79 178.73 470.28 175.12 465.29 171.63 460.28 168.57 454.74 166.01 448.68 163.62 442.59 161.76 435.98 160.47 428.88 159.4 421.76 158.91 414.17 159.04 406.12 159.41 398.07 160.37 389.78 161.9 381.28 163.62 372.8 165.87 364.12 168.6 355.3 171.46 346.5 174.76 337.56 178.44 328.54 182.17 319.59 186.25 310.6 190.62 301.64 194.97 292.83 199.58 284.14 204.41 275.69 209.15 267.51 214.08 259.69 219.17 252.35 224.14 245.44 229.26 239.16 234.5 233.61 239.6 228.6 244.84 224.4 250.19 221.05 258.07 217.18 274.3 213.42 282.7 212.82 288.23 212.25 293.95 211.64 299.84 210.79 305.65 209.15 311.66 206.96 317.88 204.11 324.03 200.25 330.4 195.71 337 190.59 343.55 184.75 350.35 178.72 357.38 172.76 364.38 166.9 371.64 161.73 379.15 157.61 386.64 154.45 394.4 152.81 402.42 152.84" stroke-dasharray="4 7" transform="rotate(20.200000000000003, 400, 400)" opacity="0.37"></path><path d="M407.07 163.43C414.79 164.7 422.59 167.43 430.43 171.39 438.29 176.04 446.21 181.41 454.16 187.18 462.12 192.8 470.12 198.3 478.12 203.44 486.12 207.8 494.12 211.54 502.08 214.64 510.02 216.78 517.88 218.36 525.63 219.5 533.32 219.96 540.84 220.29 548.14 220.65 555.32 220.82 562.21 221.35 568.75 222.39 575.08 223.66 581 225.65 586.42 228.38 591.55 231.58 596.13 235.59 600.07 240.35 603.68 245.6 606.61 251.54 608.82 258.05 610.68 264.97 611.81 272.34 612.23 280.06 612.33 288.03 611.77 296.24 610.57 304.57 609.22 313.04 607.34 321.56 605.03 330.05 602.77 338.61 600.24 347.1 597.53 355.46 595.14 363.86 592.76 372.11 590.47 380.17 588.75 388.25 587.28 396.13 586.12 403.76 585.67 411.4 585.59 418.6 585.84 425.35 586.76 432.08 587.92 438.34 589.26 444.11 591.99 452.5 597.54 466.86 599.85 472.95 601.76 478.82 602.73 489.8 601.53 495.5 600.24 499.87 598.27 504.57 595.64 509.76 592.7 515.73 589.12 522.36 584.93 529.75 580.46 537.98 575.44 546.94 569.93 556.57 564.2 566.74 558.03 577.26 551.5 587.84 544.81 598.24 537.82 608.09 530.59 617 523.26 624.78 515.74 630.97 508.07 635.24 500.37 637.73 492.55 638.03 484.68 636.15 476.79 632.67 468.85 627.44 460.91 620.84 452.97 613.86 445.03 606.58 437.12 599.59 429.21 593.93 421.33 589.63 413.49 587.11 405.65 586.99 398.03 588.88 390.64 592.52 383.23 597.98 376.04 604.35 369.06 611.05 362.05 618.01 355.24 624.2 348.62 629.13 341.96 632.89 335.48 634.7 329.18 634.44 322.81 632.42 316.6 628.34 310.55 622.41 304.41 615.08 298.41 606.41 292.54 596.78 286.58 586.58 280.74 576.04 275.02 565.47 269.19 555.13 263.48 545.19 257.89 535.81 252.19 527.1 246.61 519.08 241.18 511.72 235.65 505.11 230.27 499.07 225.07 493.49 219.82 488.49 214.76 483.76 209.94 479.16 205.11 474.91 200.55 470.6 196.29 466.14 192.09 461.83 188.23 457.23 184.77 452.29 181.42 447.39 178.5 442.07 176.05 436.33 173.78 430.57 172.01 424.37 170.79 417.71 169.77 411.04 169.32 403.93 169.46 396.37 169.82 388.82 170.76 381.03 172.23 373.04 173.9 365.06 176.06 356.92 178.7 348.65 181.46 340.43 184.64 332.12 188.2 323.79 191.81 315.56 195.77 307.37 200.01 299.31 204.25 291.42 208.74 283.76 213.45 276.41 218.1 269.37 222.93 262.75 227.93 256.67 232.83 251 237.87 245.96 243.05 241.63 250.68 236.16 266.37 229.33 274.42 227.68 282.42 226.5 298.98 224.37 307.57 222.48 313.27 220.3 319.15 217.57 325.22 214.22 331.22 209.95 337.43 205.1 343.83 199.8 350.2 193.93 356.79 187.96 363.59 182.18 370.37 176.57 377.38 171.68 384.63 167.81 391.86 164.88 399.34 163.37 407.06 163.43" stroke-dasharray="5 2" transform="rotate(24.24, 400, 400)" opacity="0.65"></path><path d="M411.4 174.02C418.81 175.23 426.27 177.8 433.77 181.54 441.27 185.95 448.81 191.08 456.36 196.66 463.92 202.18 471.49 207.67 479.03 212.92 486.56 217.51 494.06 221.6 501.48 225.12 508.88 227.77 516.16 229.87 523.3 231.51 530.36 232.44 537.23 233.13 543.85 233.73 553.44 234.23 570.6 236.78 577.93 239.46 584.37 243.26 593.95 254.86 596.95 262.55 598.44 268.24 599.28 274.43 599.48 281.03 599.45 287.9 598.83 295.08 597.66 302.47 596.38 310.04 594.65 317.73 592.55 325.48 590.53 333.31 588.27 341.14 585.86 348.9 583.75 356.7 581.65 364.4 579.61 371.94 578.09 379.49 576.77 386.87 575.7 394.01 575.27 401.16 575.13 407.91 575.28 414.23 576.49 423.5 580.34 439.96 582.59 447.23 585.07 454.24 588.8 467.17 589.67 473.47 589.86 480.31 587.15 495.81 584.14 505.03 581.68 512.01 578.64 519.59 575.04 527.77 571.19 536.57 566.82 545.88 561.98 555.58 556.93 565.54 551.46 575.53 545.61 585.29 539.62 594.64 533.31 603.22 526.73 610.71 520.06 617.02 513.16 621.75 506.09 624.67 498.98 625.98 491.72 625.36 484.37 622.84 477 619.03 469.55 613.77 462.06 607.42 454.57 600.9 447.05 594.19 439.52 587.83 432 582.71 424.48 578.83 416.97 576.52 409.46 576.35 402.15 577.95 395.02 581.12 387.89 585.96 380.94 591.67 374.17 597.78 367.39 604.27 360.77 610.21 354.32 615.18 347.84 619.27 341.51 621.74 335.34 622.44 329.11 621.63 323.02 618.95 317.06 614.52 311.04 608.74 305.13 601.56 299.35 593.29 293.49 584.27 287.73 574.67 282.09 564.77 276.36 554.8 270.74 544.96 265.24 535.4 259.66 526.26 254.19 517.6 248.87 509.47 243.48 501.92 238.24 494.89 233.18 488.32 228.08 482.28 223.18 476.58 218.52 471.13 213.87 466.04 209.47 461.04 205.39 456.04 201.36 451.24 197.67 446.31 194.37 441.19 191.18 436.15 188.4 430.83 186.08 425.2 183.92 419.59 182.25 413.62 181.1 407.29 180.15 400.96 179.73 394.25 179.88 387.18 180.23 380.1 181.14 372.84 182.56 365.43 184.15 358.04 186.23 350.53 188.76 342.97 191.41 335.46 194.47 327.93 197.89 320.46 201.38 313.11 205.2 305.87 209.3 298.84 213.41 292 217.77 285.46 222.34 279.29 226.88 273.41 231.6 267.99 236.49 263.12 241.29 258.6 246.25 254.67 251.33 251.39 258.86 247.25 274.34 242.18 282.29 240.85 290.2 239.58 306.51 236.38 314.95 233.68 320.54 230.96 326.3 227.71 332.22 223.9 338.09 219.29 344.13 214.21 350.36 208.8 356.54 202.95 362.93 197.12 369.51 191.55 376.07 186.22 382.84 181.62 389.82 178.02 396.79 175.31 403.98 173.94 411.39 174.02" stroke-dasharray="6 5" transform="rotate(28.28, 400, 400)" opacity="0.71"></path><path d="M415.22 184.61C422.3 185.76 429.41 188.17 436.53 191.68 443.66 195.84 450.8 200.71 457.92 206.07 465.05 211.44 472.15 216.87 479.2 222.16 486.24 226.93 493.21 231.29 500.07 235.18 506.89 238.3 513.58 240.91 520.1 243.06 526.53 244.5 532.75 245.64 538.7 246.6 547.28 247.43 562.43 249.64 568.8 251.63 574.34 254.37 582.41 263.15 584.83 269.2 586.32 276.24 586.23 292.99 584.8 302.39 583.62 308.93 582.06 315.67 580.17 322.54 578.39 329.52 576.4 336.55 574.27 343.59 572.43 350.68 570.58 357.73 568.79 364.68 567.45 371.65 566.27 378.49 565.29 385.18 564.87 391.86 564.69 398.21 564.74 404.22 565.68 413.08 568.79 429.26 570.64 436.71 572.74 444.08 575.94 458.5 576.72 465.93 577.04 471.24 576.9 476.77 576.27 482.61 575.48 488.91 574.16 495.62 572.32 502.79 570.27 510.47 567.69 518.63 564.6 527.21 561.3 536.18 557.52 545.42 553.28 554.8 548.87 564.17 544.04 573.33 538.85 582.03 533.51 590.15 527.86 597.36 521.92 603.4 515.89 608.29 509.62 611.66 503.15 613.36 496.63 613.67 489.94 612.29 483.13 609.29 476.29 605.28 469.34 600.09 462.33 594.06 455.31 588.01 448.23 581.89 441.11 576.13 433.99 571.53 426.85 568.04 419.69 565.93 412.54 565.72 405.53 567.06 398.69 569.79 391.85 574.04 385.15 579.11 378.62 584.62 372.06 590.59 365.65 596.21 359.38 601.1 353.09 605.38 346.92 608.33 340.89 609.79 334.82 610.01 328.86 608.56 323.02 605.52 317.13 601.23 311.34 595.56 305.66 588.72 299.92 581.05 294.27 572.62 288.74 563.68 283.13 554.46 277.63 545.1 272.25 535.8 266.8 526.65 261.48 517.78 256.3 509.26 251.06 501.13 245.99 493.42 241.09 486.12 236.17 479.25 231.46 472.72 226.97 466.48 222.51 460.59 218.31 454.87 214.41 449.27 210.57 443.89 207.07 438.51 203.93 433.06 200.91 427.73 198.28 422.25 196.09 416.6 194.06 410.98 192.49 405.13 191.41 399.03 190.52 392.93 190.14 386.57 190.29 379.94 190.64 373.31 191.51 366.58 192.87 359.79 194.39 353.01 196.38 346.21 198.79 339.42 201.33 332.69 204.25 326.02 207.53 319.49 210.87 313.07 214.54 306.85 218.48 300.89 222.44 295.11 226.65 289.67 231.08 284.64 235.48 279.85 240.07 275.52 244.82 271.71 251.94 266.65 266.72 259.49 274.34 257.24 281.94 255.39 297.55 252.41 305.57 250.65 310.88 248.88 316.31 246.79 321.87 244.3 327.36 241.07 332.99 237.35 338.77 233.15 344.49 228.28 350.38 223.05 356.42 217.6 362.43 211.85 368.61 206.2 374.97 200.88 381.3 195.85 387.83 191.56 394.53 188.23 401.23 185.74 408.12 184.5 415.21 184.61" stroke-dasharray="5 1" transform="rotate(32.32, 400, 400)" opacity="0.98"></path><path d="M418.36 195.21C425.09 196.28 431.84 198.53 438.56 201.81 445.29 205.71 452 210.31 458.67 215.41 465.34 220.59 471.96 225.91 478.5 231.18 485.02 236.04 491.44 240.62 497.74 244.81 503.98 248.33 510.07 251.41 515.97 254.05 524.57 256.86 540.29 260.44 547.23 261.77 558.68 264.8 570.56 273.31 572.51 278 573.67 283.51 573.35 297.08 572.01 304.93 570.95 310.43 569.56 316.19 567.89 322.14 566.34 328.19 564.61 334.38 562.75 340.65 561.16 346.97 559.55 353.33 557.98 359.67 556.81 366.03 555.77 372.35 554.87 378.59 554.36 387.85 554.92 405.25 555.84 413.43 557.35 421.5 560.55 437.2 561.92 445.05 562.87 450.49 563.52 456.04 563.85 461.75 564.14 467.76 564.04 474.04 563.52 480.62 562.89 487.57 561.79 494.88 560.23 502.56 558.52 510.58 556.32 518.91 553.67 527.49 550.85 536.23 547.58 545.03 543.89 553.73 540.05 562.23 535.82 570.32 531.23 577.79 526.51 584.58 521.47 590.39 516.15 595.03 510.73 598.58 505.07 600.72 499.19 601.35 493.26 600.82 487.14 598.85 480.87 595.52 474.57 591.44 468.14 586.42 461.62 580.76 455.08 575.2 448.45 569.65 441.76 564.48 435.07 560.38 428.32 557.25 421.54 555.34 414.75 555.09 408.08 556.19 401.54 558.51 395 562.21 388.58 566.66 382.29 571.57 375.98 577.01 369.79 582.24 363.73 586.94 357.64 591.25 351.66 594.52 345.79 596.55 339.89 597.6 334.09 597.22 328.39 595.41 322.65 592.5 317 588.27 311.46 582.88 305.86 576.64 300.35 569.54 294.95 561.78 289.5 553.59 284.15 545.05 278.92 536.36 273.64 527.61 268.48 518.94 263.46 510.44 258.42 502.15 253.53 494.13 248.82 486.43 244.11 479.02 239.6 471.91 235.31 465.1 231.06 458.56 227.07 452.25 223.37 446.12 219.74 440.18 216.42 434.34 213.46 428.55 210.62 422.88 208.15 417.18 206.09 411.43 204.19 405.73 202.73 399.91 201.72 393.97 200.9 388.05 200.56 381.97 200.71 375.75 201.05 369.53 201.88 363.32 203.17 357.14 204.62 350.97 206.51 344.87 208.8 338.87 211.2 332.91 213.99 327.11 217.1 321.5 220.3 315.99 223.8 310.74 227.57 305.79 233.39 298.76 246.13 286.92 252.95 282.23 259.85 278.24 274.26 272.5 281.71 270.53 289.15 268.63 304.46 264.76 312.32 262.26 317.52 259.96 322.84 257.32 328.27 254.29 333.64 250.6 339.14 246.49 344.76 241.98 350.34 236.94 356.06 231.64 361.91 226.23 367.73 220.63 373.71 215.22 379.83 210.19 385.93 205.48 392.2 201.51 398.62 198.45 405.03 196.18 411.61 195.07 418.35 195.2" stroke-dasharray="3 8" transform="rotate(36.36, 400, 400)" opacity="0.34"></path><path d="M420.68 205.8C427.05 206.81 433.41 208.9 439.72 211.94 446.03 215.57 452.3 219.88 458.51 224.7 470.89 234.58 482.95 244.69 494.43 253.98 505.74 261.08 516.28 266.67 525.77 270.98 534.83 273.33 542.58 275.44 548.76 277.95 556.19 281.87 561.28 297.98 559.31 310.35 557.5 319.57 554.72 329.86 551.31 340.85 549.95 346.41 548.57 352.08 547.2 357.84 545.73 366.51 543.95 383.99 543.72 392.49 544.01 398.12 544.4 403.67 544.86 409.14 546.72 420.21 548.4 431.25 549.57 442.53 551.17 454.51 551.64 467.29 550.77 481.07 549.61 495.85 546.8 511.65 542.36 527.97 537.39 544.17 530.81 559.43 522.83 572.36 514.42 582.44 504.81 588.18 494.24 588.72 483.46 585.49 471.93 577.95 459.87 567.55 453.82 562.49 447.66 557.51 441.41 552.9 435.16 549.26 428.82 546.48 422.42 544.74 416.02 544.47 409.7 545.35 403.49 547.3 397.27 550.47 391.14 554.35 385.11 558.66 373.03 568.72 361.3 577.37 349.98 582.83 338.55 585.31 327.43 582.79 316.72 575.65 305.84 565.25 295.31 551.72 285.24 536.44 275.06 520.34 265.38 504.13 256.38 488.52 247.44 473.57 239.32 459.53 232.27 446.39 225.53 433.88 220.06 421.85 216.09 410.11 214.32 404.32 212.96 398.53 212.04 392.72 211.12 384.02 211.85 366.54 213.47 358.06 214.84 352.46 216.62 347.01 218.78 341.73 223.43 331.29 229.45 321.78 236.56 313.49 243.83 305.59 252 299.13 260.86 294.25 269.61 289.6 278.94 286.21 288.71 283.76 298.24 280.49 308.21 277.13 318.54 273.09 328.64 266.9 339.18 259.32 350.12 250.41 360.91 239.83 372.2 229.11 383.96 219.47 389.82 215.11 395.81 211.46 401.93 208.68 408.04 206.62 414.29 205.64 420.67 205.8" stroke-dasharray="8 8" transform="rotate(40.400000000000006, 400, 400)" opacity="0.45"></path><path d="M422.08 216.39C434.07 219.01 445.87 225.22 457.33 233.94 468.76 243.36 479.76 253.28 490.13 262.72 500.32 270.43 509.71 276.88 518.05 282.14 529.38 286.95 544.32 295.06 547.47 300.91 548.63 305.38 548.34 311.29 546.72 318.56 545.21 326.13 542.86 334.87 539.94 344.52 537.91 354.28 535.87 364.74 534.04 375.71 533.68 386.69 533.68 397.68 533.94 408.69 535.37 419.87 536.6 431.37 537.39 443.34 538.63 455.83 538.91 469.14 538.05 483.22 537.05 497.84 534.61 512.98 530.74 528.02 526.48 542.4 520.76 555.31 513.73 565.58 506.36 573.09 497.82 576.58 488.32 575.52 478.64 571.51 468.16 564.04 457.07 554.42 445.94 545.79 434.3 538.49 422.3 534.15 410.31 534.84 398.53 539.15 387.06 545.89 375.57 554.87 364.35 563 353.46 568.71 342.49 572.28 331.8 571.66 321.47 566.94 311.02 559.29 300.91 548.43 291.26 535.45 281.55 521.26 272.33 506.35 263.8 491.52 255.36 476.85 247.73 462.77 241.12 449.45 234.84 436.56 229.75 424.25 226.08 412.49 222.96 400.89 221.39 389.56 221.54 378.54 222.34 367.51 224.81 357.28 228.74 347.96 233.11 338.71 238.77 330.53 245.48 323.6 252.37 316.84 260.13 311.38 268.58 307.19 276.97 302.89 285.94 299.45 295.35 296.51 304.58 292.53 314.23 288.19 324.22 283.04 334.03 275.96 344.24 267.7 354.78 258.45 365.21 248 376.05 237.74 387.28 228.75 398.45 221.2 410.08 216.81 422.07 216.39" stroke-dasharray="2 8" transform="rotate(44.44, 400, 400)" opacity="0.34"></path><path d="M422.49 226.98C433.69 229.39 444.62 235.08 455.12 243.15 465.59 252.03 475.56 261.61 484.85 271.05 493.99 279.16 502.3 286.32 509.58 292.43 519.46 298.71 532.25 308.39 534.87 313.95 535.87 317.81 535.63 322.84 534.26 329.06 533.05 335.4 531.11 342.91 528.65 351.45 526.99 360.04 525.26 369.54 523.62 379.85 523.25 390.16 523.09 400.84 523.11 411.82 524.13 422.94 524.96 434.59 525.39 446.78 526.27 459.3 526.34 472.5 525.44 486.18 524.51 499.98 522.34 513.83 518.92 527.06 515.23 539.27 510.24 549.69 504.05 557.38 497.59 562.56 490.03 564.13 481.53 561.85 472.87 557.36 463.4 550.17 453.27 541.4 443.1 533.79 432.36 527.41 421.19 523.56 410.02 524.04 398.96 527.58 388.13 533.28 377.28 541.17 366.62 548.61 356.23 554.3 345.79 558.58 335.59 559.44 325.72 556.8 315.78 551.65 306.16 543.42 296.99 532.91 287.8 520.99 279.12 507.92 271.1 494.44 263.2 480.76 256.08 467.28 249.95 454.34 244.13 441.6 239.44 429.41 236.07 417.86 233.21 406.43 231.79 395.48 231.96 385.08 232.72 374.69 235.02 365.3 238.68 356.96 242.76 348.64 248.04 341.43 254.33 335.37 260.8 329.32 268.13 324.34 276.11 320.33 284.1 315.95 292.65 312.08 301.63 308.37 310.5 303.53 319.78 298.19 329.36 292.04 338.82 284.24 348.63 275.51 358.72 266.15 368.73 256.01 379.08 246.32 389.72 238.03 400.34 231.19 411.29 227.28 422.49 226.98" stroke-dasharray="6 10" transform="rotate(48.48, 400, 400)" opacity="0.69"></path><path d="M421.9 237.57C432.29 239.77 442.33 244.94 451.89 252.34 461.41 260.6 470.38 269.74 478.65 278.98 486.79 287.3 494.11 294.95 500.45 301.77 509.04 309.47 520.04 321.3 522.27 327.15 523.12 333.18 520.24 349.98 517.43 360.99 516.1 368.68 514.66 377.38 513.2 387.06 512.82 396.74 512.55 406.99 512.34 417.71 513.01 428.52 513.47 439.93 513.57 451.82 514.11 463.86 513.95 476.35 512.98 488.99 512.04 501.42 510.05 513.5 506.99 524.57 503.75 534.46 499.36 542.42 493.9 547.74 488.24 550.9 481.55 550.94 473.97 547.8 466.25 543.11 457.73 536.36 448.54 528.5 439.3 521.87 429.46 516.37 419.14 512.97 408.81 513.26 398.51 516.11 388.36 520.83 378.2 527.62 368.16 534.27 358.34 539.7 348.51 544.33 338.86 546.26 329.52 545.28 320.16 542.3 311.1 536.49 302.47 528.43 293.87 518.94 285.76 508.03 278.29 496.35 270.97 484.2 264.4 471.9 258.75 459.84 253.42 447.79 249.13 436.16 246.07 425.11 243.47 414.13 242.19 403.68 242.37 393.9 243.09 384.12 245.22 375.41 248.61 367.78 252.38 360.11 257.27 353.49 263.11 347.87 269.14 342.11 275.99 337.19 283.48 332.93 291.01 328.16 299.09 323.61 307.58 319 316.02 313.29 324.85 307.03 333.97 300.06 343 291.77 352.35 282.82 361.93 273.56 371.46 263.88 381.26 254.87 391.28 247.33 401.27 241.2 411.51 237.76 421.9 237.57" stroke-dasharray="8 3" transform="rotate(52.52, 400, 400)" opacity="0.21"></path><path d="M420.34 248.17C429.89 250.16 439.04 254.81 447.68 261.51 456.27 269.11 464.3 277.68 471.62 286.57 478.83 294.87 485.25 302.8 490.76 310.11 496.08 316.23 500.42 321.79 503.69 326.92 507.77 333.2 510.62 346 509.76 353.64 509.13 358.85 507.93 364.98 506.29 372.07 505.26 379.13 504.07 387.18 502.79 396.24 502.4 405.3 502.03 414.99 501.65 425.17 502.01 435.4 502.14 446.15 501.95 457.25 502.16 468.33 501.78 479.6 500.7 490.7 499.72 501.39 497.85 511.41 495.05 520.2 490.21 530.63 475.48 537.68 465.77 533.48 458.92 528.83 451.28 522.65 442.99 515.74 434.65 510.05 425.7 505.35 416.23 502.37 406.76 502.51 397.25 504.74 387.82 508.55 378.39 514.27 369.04 520.05 359.86 525.04 350.68 529.69 341.67 532.28 332.93 532.55 324.21 531.31 315.77 527.62 307.75 521.81 299.78 514.71 292.29 506.06 285.42 496.41 278.7 486.16 272.69 475.45 267.55 464.69 262.7 453.8 258.82 443.1 256.07 432.84 253.73 422.59 252.59 412.81 252.79 403.65 253.46 394.48 255.42 386.33 258.52 379.15 261.98 371.91 266.47 365.56 271.84 360.02 277.41 354.25 283.76 349.07 290.71 344.29 297.72 338.95 305.28 333.64 313.23 328.13 321.17 321.65 329.49 314.66 338.07 307.12 346.61 298.59 355.42 289.67 364.43 280.73 373.41 271.67 382.61 263.42 391.95 256.66 401.28 251.24 410.78 248.26 420.34 248.17" stroke-dasharray="10 3" transform="rotate(56.56, 400, 400)" opacity="0.18"></path><path d="M417.87 258.76C426.58 260.54 434.84 264.68 442.59 270.68 450.29 277.56 457.42 285.47 463.88 293.85 470.24 301.93 475.86 309.89 480.64 317.46 485.28 324.13 489.06 330.35 491.9 336.18 495.51 343.61 498.28 357.87 497.74 365.66 497.38 370.83 496.51 376.72 495.22 383.41 494.45 390.04 493.49 397.56 492.37 405.99 491.99 414.42 491.54 423.39 491.02 432.77 491.11 442.16 490.97 451.91 490.52 461.8 490.44 471.56 489.85 481.26 488.66 490.52 487.6 499.27 485.79 507.15 483.19 513.7 478.82 521.03 465.73 523.75 457.1 518.98 451.02 514.58 444.22 509.08 436.77 503.11 429.28 498.32 421.2 494.36 412.6 491.78 403.99 491.79 395.3 493.47 386.63 496.45 377.98 501.14 369.36 506.01 360.88 510.4 352.42 514.8 344.1 517.7 336.03 518.79 328 518.85 320.24 516.86 312.88 512.99 305.59 508.06 298.76 501.6 292.5 494.01 286.41 485.8 280.98 476.91 276.36 467.71 272 458.29 268.53 448.83 266.08 439.59 263.99 430.32 263 421.35 263.21 412.84 263.82 404.32 265.61 396.64 268.43 389.75 271.56 382.78 275.65 376.49 280.54 370.79 285.63 364.83 291.43 359.24 297.81 353.84 304.28 347.91 311.26 341.89 318.62 335.63 326 328.58 333.74 321.12 341.72 313.29 349.69 304.8 357.91 296.16 366.28 287.73 374.65 279.41 383.19 271.99 391.81 266.03 400.44 261.31 409.16 258.76 417.87 258.76" stroke-dasharray="1 8" transform="rotate(60.599999999999994, 400, 400)" opacity="0.16"></path><path d="M414.6 269.35C422.46 270.93 429.86 274.57 436.75 279.87 443.61 286 449.91 293.16 455.56 300.9 461.15 308.56 466.06 316.3 470.22 323.87 474.29 330.82 477.59 337.46 480.09 343.78 483.34 352.19 486.12 367.99 485.9 376.12 485.77 381.43 485.19 387.26 484.22 393.67 483.68 400.02 482.92 407.07 481.95 414.83 481.59 422.59 481.08 430.73 480.45 439.1 480.33 447.44 479.96 455.94 479.3 464.36 478.97 472.6 478.18 480.53 476.89 487.85 471.18 503.67 455.8 509.33 448.14 504.42 442.76 500.44 436.71 495.68 430.06 490.64 423.39 486.68 416.15 483.4 408.4 481.19 400.65 481.09 392.79 482.29 384.93 484.52 377.08 488.26 369.24 492.21 361.52 495.91 353.82 499.86 346.24 502.74 338.9 504.26 331.61 505.17 324.57 504.43 317.91 502.11 311.34 498.99 305.19 494.46 299.58 488.79 294.14 482.57 289.29 475.53 285.19 467.98 281.32 460.2 278.25 452.15 276.1 444.07 274.27 435.94 273.41 427.89 273.62 420.07 274.19 412.25 275.79 405 278.33 398.32 281.14 391.56 284.81 385.25 289.21 379.31 293.8 373.13 299.05 367.12 304.83 361.17 310.71 354.77 317.07 348.22 323.8 341.46 330.56 334.12 337.65 326.5 344.98 318.69 352.31 310.51 359.87 302.38 367.56 294.63 375.25 287.16 383.08 280.62 390.94 275.46 398.82 271.41 406.74 269.28 414.6 269.35" stroke-dasharray="1 4" transform="rotate(64.64, 400, 400)" opacity="0.37"></path><path d="M410.68 279.94C417.69 281.33 424.26 284.48 430.33 289.09 436.38 294.44 441.9 300.8 446.84 307.78 451.73 314.85 456.02 322.15 459.64 329.44 463.21 336.37 466.12 343.15 468.35 349.7 471.31 358.74 474.16 375.75 474.24 384.19 474.32 389.68 473.99 395.48 473.29 401.65 472.95 407.77 472.36 414.35 471.54 421.4 471.19 428.46 470.65 435.66 469.95 442.89 469.66 450.08 469.11 457.2 468.28 464.05 467.26 473.8 463.3 489.43 460.1 494.33 456.38 496.99 445.86 494.56 439.06 489.9 434.3 486.46 428.95 482.47 423.06 478.32 417.16 475.14 410.73 472.47 403.83 470.6 396.93 470.41 389.91 471.2 382.88 472.78 375.86 475.63 368.83 478.7 361.9 481.66 355 484.99 348.22 487.6 341.65 489.24 335.13 490.57 328.86 490.64 322.93 489.44 317.09 487.7 311.65 484.73 306.7 480.7 301.89 476.24 297.64 470.92 294.05 464.96 290.67 458.79 288 452.17 286.14 445.31 284.55 438.39 283.82 431.33 284.04 424.24 284.55 417.16 285.98 410.39 288.23 403.93 290.71 397.41 293.97 391.12 297.87 385 301.95 378.7 306.63 372.42 311.79 366.11 317.06 359.48 322.77 352.68 328.81 345.74 334.91 338.43 341.32 330.97 347.94 323.49 354.58 315.86 361.42 308.44 368.37 301.52 375.33 294.96 382.4 289.32 389.48 284.95 396.57 281.55 403.67 279.8 410.68 279.94" stroke-dasharray="6 8" transform="rotate(68.68, 400, 400)" opacity="0.12"></path><path d="M406.28 290.53C418.61 293.87 429.28 302.61 437.89 314.57 446.38 327.26 452.75 340.83 456.77 354.03 460.79 366.03 462.76 377.77 462.77 389.34 463.45 400.33 462.87 412.11 461.12 424.71 460.84 437.32 459.6 449.56 457.47 460.41 454.87 474.37 441.58 482.67 430.05 475.54 421.64 470.19 411.22 464.36 399.09 460.01 386.97 460.84 374.41 463.94 362.18 467.74 350.07 473.29 338.42 476.18 327.99 475.4 317.9 473.41 309.3 467.48 302.96 458.52 297.33 448.9 294.27 437.33 294.46 424.72 295.6 412.12 299.87 399.71 306.54 387.63 313.79 375.05 323.11 362 333.73 348.69 344.57 334.66 356.51 320.72 368.83 308.46 381.23 297.77 393.95 291.17 406.28 290.53" stroke-dasharray="6 4" transform="rotate(72.72, 400, 400)" opacity="0.57"></path><path d="M401.61 301.13C412.28 303.9 421.47 311.18 428.89 321.35 436.24 332.43 441.81 344.71 445.43 357 449.13 368.69 451.13 380.25 451.48 391.42 452.38 402.23 452.12 413.24 450.7 424.26 450.38 435.28 449.06 445.22 446.86 453.38 443.97 463.59 431.49 467.6 421.29 461.41 413.93 457.34 404.88 452.91 394.39 449.41 383.9 449.85 373.05 451.78 362.5 454.23 352.07 458.4 342.06 460.76 333.16 460.48 324.55 459.7 317.26 455.73 311.94 448.97 307.19 441.78 304.65 432.41 304.87 421.44 305.85 410.46 309.5 398.99 315.22 387.39 321.42 375.52 329.44 363.11 338.61 350.67 348 338.04 358.38 325.87 369.09 315.55 379.88 306.74 390.93 301.47 401.61 301.13" stroke-dasharray="4 2" transform="rotate(76.76, 400, 400)" opacity="0.57"></path><path d="M396.86 311.72C405.9 313.95 413.7 319.84 420.02 328.19 426.31 337.47 431.15 348.07 434.42 358.95 437.79 369.67 439.78 380.4 440.38 390.68 441.43 400.78 441.41 410.72 440.29 420.11 439.95 429.5 438.62 437.39 436.45 443.38 433.43 450.74 421.86 452.47 412.94 447.62 406.57 444.74 398.83 441.55 389.94 438.82 381.04 438.95 371.89 439.93 363.03 441.21 354.26 443.98 345.9 445.55 338.5 445.26 331.35 444.94 325.34 442.17 321 437.04 317.1 431.68 315.04 424.2 315.29 414.88 316.11 405.56 319.16 395.37 323.94 384.81 329.1 374.17 335.82 363.05 343.54 352.1 351.44 341.3 360.21 331.17 369.29 322.86 378.44 315.87 387.81 311.82 396.86 311.72" stroke-dasharray="6 10" transform="rotate(80.80000000000001, 400, 400)" opacity="0.90"></path><path d="M392.25 322.31C399.7 324.05 406.16 328.63 411.44 335.2 416.73 342.58 420.87 351.23 423.78 360.32 426.79 369.49 428.71 378.81 429.48 387.73 430.57 396.61 430.73 405.15 429.87 412.89 426.08 430.12 412.8 437.59 405.14 434.23 399.74 432.42 393.28 430.28 385.94 428.23 378.6 428.14 371.11 428.39 363.91 428.72 353.4 430.56 335.96 428.83 330.16 423.74 327.06 419.65 325.45 413.72 325.71 406.06 326.37 398.39 328.83 389.78 332.7 380.77 336.86 371.79 342.3 362.47 348.57 353.47 355 344.76 362.16 336.8 369.6 330.46 377.09 325.19 384.8 322.23 392.25 322.31" stroke-dasharray="5 10" transform="rotate(84.84, 400, 400)" opacity="0.95"></path><path d="M387.99 332.9C399.79 336.5 408.63 347.72 413.59 361.58 418.86 376.2 421.05 391.49 419.45 403.71 419.19 415.93 415.45 422.45 409.2 423.1 403.41 424.23 394.21 421.74 382.56 417.64 370.91 418.42 359.18 418.46 350.01 416.16 341.33 414.92 335.91 408.39 336.12 396.31 337.41 384.22 344.16 369.16 353.78 355.26 363.85 342.59 376.18 333.59 387.99 332.9" stroke-dasharray="6 1" transform="rotate(88.88, 400, 400)" opacity="0.86"></path><path d="M384.26 343.49C393.03 345.85 399.82 353.5 403.86 363.26 408.12 373.7 410.09 384.93 409.04 393.96 407.15 405.47 392.21 410.09 379.96 407.05 371.29 407.17 362.78 406.05 356.28 403.29 350.07 401.37 346.27 396.06 346.54 387.13 347.43 378.19 352.28 367.46 359.25 357.97 366.49 349.4 375.49 343.6 384.26 343.49" stroke-dasharray="4 8" transform="rotate(92.92, 400, 400)" opacity="0.55"></path><path d="M381.23 354.09C392.84 357.81 400.14 373.25 398.62 385.13 398.37 397.01 389.78 400.43 378.26 396.45 366.73 397.22 356.73 391.68 356.96 379.9 358.32 368.11 369.62 354.8 381.23 354.09" stroke-dasharray="0 10" transform="rotate(96.96, 400, 400)" opacity="0.24"></path></g></svg>