<svg xmlns="http://www.w3.org/2000/svg" version="1.1" xmlns:xlink="http://www.w3.org/1999/xlink" xmlns:svgjs="http://svgjs.dev/svgjs" viewBox="0 0 800 400"><path d="M235.42601013183594,107.62332153320312C237.36920928955078,119.73094431559245,250.5231730143229,173.69207763671875,247.085205078125,180.26905822753906C243.6472371419271,186.84603881835938,219.8804143269857,143.6472371419271,214.79820251464844,147.085205078125C209.7159907023112,150.5231730143229,214.0508270263672,187.5934295654297,216.59193420410156,200.89686584472656C219.13304138183594,214.20030212402344,234.08072153727213,225.56053161621094,230.0448455810547,226.90582275390625C226.00896962483725,228.25111389160156,197.30941518147787,205.38116709391275,192.37667846679688,208.96861267089844C187.44394175211588,212.55605824788412,190.88190714518228,236.47234853108725,200.44842529296875,248.4304962158203C210.01494344075522,260.3886439005534,222.42152404785156,275.93424224853516,249.77578735351562,280.7174987792969C277.1300506591797,285.5007553100586,354.4095815022786,293.1240590413411,364.5740051269531,277.1300354003906C374.7384287516276,261.1360117594401,331.988042195638,213.00447591145834,310.7623291015625,184.75335693359375C289.536616007487,156.50223795572916,237.51868184407553,107.62332153320312,237.2197265625,107.62332153320312C236.92077128092447,107.62332153320312,287.5934092203776,156.20328267415366,308.9685974121094,184.75335693359375C330.3437856038411,213.30343119303384,357.39910380045575,274.8878911336263,365.4708557128906,278.92376708984375C373.5426076253255,282.9596430460612,347.8325907389323,223.76681772867838,357.39910888671875,208.96861267089844C366.9656270345052,194.1704076131185,399.55157979329425,189.68610636393228,422.8699645996094,190.13453674316406C446.1883494059245,190.58296712239584,487.44394938151044,196.1136042277018,497.3094177246094,211.65919494628906C507.1748860677083,227.2047856648763,494.61883036295575,268.60987599690753,482.0627746582031,283.4080810546875C469.5067189534505,298.20628611246747,421.8236033121745,300.8968556722005,421.97308349609375,300.44842529296875C422.122563680013,299.999994913737,470.4036000569661,295.2167510986328,482.95965576171875,280.7174987792969C495.5157114664714,266.21824645996094,484.7533671061198,229.29745737711588,497.3094177246094,213.45291137695312C509.86546834309894,197.60836537679037,534.0807139078776,202.0926742553711,558.2959594726562,185.6502227783203C582.5112050374349,169.20777130126953,630.1943155924479,117.78774007161458,642.6008911132812,114.79820251464844C655.0074666341146,111.8086649576823,638.1165771484375,153.2137451171875,632.7354125976562,167.71299743652344C627.354248046875,182.21224975585938,606.8759358723959,198.9536565144857,610.3139038085938,201.79371643066406C613.7518717447916,204.63377634684244,649.7757771809896,180.26905059814453,653.3632202148438,184.75335693359375C656.9506632486979,189.23766326904297,638.415537516276,218.98355865478516,631.8385620117188,228.69955444335938C625.2615865071615,238.4155502319336,610.3139241536459,241.10613250732422,613.9013671875,243.04933166503906C617.4888102213541,244.9925308227539,652.0179341634115,235.2765375773112,653.3632202148438,240.35874938964844C654.708506266276,245.4409612019857,636.3228556315104,265.1719029744466,621.9730834960938,273.5426025390625C607.6233113606771,281.9133021036784,576.3826700846354,287.7428894042969,567.2645874023438,290.58294677734375" fill="none" stroke-width="25" stroke="url(&quot;#SvgjsLinearGradient1003&quot;)" stroke-linecap="round"></path><defs><linearGradient id="SvgjsLinearGradient1003"><stop stop-color="hsl(37, 99%, 67%)" offset="0"></stop><stop stop-color="hsl(316, 73%, 52%)" offset="1"></stop></linearGradient></defs></svg>