<svg xmlns="http://www.w3.org/2000/svg" version="1.1" xmlns:xlink="http://www.w3.org/1999/xlink" xmlns:svgjs="http://svgjs.dev/svgjs" viewBox="0 0 800 400"><path d="M213.90134898643373 165.9193524074107C213.65022797406394 171.44401610369977 211.12705923220196 222.76838113462426 211.2107667110431 225.11217772479353C211.29447418988426 227.4559743149628 211.53364024619935 194.63086180682478 214.7982148311603 191.0314587306529C218.06278941612123 187.43205565448102 243.09119192263165 192.49034372007347 246.1883515499103 186.54714476580915C249.28551117718894 180.60394581154483 248.3168964717853 120.15552234963076 247.98206798057436 127.35432707782087C247.64723948936341 134.55313180601098 242.68461090863426 257.90141142840685 242.6009034297931 263.67719542498884C242.51719595095196 269.45297942157083 234.1106141231525 196.77135883644718 247.0852021358478 189.23772704119978C260.0597901485431 181.70409524595237 355.0792194698322 182.4574684555878 381.61434642295717 182.95971190448103C408.14947337608214 183.46195535337426 517.5784723995193 199.89245024676617 531.390133776473 194.6189068507701C545.201795153426 189.345363454774 529.8475507686605 119.00753691668805 529.596432604598 126.4574612330943C529.3453144405355 133.90738554950056 528.5321699092854 268.58003305112817 528.6995820186605 274.43952452655134C528.8669941280355 280.2990160019745 528.292975573348 196.77135883644718 531.390133776473 189.23772704119978C534.487291979598 181.70409524595237 558.9536738155355 197.07032164569196 561.8834199092855 193.72204100604353C564.8131660030356 190.3737603663951 562.8639765499104 150.51725300148624 562.780270495223 153.3632916163951C562.6965644405354 156.20933023130394 561.153981432723 217.6024566554576 560.986569323348 224.21531188006696 " fill="none" stroke-width="25" stroke="url(&quot;#SvgjsLinearGradient1002&quot;)" stroke-linecap="round"></path><defs><linearGradient id="SvgjsLinearGradient1002"><stop stop-color="hsl(37, 99%, 67%)" offset="0"></stop><stop stop-color="hsl(316, 73%, 52%)" offset="1"></stop></linearGradient></defs></svg>