<svg xmlns="http://www.w3.org/2000/svg" version="1.1" xmlns:xlink="http://www.w3.org/1999/xlink" xmlns:svgjs="http://svgjs.dev/svgjs" viewBox="0 0 800 400"><path d="M271.8562927246094,267.06585693359375C271.6566925048828,254.8902104695638,269.6606903076172,218.56287384033203,270.65869140625,194.01197814941406C271.6566925048828,169.4610824584961,265.8682505289714,120.5588862101237,277.84429931640625,119.76048278808594C289.8203481038411,118.96207936604817,320.7584940592448,188.62275568644205,342.5149841308594,189.2215576171875C364.27147420247394,189.82035954793295,395.8083902994792,121.35728708902995,408.38323974609375,123.3532943725586C420.9580891927083,125.34930165608723,416.3672739664714,176.04790115356445,417.9640808105469,201.19760131835938C419.5608876546224,226.3473014831543,403.9920247395833,274.4510955810547,417.9640808105469,274.2514953613281C431.93613688151044,274.05189514160156,503.3932240804036,224.95009994506836,501.7964172363281,200C500.1996103922526,175.04990005493164,408.5828399658203,123.55289204915364,408.38323974609375,124.55089569091797C408.1836395263672,125.5488993326823,477.04591878255206,182.03592809041342,500.59881591796875,205.98802185058594C524.1517130533854,229.94011561075845,549.5010223388672,268.06385803222656,549.7006225585938,268.2634582519531C549.9002227783203,268.4630584716797,500.3992106119792,229.9401117960612,501.7964172363281,207.1856231689453C503.19362386067706,184.43113454182944,548.7026214599609,144.3113759358724,558.0838623046875,131.7365264892578" fill="none" stroke-width="25" stroke="url(&quot;#SvgjsLinearGradient1001&quot;)" stroke-linecap="round"></path><defs><linearGradient id="SvgjsLinearGradient1001"><stop stop-color="hsl(37, 99%, 67%)" offset="0"></stop><stop stop-color="hsl(316, 73%, 52%)" offset="1"></stop></linearGradient></defs></svg>