<svg class="animated" id="freepik_stories-stability-ball" xmlns="http://www.w3.org/2000/svg" viewBox="0 0 500 500" version="1.1" xmlns:xlink="http://www.w3.org/1999/xlink" xmlns:svgjs="http://svgjs.com/svgjs"><style>svg#freepik_stories-stability-ball:not(.animated) .animable {opacity: 0;}svg#freepik_stories-stability-ball.animated #freepik--ball-2--inject-127 {animation: 3s Infinite  linear floating;animation-delay: 0s;}svg#freepik_stories-stability-ball.animated #freepik--character-2--inject-127 {animation: 3s Infinite  linear floating;animation-delay: 0s;}svg#freepik_stories-stability-ball.animated #freepik--speech-bubble--inject-127 {animation: 1s 1 forwards ease-out slideLeft;animation-delay: 0s;}            @keyframes floating {                0% {                    opacity: 1;                    transform: translateY(0px);                }                50% {                    transform: translateY(-10px);                }                100% {                    opacity: 1;                    transform: translateY(0px);                }            }                    @keyframes slideLeft {                0% {                    opacity: 0;                    transform: translateX(-30px);                }                100% {                    opacity: 1;                    transform: translateX(0);                }            }        .animator-hidden { display: none; }</style><g id="freepik--Floor--inject-127" class="animable animator-active animator-hidden" style="transform-origin: 250px 351.95px;"><ellipse id="freepik--floor--inject-127" cx="250" cy="351.95" rx="243.71" ry="131.58" style="fill: rgb(245, 245, 245); transform-origin: 250px 351.95px;" class="animable"></ellipse></g><g id="freepik--Shadows--inject-127" class="animable" style="transform-origin: 264.025px 336.635px;"><ellipse id="freepik--Shadow--inject-127" cx="282.02" cy="280.73" rx="74.83" ry="43.2" style="fill: rgb(224, 224, 224); transform-origin: 282.02px 280.73px;" class="animable"></ellipse><ellipse id="freepik--shadow--inject-127" cx="379.5" cy="315.45" rx="59.6" ry="34.41" style="fill: rgb(224, 224, 224); transform-origin: 379.5px 315.45px;" class="animable"></ellipse><ellipse id="freepik--shadow--inject-127" cx="147.61" cy="350.74" rx="74.83" ry="43.2" style="fill: rgb(224, 224, 224); transform-origin: 147.61px 350.74px;" class="animable"></ellipse><ellipse id="freepik--shadow--inject-127" cx="245.08" cy="385.46" rx="59.6" ry="34.41" style="fill: rgb(224, 224, 224); transform-origin: 245.08px 385.46px;" class="animable"></ellipse><ellipse id="freepik--shadow--inject-127" cx="85.88" cy="425.03" rx="18.55" ry="10.71" style="fill: rgb(224, 224, 224); transform-origin: 85.88px 425.03px;" class="animable"></ellipse><ellipse id="freepik--shadow--inject-127" cx="442.17" cy="292.94" rx="18.55" ry="10.71" style="fill: rgb(224, 224, 224); transform-origin: 442.17px 292.94px;" class="animable"></ellipse></g><g id="freepik--Plants--inject-127" class="animable" style="transform-origin: 258.253px 229.109px;"><g id="freepik--Leaves--inject-127" class="animable" style="transform-origin: 60.99px 298.517px;"><path d="M45.16,296.92s-7.67-1.48-13.92-10.39c-5-7.15-4.76-12.23-3.92-12.62s4,1.71,9.72,9.61C39.41,286.8,45.16,296.92,45.16,296.92Z" style="fill: rgb(102, 113, 215); transform-origin: 36.0049px 285.393px;" id="elraw7wdha34" class="animable"></path><path d="M58.74,307.67c-.77-.46-6.89-6.71-11.2-14.91-2.3-4.38-2.18-7.28-1.08-7.37.64-.06,3.81,2.08,7.29,8.73S59.51,308.14,58.74,307.67Z" style="fill: rgb(102, 113, 215); transform-origin: 52.2944px 296.54px;" id="elnugltis29j" class="animable"></path><path d="M50.75,302.06c-.7-.61-3.69-1.53-8.86-2.17-3.49-.44-7.53-1.22-7.93-.13s3.23,3.76,7.28,4.28S51.44,302.68,50.75,302.06Z" style="fill: rgb(102, 113, 215); transform-origin: 42.3666px 301.668px;" id="elitpymp67tqh" class="animable"></path><path d="M64.37,311.54c-.87-.61-7-1-9.86-1.16s-6.13.23-6.92,1.47,2.63,3.09,7.42,3S65.24,312.15,64.37,311.54Z" style="fill: rgb(102, 113, 215); transform-origin: 55.9694px 312.6px;" id="el3ynfr6bt3rc" class="animable"></path><path d="M71.21,314.58c-.85-.05-4.17-4.1-7-8.23s-5.13-9.7-3.34-9.93,4.39,2.28,6.9,6.92C70.57,308.47,72.06,314.64,71.21,314.58Z" style="fill: rgb(102, 113, 215); transform-origin: 65.8433px 305.493px;" id="elhdwtw1jlvs9" class="animable"></path><path d="M77.76,317.66c-.35-.42-4.7.46-9.24,1s-6.42.8-6.69,2.15,2.28,3.13,7.22,2S78.11,318.07,77.76,317.66Z" style="fill: rgb(102, 113, 215); transform-origin: 69.7957px 320.359px;" id="elaf772qg1cuw" class="animable"></path><path d="M29.69,278.72a94,94,0,0,0,12.4,15.8A109.87,109.87,0,0,0,57.3,307.71a69.07,69.07,0,0,0,17.77,9.59c6.4,2.14,13.38,3.18,20,1.74a.09.09,0,0,0,.06-.09.07.07,0,0,0-.08-.05,44.52,44.52,0,0,1-19.48-3A83,83,0,0,1,58,306.76,111.41,111.41,0,0,1,42.61,294a93.21,93.21,0,0,1-12.79-15.37.08.08,0,0,0-.1,0A.07.07,0,0,0,29.69,278.72Z" style="fill: rgb(224, 224, 224); transform-origin: 62.407px 299.159px;" id="elocfgmh0r9op" class="animable"></path></g><g id="freepik--leaves--inject-127" class="animable" style="transform-origin: 36.6752px 247.19px;"><path d="M43.06,275.58c-1.41-11.07-5.55-13.28-8.4-17.17-3.6-4.91-3.76-8.68-3.76-8.68-1,3.22-1.28,12.13,3.26,16.94C38,270.71,41.36,271.33,43.06,275.58Z" style="fill: rgb(224, 224, 224); transform-origin: 36.6752px 262.655px;" id="ell9kwk42ljlq" class="animable"></path><path d="M37.8,247.84c4.25-5.51,5.38-12,2.59-18.17a22.43,22.43,0,0,1-2.25-10.87C30.08,231.75,34.85,243.84,37.8,247.84Z" style="fill: rgb(224, 224, 224); transform-origin: 37.8021px 233.32px;" id="elg6i64cod3t5" class="animable"></path></g><path id="freepik--leaves--inject-127" d="M83.1,317.15A7.32,7.32,0,0,0,86.7,319c.14-.2-.11-.44-.32-.56-2.73-1.56-8.38-7.83-8.95-8.64-2-2.82-5.09-7.48-5.71-8.5-.34-6.79,1.66-13.83-1.89-20.11-.14-.23-.55-.31-.51.06.19,1.92-.61,4-.73,5.94a28.89,28.89,0,0,0,0,3.48,12.35,12.35,0,0,0,2.66,6.61c0,1.06,0,2.12,0,3.18-.83-1.4-1.61-2.82-2.39-4.24-2.41-4.43-4.71-8.92-6.83-13.5a23.42,23.42,0,0,0,.12-3.11,11.54,11.54,0,0,0-.29-3c1.77-1.11,2.23-3.4,2.31-5.54,1.68-4.84,1.52-10.43,4.24-14.84A30.12,30.12,0,0,0,70.54,253a19.32,19.32,0,0,0,2.36-7.12,17.54,17.54,0,0,0-.11-4c-.07-.52-.16-1-.22-1.54a7.06,7.06,0,0,1-.14-1.45c0-.28.17-.73-.15-.85-.1-.1-.24-.16-.34,0a6.13,6.13,0,0,0-.64.71c-.2.31-.35.64-.57.92a14.81,14.81,0,0,0-1.1,2c-.64,1.23-1.32,2.42-1.88,3.7-.37.84-.74,1.69-1,2.56a8.35,8.35,0,0,0-.4,2.43c0,.46,0,.89,0,1.35,0,.63.08,1.25.13,1.88.09,1,.2,2.06.26,3.08,0,.24,0,.48,0,.72a2.55,2.55,0,0,0,0,.67.08.08,0,0,1,0,0,22.61,22.61,0,0,0-.94,3.32c-.57,2.38-1.19,4.83-1.67,7.28-.19-3.84-1.17-7.61-1.87-11.38,0-.21-.4-.47-.53-.18-2.83,6.32-3.28,12.6-.4,18.92a17.58,17.58,0,0,1,.27,4.1c0,.45-.08.93-.11,1.41A114.78,114.78,0,0,1,56,267.76c-.38-1.22-.73-2.46-1.07-3.68a.17.17,0,0,0,0-.23l-.11-.11-1-3.55a15.6,15.6,0,0,1,.47-1.75,55.22,55.22,0,0,1,2.24-5.19,21.3,21.3,0,0,0,1.59-7.55c0-.58,0-1.17,0-1.76,0-.37,0-.75,0-1.13a8.33,8.33,0,0,0-.07-1.8c-.13-.65-.59-.12-.78.2-.48.87-.86,1.8-1.26,2.71s-.85,1.52-1.2,2.33c-.11.24-.23.47-.35.7a2.08,2.08,0,0,1-.32.54c-.09-.08-.11-.33-.14-.45-.08-.29-.17-.57-.23-.86a6.69,6.69,0,0,0-.34-1.1c-.14-.3-.21-.62-.32-.93a3.11,3.11,0,0,0-.37-.67,8.43,8.43,0,0,1-.67-1.84,16,16,0,0,1-.76-4.71c0-.22,0-.44,0-.66s-.36-.66-.51-.3a26.18,26.18,0,0,0-1.73,7,18.53,18.53,0,0,0-.19,4.27,17.29,17.29,0,0,0,.23,1.76,18.41,18.41,0,0,0,.49,1.84c.66,2.08,1.92,3.49,2.75,5.45.13,1,.3,2,.51,3a7.29,7.29,0,0,0-1.44-1.4,12,12,0,0,0-2.79-1.36,20.91,20.91,0,0,1-4.51-2.5.19.19,0,0,0-.29.23c.56,2.07,1.27,4.22,2.94,5.7,2.1,1.88,4.81,2.45,7.22,3.74.43,1.5.9,3,1.31,4.43.76,2.64,1.65,5.24,2.64,7.8a16.54,16.54,0,0,0-9.48-5c-.32,0-.19.34,0,.44,2.93,1.32,3.63,5.76,5.87,8a9.07,9.07,0,0,0,2.41,1.7,15.2,15.2,0,0,0,3.84,1.12c.23.52.45,1,.69,1.55,2.43,5.28,5.14,10.42,7.94,15.49.62,1.1,3.53,5.9,4.2,6.86C76.42,310.29,79,313.91,83.1,317.15Zm-30.57-73a10.69,10.69,0,0,1,1,3.36,9.11,9.11,0,0,1-.16,2.21,15.73,15.73,0,0,1-.38,1.68,6.42,6.42,0,0,0-.23.86c0,.33-.1.67-.17,1a8.15,8.15,0,0,0-.19,1.08,3,3,0,0,0,0,1.12A27,27,0,0,0,51,252.52a14.55,14.55,0,0,1-.7-1.5,11.68,11.68,0,0,1-.54-1.43,7.63,7.63,0,0,1-.26-1.33c0-.36-.06-.71-.09-1.06a12.21,12.21,0,0,1,0-1.6c.1-1.36.36-2.67.59-4a37.05,37.05,0,0,1,.87-3.75,14.87,14.87,0,0,0,.58,3.56A21.67,21.67,0,0,0,52.53,244.16Zm4.32,5.73a39.82,39.82,0,0,1-1.56,4.62c-.28.74-.62,1.46-.91,2.2A13.1,13.1,0,0,0,54,258a3.31,3.31,0,0,0-.26,1.23,18.06,18.06,0,0,1-.58-4.9c0-.31,0-.62.05-.93a11.72,11.72,0,0,1,.32-1.65,41.11,41.11,0,0,1,1.61-4.43c.2-.54.42-1.07.65-1.6.43-1,.93-2,1.36-2.94.06-.14.21-.66.37-.73s.19.49.2.62c0,.81-.09,1.63-.1,2.44,0,.33,0,.65,0,1,0,.7-.19,1.4-.3,2.1a9,9,0,0,1-.23,1c0,.1,0,.2-.07.3Zm-3,13a25.86,25.86,0,0,0-3.12-1.38c-2.23-1-5.52-2.94-5.84-5.69-.18-1.57.3-.39,1.2.13a17,17,0,0,0,2.24,1c1.9.74,3.82,1.68,4.86,3.43C53.36,261.16,53.59,262,53.82,262.85Zm13.49-6.05c0-.07,0-.31,0-.4s0-.29,0-.44,0-.58-.07-.87c-.06-.58-.13-1.17-.2-1.75a19.37,19.37,0,0,1,0-3c.19-3.44,2-6.52,3.67-9.44.13-.24.54-1,.85-1.14s.49,2.17.52,2.44a21.34,21.34,0,0,1-.24,5.41,14.78,14.78,0,0,1-1.17,3.85,18,18,0,0,1-2,3.48c-.27.37-.5.68-.73,1A5.27,5.27,0,0,0,67.31,256.8ZM61.81,276c-1-3.09-2.16-5.73-2-9.13a24.6,24.6,0,0,1,2.08-8.61c.78,3.64,2.2,8.49,1.84,12.63,0,.21-.07.43-.1.64a.08.08,0,0,0,0,0A8.7,8.7,0,0,1,61.81,276Zm-4.59,4.48a10,10,0,0,1-4.31-4c-.76-1.21-1.29-2.58-2.16-3.73,0,0-.89-.84-1.3-1.25.76.49,3.25,1.34,3.69,1.56a14.84,14.84,0,0,1,5.63,4.77c.49,1.21,1,2.43,1.53,3.62A28,28,0,0,1,57.22,280.47Zm14,16.09a13.6,13.6,0,0,1-2.14-6.65,29.55,29.55,0,0,1,.35-5.14c.14-.8.35-1.59.42-2.4C72,286.84,71.44,291.72,71.23,296.56Z" style="fill: rgb(224, 224, 224); transform-origin: 65.2762px 277.417px;" class="animable"></path><g id="freepik--leaves--inject-127" class="animable" style="transform-origin: 465.493px 241.32px;"><path d="M478.1,235.22s6.41-4.45,8.52-15.13c1.68-8.57-.6-13.11-1.52-13.13s-3,3.2-5,12.72C479.26,223.64,478.1,235.22,478.1,235.22Z" style="fill: rgb(102, 113, 215); transform-origin: 482.66px 221.09px;" id="el3q1z5f3vjoh" class="animable"></path><path d="M470,250.55c.52-.74,3.59-8.93,4.21-18.18.33-4.92-1-7.53-2-7.17-.61.21-2.64,3.45-3.13,10.94S469.52,251.28,470,250.55Z" style="fill: rgb(102, 113, 215); transform-origin: 471.601px 237.883px;" id="el4o8akafy36r" class="animable"></path><path d="M475.07,242.19c.38-.85,2.75-2.9,7.22-5.58,3-1.81,6.39-4.16,7.2-3.33s-1.44,4.75-4.93,6.86S474.68,243,475.07,242.19Z" style="fill: rgb(102, 113, 215); transform-origin: 482.354px 237.809px;" id="el915jkzynw2a" class="animable"></path><path d="M466.45,256.36c.55-.91,6-3.76,8.54-5s5.7-2.28,6.93-1.46-1.16,3.88-5.59,5.71S465.9,257.27,466.45,256.36Z" style="fill: rgb(102, 113, 215); transform-origin: 474.328px 253.316px;" id="eludc8wqjfq0j" class="animable"></path><path d="M461.42,261.92c.76-.4,2.15-5.45,3.06-10.35s.76-11-1-10.44-3.09,3.86-3.51,9.12C459.53,256.07,460.67,262.31,461.42,261.92Z" style="fill: rgb(102, 113, 215); transform-origin: 462.45px 251.516px;" id="eltnsjods5dbo" class="animable"></path><path d="M456.68,267.38c.15-.53,4.49-1.48,8.87-2.8s6.19-1.87,7-.74-.81,3.79-5.78,4.78S456.52,267.9,456.68,267.38Z" style="fill: rgb(102, 113, 215); transform-origin: 464.712px 266.076px;" id="el2luezsg85ru" class="animable"></path><path d="M484.87,212.32a94.15,94.15,0,0,1-4.93,19.46A111.3,111.3,0,0,1,471.37,250,69.36,69.36,0,0,1,459,266c-5,4.54-10.95,8.31-17.58,9.68a.09.09,0,0,1-.09-.06.08.08,0,0,1,.05-.08A44.46,44.46,0,0,0,458,264.91a82.55,82.55,0,0,0,12.38-15.51,110.16,110.16,0,0,0,8.88-17.87,93.83,93.83,0,0,0,5.48-19.23.07.07,0,1,1,.14,0Z" style="fill: rgb(224, 224, 224); transform-origin: 463.105px 243.955px;" id="elktb2r0blgyh" class="animable"></path></g><g id="freepik--leaves--inject-127" class="animable" style="transform-origin: 452.513px 153.59px;"><path d="M446,172.13c-.76-10.89-4.68-13.29-7.24-17.25-3.25-5-3.19-8.7-3.19-8.7-1.19,3.09-1.94,11.79,2.23,16.75C441.34,167.09,444.61,167.89,446,172.13Z" style="fill: rgb(224, 224, 224); transform-origin: 440.318px 159.155px;" id="ell2jp7dvchf" class="animable"></path><path d="M452.69,157.31c6.59-1.71,11.39-6.08,12.91-12.5a21.94,21.94,0,0,1,4.79-9.76C456.38,140.23,452.8,152.45,452.69,157.31Z" style="fill: rgb(224, 224, 224); transform-origin: 461.54px 146.18px;" id="elp527w6we1y" class="animable"></path></g><path id="freepik--leaves--inject-127" d="M450.07,251.53a37.19,37.19,0,0,0,5.23-12c1.57-5.57,3-11.2,4.17-16.89.11-.55.2-1.11.31-1.67a15.77,15.77,0,0,0,3.48-2,9.07,9.07,0,0,0,1.95-2.2c1.67-2.69,1.33-7.18,3.87-9.14.16-.13.2-.54-.1-.43a16.63,16.63,0,0,0-8.08,7c.37-2.71.65-5.44.78-8.19.06-1.51.17-3.06.25-4.61,2.05-1.81,4.55-3,6.17-5.31,1.27-1.82,1.47-4.08,1.54-6.22,0-.19-.19-.31-.33-.15a20.94,20.94,0,0,1-3.82,3.46,12.29,12.29,0,0,0-2.4,2,7.31,7.31,0,0,0-1.08,1.69c0-1-.09-2-.19-3,.35-2.09,1.26-3.76,1.42-5.93a17.23,17.23,0,0,0,.06-1.9c0-.61-.12-1.17-.19-1.77a18.5,18.5,0,0,0-1.16-4.11,26.43,26.43,0,0,0-3.29-6.38c-.23-.32-.5.19-.43.4s.11.43.16.64a15.58,15.58,0,0,1,.34,4.76,7.94,7.94,0,0,1-.22,2,3.06,3.06,0,0,0-.21.73c0,.33,0,.66-.09,1a6.36,6.36,0,0,0-.08,1.15c0,.29,0,.59,0,.89,0,.13,0,.37,0,.47a1.88,1.88,0,0,1-.44-.45c-.17-.2-.34-.39-.5-.6-.53-.71-1.17-1.29-1.71-2s-1.18-1.61-1.84-2.35c-.26-.27-.83-.67-.81,0a8.41,8.41,0,0,0,.35,1.77c.08.37.17.74.26,1.1.14.56.25,1.14.4,1.71a19.34,19.34,0,0,0,2,4.91,19.14,19.14,0,0,0,1.32,2.07c1.14,1.49,2.37,2.93,3.37,4.54a17.5,17.5,0,0,1,.86,1.59c0,1.22-.09,2.45-.13,3.68l-.08.13a.17.17,0,0,0,.07.22c-.05,1.27-.1,2.55-.19,3.83a115.94,115.94,0,0,1-2.13,14.6c-.15-.46-.32-.91-.44-1.34a17.59,17.59,0,0,1-.68-4.06c1.35-6.81-.54-12.81-4.75-18.32-.19-.25-.47.09-.47.3.19,3.83.1,7.72.8,11.51-1-2.28-2.2-4.52-3.3-6.71a23.2,23.2,0,0,0-1.68-3s0,0,0,0a2.8,2.8,0,0,0-.19-.65c-.05-.23-.1-.46-.14-.7-.17-1-.31-2-.46-3.06-.09-.62-.19-1.24-.31-1.86-.08-.45-.18-.87-.3-1.31a8.73,8.73,0,0,0-.95-2.27c-.49-.78-1.05-1.52-1.61-2.25-.83-1.12-1.77-2.12-2.68-3.17a13.48,13.48,0,0,0-1.52-1.68c-.28-.23-.51-.52-.77-.76a7.08,7.08,0,0,0-.79-.56c-.13-.1-.25,0-.33.11-.28.19,0,.6.06.87a7.8,7.8,0,0,1,.2,1.44c.06.52.08,1,.14,1.55a15.51,15.51,0,0,0,2.41,7.22,18.09,18.09,0,0,0,2.34,3.11,29,29,0,0,0,2.84,2.59c3.66,3.67,4.8,9.15,7.55,13.48.57,2.05,1.54,4.18,3.51,4.85a11.78,11.78,0,0,0,.43,3,22.36,22.36,0,0,0,.83,3c-1,5-2.21,9.85-3.54,14.72-.43,1.56-.86,3.12-1.35,4.67-.19-1-.44-2.07-.72-3.1a12.28,12.28,0,0,0,1.06-7,30.12,30.12,0,0,0-.83-3.37c-.57-1.86-1.83-3.7-2.08-5.62-.05-.37-.44-.2-.51,0-2,6.94,1.55,13.33,2.79,20a30.59,30.59,0,0,1-4.13,8.6C448.9,251.19,449.67,252.08,450.07,251.53Zm9.27-72.38a14.39,14.39,0,0,0-.26-3.59,32.38,32.38,0,0,1,1.71,3.44,39.43,39.43,0,0,1,1.5,3.77,10.66,10.66,0,0,1,.39,1.55c.06.35.1.7.16,1.05a7.74,7.74,0,0,1,.05,1.36,9.57,9.57,0,0,1-.19,1.52,15.56,15.56,0,0,1-.34,1.62,26.72,26.72,0,0,0-.75,3.21,2.81,2.81,0,0,0-.22-1.1,9,9,0,0,0-.43-1c-.15-.31-.28-.62-.4-.94a5.86,5.86,0,0,0-.42-.78,14.82,14.82,0,0,1-.76-1.55,9.1,9.1,0,0,1-.67-2.11,11.11,11.11,0,0,1,.21-3.5A22.62,22.62,0,0,0,459.34,179.15Zm-3.52,9.13-.14-.26c-.16-.32-.33-.63-.46-1-.26-.66-.57-1.3-.77-2-.09-.31-.16-.63-.23-1-.2-.79-.51-1.55-.66-2.35,0-.13-.19-.69,0-.65s.45.5.54.62c.64.86,1.35,1.69,2,2.55.35.47.69.93,1,1.41a41,41,0,0,1,2.58,3.94,11,11,0,0,1,.69,1.53c.1.3.19.6.27.89a18.35,18.35,0,0,1,.56,4.9,3.18,3.18,0,0,0-.54-1.13,11.59,11.59,0,0,0-.69-1.12c-.45-.65-.95-1.28-1.39-1.93a38.56,38.56,0,0,1-2.59-4.13ZM462,198c.6-1.95,2.26-3.3,3.93-4.46a18.45,18.45,0,0,0,2-1.46c.76-.71.95-2,1.14-.4.31,2.75-2.44,5.39-4.38,6.89a26.62,26.62,0,0,0-2.71,2C462,199.7,462,198.83,462,198Zm-15.38-.79c-.3-.27-.6-.52-.94-.81a18.61,18.61,0,0,1-2.74-2.93,15.49,15.49,0,0,1-2-3.48,22,22,0,0,1-1.48-5.21c0-.27-.51-2.51-.05-2.49s.9.71,1.09.91c2.3,2.46,4.77,5,5.74,8.34a17.86,17.86,0,0,1,.68,2.87c.07.58.13,1.17.21,1.75,0,.29.08.58.13.86l.09.43c0,.09,0,.34.08.4A4.91,4.91,0,0,0,446.65,197.16Zm7.78,14.15v0l-.25-.6c-1.3-3.95-1-9-1.12-12.72a24.48,24.48,0,0,1,4,7.9c.92,3.28.38,6.12.14,9.35A8.67,8.67,0,0,1,454.43,211.31Zm5.5,8.81c.25-1.28.46-2.58.66-3.88a14.66,14.66,0,0,1,4.38-5.93c.38-.32,2.6-1.73,3.23-2.37-.3.49-1,1.5-1,1.51-.57,1.32-.78,2.78-1.24,4.13a9.87,9.87,0,0,1-3.26,4.92A26.94,26.94,0,0,1,459.93,220.12Zm-9.08,3.14c.26.77.65,1.5,1,2.24a28.72,28.72,0,0,1,1.54,4.93,13.67,13.67,0,0,1-.56,7C451.48,232.73,449.85,228.09,450.85,223.26Z" style="fill: rgb(224, 224, 224); transform-origin: 453.939px 212.691px;" class="animable"></path></g><g id="freepik--Bottles--inject-127" class="animable" style="transform-origin: 263.174px 326.362px;"><g id="freepik--Water--inject-127" class="animable" style="transform-origin: 85.8744px 392.436px;"><path d="M72.82,394.63A30.75,30.75,0,0,1,75,389c.1-.21.19-.41.3-.62a11.49,11.49,0,0,0-.16-10.82l-.19-.35a12.3,12.3,0,0,1-1.68-6.37,7.55,7.55,0,0,1,3.64-6,12,12,0,0,1,1.69-.82,2.9,2.9,0,0,0,1.83-2.68v-3.29L91,358v3.3A2.87,2.87,0,0,0,92.83,364a12,12,0,0,1,1.69.81,7.52,7.52,0,0,1,3.69,6,12.31,12.31,0,0,1-1.63,6.38l-.18.32a11.52,11.52,0,0,0-.08,10.85c.1.21.2.41.29.61a30.14,30.14,0,0,1,2.22,5.59,25.94,25.94,0,0,1,.51,5.68l.06,22.88c0,2-1.3,4-3.92,5.52a18.38,18.38,0,0,1-7.63,2.23,23.2,23.2,0,0,1-3.82,0,18.5,18.5,0,0,1-7.6-2.16c-2.63-1.51-4-3.5-4-5.49l0-11.11c0-1.39-.06-10.35-.06-11.79A25.81,25.81,0,0,1,72.82,394.63Z" style="fill: rgb(102, 113, 215); transform-origin: 85.8785px 394.474px;" id="elnk7p5pr3nt8" class="animable"></path><g id="el841yjf20asl"><path d="M80.42,361.35A2.9,2.9,0,0,1,78.59,364a12,12,0,0,0-1.69.82,7.55,7.55,0,0,0-3.64,6,12.3,12.3,0,0,0,1.68,6.37l.19.35a11.49,11.49,0,0,1,.16,10.82c-.11.21-.2.41-.3.62a30.75,30.75,0,0,0-2.17,5.6,25.81,25.81,0,0,0-.46,5.67c0,1.44.06,10.4.06,11.79l0,11.11c0,1.85,1.16,3.68,3.42,5.14,0-6.92,0-23.66,0-28,0-7.43,3.73-8.88,4.28-14.67S74,375.19,76.44,370.15s8-6.46,7.44-11.92l-.06-.19-3.41,0Z" style="opacity: 0.1; transform-origin: 78.1341px 393.165px;" class="animable"></path></g><g id="elamimawz2qkd"><path d="M75.13,377.59l-.19-.35a12,12,0,0,1-1.64-5.39,9.64,9.64,0,0,0,1,2.19,20.74,20.74,0,0,0,4.76,5c1.81,1.48,3.82,3.16,4,5.48s-1.37,4.3-3.17,5.66S76,392.45,74.39,394a12.81,12.81,0,0,0-1.84,2.3c.07-.58.15-1.15.27-1.7A30.75,30.75,0,0,1,75,389c.1-.21.19-.41.3-.62A11.49,11.49,0,0,0,75.13,377.59Z" style="opacity: 0.1; transform-origin: 77.8121px 384.075px;" class="animable"></path></g><path d="M92.75,361.7v1.77a3.57,3.57,0,0,1-2.09,2.95,11.24,11.24,0,0,1-10.15,0,4.82,4.82,0,0,1-1.58-1.37,2.73,2.73,0,0,1-.53-1.55v-1.8a2,2,0,0,1,0-.48,3.84,3.84,0,0,1,2-2.46l.11-.06a11.26,11.26,0,0,1,10,0,3.85,3.85,0,0,1,2,2.44A1.67,1.67,0,0,1,92.75,361.7Z" style="fill: rgb(55, 71, 79); transform-origin: 85.5678px 362.58px;" id="el5wwxaio3ojb" class="animable"></path><path d="M80.52,364.66c-2.81-1.61-2.82-4.23,0-5.86a11.22,11.22,0,0,1,10.14,0c2.81,1.61,2.82,4.23,0,5.86A11.22,11.22,0,0,1,80.52,364.66Z" style="fill: rgb(38, 50, 56); transform-origin: 85.59px 361.73px;" id="el8kej9x2kzk" class="animable"></path><path d="M92.74,359.63v1.06a2.22,2.22,0,0,1-.06.51,3.85,3.85,0,0,1-2,2.45,10,10,0,0,1-4.48,1.21,10.69,10.69,0,0,1-5.67-1.18,4.9,4.9,0,0,1-1.58-1.36,2.77,2.77,0,0,1-.47-1.06,2.05,2.05,0,0,1-.06-.49v-1.1a3.56,3.56,0,0,1,2.08-2.94l.39-.21a11.28,11.28,0,0,1,9.76.17A3.54,3.54,0,0,1,92.74,359.63Z" style="fill: rgb(55, 71, 79); transform-origin: 85.58px 360.189px;" id="ellrf79d1nf0o" class="animable"></path><path d="M92.74,359.59c0,2.28-3.19,4.14-7.15,4.15s-7.18-1.82-7.19-4.09,3.19-4.14,7.16-4.15S92.73,357.31,92.74,359.59Z" style="fill: rgb(69, 90, 100); transform-origin: 85.57px 359.62px;" id="el18lrjb72i6s" class="animable"></path><path d="M88,355.36v3.72a1,1,0,0,1,0,.17,1.35,1.35,0,0,1-.71.85,3.53,3.53,0,0,1-1.55.42,3.76,3.76,0,0,1-2-.41,1.69,1.69,0,0,1-.54-.47,1,1,0,0,1-.17-.37.88.88,0,0,1,0-.17v-3.72a1.24,1.24,0,0,1,.72-1l.13-.07a3.91,3.91,0,0,1,3.39,0A1.23,1.23,0,0,1,88,355.36Z" style="fill: rgb(55, 71, 79); transform-origin: 85.5148px 357.227px;" id="elyocwzw6zkcn" class="animable"></path><path d="M88,355.35c0,.79-1.11,1.43-2.48,1.44s-2.49-.63-2.49-1.42,1.11-1.44,2.48-1.44S88,354.56,88,355.35Z" style="fill: rgb(69, 90, 100); transform-origin: 85.515px 355.36px;" id="elw74epwha1a" class="animable"></path><path d="M86.44,355.35c0,.29-.4.51-.88.52s-.89-.23-.89-.51.4-.51.88-.51S86.44,355.07,86.44,355.35Z" style="fill: rgb(38, 50, 56); transform-origin: 85.555px 355.36px;" id="el7t01rzcmwv5" class="animable"></path></g><g id="freepik--bottle-of-water--inject-127" class="animable" style="transform-origin: 442.355px 260.512px;"><g id="freepik--bottle-of-water--inject-127" class="animable" style="transform-origin: 442.355px 260.512px;"><g id="freepik--Bottle--inject-127" class="animable" style="transform-origin: 442.355px 265.152px;"><path d="M454,244.77h0c0-4.37-4-8.54-5.76-10.19a8.13,8.13,0,0,1-1.76-1.84,3.33,3.33,0,0,1-.2-1.68h-7.79a3.33,3.33,0,0,1-.2,1.68,7.9,7.9,0,0,1-1.76,1.84c-1.74,1.65-5.76,5.82-5.76,10.19h0a4,4,0,0,0,.18,1.18,4,4,0,0,0-.18,1.19h0V249h0a4.14,4.14,0,0,0,.16,1.11,3.89,3.89,0,0,0-.15,1.26h0v2.36a3.91,3.91,0,0,0,.68,2.19l.51.74a3.88,3.88,0,0,1,.24,4l-1,1.88a3.89,3.89,0,0,0-.44,1.8v28.18h0c0,1.72,1.14,3.43,3.4,4.74,4.54,2.62,11.89,2.62,16.43,0,2.27-1.31,3.4-3,3.4-4.74h0V264.35a3.89,3.89,0,0,0-.44-1.8l-1-1.88a3.91,3.91,0,0,1,.23-4l.51-.74a3.91,3.91,0,0,0,.68-2.19v-2.36h0a3.89,3.89,0,0,0-.15-1.26A3.77,3.77,0,0,0,454,249h0v-1.88h0a4.09,4.09,0,0,0-.18-1.19,4,4,0,0,0,.18-1.18Z" style="fill: rgb(102, 113, 215); transform-origin: 442.385px 265.142px;" id="elqwxflf5kdwb" class="animable"></path><g id="el6jxi72wup9u"><path d="M454,244.77h0c0-4.37-4-8.54-5.76-10.19a8.13,8.13,0,0,1-1.76-1.84,3.33,3.33,0,0,1-.2-1.68h-7.79a3.33,3.33,0,0,1-.2,1.68,7.9,7.9,0,0,1-1.76,1.84c-1.74,1.65-5.76,5.82-5.76,10.19h0a4,4,0,0,0,.18,1.18,4,4,0,0,0-.18,1.19h0V249h0a4.14,4.14,0,0,0,.16,1.11,3.89,3.89,0,0,0-.15,1.26h0v2.36a3.91,3.91,0,0,0,.68,2.19l.51.74a3.88,3.88,0,0,1,.24,4l-1,1.88a3.89,3.89,0,0,0-.44,1.8v28.18h0c0,1.72,1.14,3.43,3.4,4.74,4.54,2.62,11.89,2.62,16.43,0,2.27-1.31,3.4-3,3.4-4.74h0V264.35a3.89,3.89,0,0,0-.44-1.8l-1-1.88a3.91,3.91,0,0,1,.23-4l.51-.74a3.91,3.91,0,0,0,.68-2.19v-2.36h0a3.89,3.89,0,0,0-.15-1.26A3.77,3.77,0,0,0,454,249h0v-1.88h0a4.09,4.09,0,0,0-.18-1.19,4,4,0,0,0,.18-1.18Z" style="fill: rgb(255, 255, 255); opacity: 0.5; transform-origin: 442.385px 265.142px;" class="animable"></path></g><path d="M430.72,249c0,1.72,1.14,3.44,3.4,4.75,4.54,2.61,11.89,2.61,16.43,0,2.27-1.31,3.4-3,3.4-4.75v-1.88c0,1.71-1.13,3.43-3.4,4.74-4.54,2.62-11.89,2.62-16.43,0-2.26-1.31-3.4-3-3.4-4.74Z" style="fill: rgb(102, 113, 215); transform-origin: 442.335px 251.414px;" id="eltlj666tglom" class="animable"></path><path d="M430.72,253.79c0,1.72,1.14,3.43,3.4,4.74,4.54,2.62,11.89,2.62,16.43,0,2.27-1.31,3.4-3,3.4-4.74v-2.55c0,1.72-1.13,3.43-3.4,4.74-4.54,2.62-11.89,2.62-16.43,0-2.26-1.31-3.4-3-3.4-4.74Z" style="fill: rgb(102, 113, 215); transform-origin: 442.335px 255.867px;" id="el80duw66djcj" class="animable"></path><path d="M454,244.77a4,4,0,0,1-.05.6.59.59,0,0,1,0,.13,3.69,3.69,0,0,1-.11.45,6.55,6.55,0,0,1-3.22,3.56c-4.54,2.62-11.89,2.62-16.43,0A6.62,6.62,0,0,1,430.9,246a.14.14,0,0,0,0-.06s0-.1,0-.16a3.89,3.89,0,0,1-.12-1c0-4.37,4-8.54,5.76-10.19a8.24,8.24,0,0,0,1.77-1.84,3.47,3.47,0,0,0,.19-1.68h7.79a3.33,3.33,0,0,0,.2,1.68,8.13,8.13,0,0,0,1.76,1.84C449.94,236.23,454,240.4,454,244.77Z" style="fill: rgb(102, 113, 215); transform-origin: 442.39px 241.273px;" id="eloiogah8qh8g" class="animable"></path><path d="M449.83,266.68a16.57,16.57,0,0,1-15,0c-2.82-1.63-3.72-4-2.68-6h0v0l-1,1.88a3.89,3.89,0,0,0-.44,1.8v28.18c0,1.72,1.14,3.43,3.4,4.74,4.54,2.62,11.89,2.62,16.43,0,2.27-1.31,3.4-3,3.4-4.74V264.35a3.89,3.89,0,0,0-.44-1.8l-1-1.88v0h0C453.55,262.72,452.66,265.05,449.83,266.68Z" style="fill: rgb(102, 113, 215); transform-origin: 442.325px 279.957px;" id="eli5x0o1by5cf" class="animable"></path><g id="elmjjcyjspxn"><g style="opacity: 0.7; transform-origin: 442.355px 265.157px;" class="animable"><path d="M430.72,249c0,1.72,1.14,3.44,3.4,4.75,4.54,2.61,11.89,2.61,16.43,0,2.27-1.31,3.4-3,3.4-4.75v-1.88c0,1.71-1.13,3.43-3.4,4.74-4.54,2.62-11.89,2.62-16.43,0-2.26-1.31-3.4-3-3.4-4.74Z" style="fill: rgb(255, 255, 255); transform-origin: 442.335px 251.414px;" id="elqqm47dw1tk" class="animable"></path><path d="M430.72,253.79c0,1.72,1.14,3.43,3.4,4.74,4.54,2.62,11.89,2.62,16.43,0,2.27-1.31,3.4-3,3.4-4.74v-2.55c0,1.72-1.13,3.43-3.4,4.74-4.54,2.62-11.89,2.62-16.43,0-2.26-1.31-3.4-3-3.4-4.74Z" style="fill: rgb(255, 255, 255); transform-origin: 442.335px 255.867px;" id="elk0ovkf2v59k" class="animable"></path><path d="M454,244.77a4,4,0,0,1-.05.6.59.59,0,0,1,0,.13,3.69,3.69,0,0,1-.11.45,6.55,6.55,0,0,1-3.22,3.56c-4.54,2.62-11.89,2.62-16.43,0A6.62,6.62,0,0,1,430.9,246a.14.14,0,0,0,0-.06s0-.1,0-.16a3.89,3.89,0,0,1-.12-1c0-4.37,4-8.54,5.76-10.19a8.24,8.24,0,0,0,1.77-1.84,3.47,3.47,0,0,0,.19-1.68h7.79a3.33,3.33,0,0,0,.2,1.68,8.13,8.13,0,0,0,1.76,1.84C449.94,236.23,454,240.4,454,244.77Z" style="fill: rgb(255, 255, 255); transform-origin: 442.39px 241.273px;" id="eldkl6uhvfjk4" class="animable"></path><path d="M449.83,266.68a16.57,16.57,0,0,1-15,0c-2.82-1.63-3.72-4-2.68-6h0v0l-1,1.88a3.89,3.89,0,0,0-.44,1.8v28.18c0,1.72,1.14,3.43,3.4,4.74,4.54,2.62,11.89,2.62,16.43,0,2.27-1.31,3.4-3,3.4-4.74V264.35a3.89,3.89,0,0,0-.44-1.8l-1-1.88v0h0C453.55,262.72,452.66,265.05,449.83,266.68Z" style="fill: rgb(255, 255, 255); transform-origin: 442.325px 279.957px;" id="el07yfm7v9093" class="animable"></path></g></g></g><g id="freepik--water--inject-127" class="animable" style="transform-origin: 442.355px 267.245px;"><path d="M452.56,246.32a2.65,2.65,0,0,1,.13.82V249a2.79,2.79,0,0,1-.11.76l-.1.35.1.35a2.78,2.78,0,0,1,.1.86l-.05,1.32h.06v1.08a2.62,2.62,0,0,1-.46,1.49l-.51.73a5.13,5.13,0,0,0-.9,2.91,5.05,5.05,0,0,0,.59,2.38l1,1.89a2.67,2.67,0,0,1,.3,1.21v28.18c0,1.32-1,2.62-2.77,3.65a16.94,16.94,0,0,1-15.16,0c-1.79-1-2.77-2.33-2.77-3.65V264.35a2.66,2.66,0,0,1,.29-1.21l1-1.89A5.16,5.16,0,0,0,433,256l-.51-.73a2.61,2.61,0,0,1-.45-1.49v-1.08h0l0-1.32a2.51,2.51,0,0,1,.11-.86l.1-.35-.1-.35A2.45,2.45,0,0,1,432,249v-1.88a2.91,2.91,0,0,1,.12-.82l.12-.37-.12-.37a2.84,2.84,0,0,1-.12-.81,9,9,0,0,1,1.41-4.48l0,0,.09-.15,0-.07a6.39,6.39,0,0,1,2.15-1.92,14.64,14.64,0,0,1,13.27,0,6.29,6.29,0,0,1,2.15,1.92l0,.07.1.15s0,0,0,0a9,9,0,0,1,1.42,4.48,2.85,2.85,0,0,1-.13.81l-.11.37Z" style="fill: rgb(102, 113, 215); transform-origin: 442.355px 267.245px;" id="elsfjqa6toaf" class="animable"></path><g id="elx8med8o80mf"><path d="M452.56,246.32a2.65,2.65,0,0,1,.13.82V249a2.79,2.79,0,0,1-.11.76l-.1.35.1.35a2.78,2.78,0,0,1,.1.86l-.05,1.32h.06v1.08a2.62,2.62,0,0,1-.46,1.49l-.51.73a5.13,5.13,0,0,0-.9,2.91,5.05,5.05,0,0,0,.59,2.38l1,1.89a2.67,2.67,0,0,1,.3,1.21v28.18c0,1.32-1,2.62-2.77,3.65a16.94,16.94,0,0,1-15.16,0c-1.79-1-2.77-2.33-2.77-3.65V264.35a2.66,2.66,0,0,1,.29-1.21l1-1.89A5.16,5.16,0,0,0,433,256l-.51-.73a2.61,2.61,0,0,1-.45-1.49v-1.08h0l0-1.32a2.51,2.51,0,0,1,.11-.86l.1-.35-.1-.35A2.45,2.45,0,0,1,432,249v-1.88a2.91,2.91,0,0,1,.12-.82l.12-.37-.12-.37a2.84,2.84,0,0,1-.12-.81,9,9,0,0,1,1.41-4.48l0,0,.09-.15,0-.07a6.39,6.39,0,0,1,2.15-1.92,14.64,14.64,0,0,1,13.27,0,6.29,6.29,0,0,1,2.15,1.92l0,.07.1.15s0,0,0,0a9,9,0,0,1,1.42,4.48,2.85,2.85,0,0,1-.13.81l-.11.37Z" style="fill: rgb(255, 255, 255); opacity: 0.85; transform-origin: 442.355px 267.245px;" class="animable"></path></g><g id="elhrtj41jxrbo"><path d="M449,245.79a14.7,14.7,0,0,1-13.27,0c-2.58-1.49-3.34-3.63-2.3-5.5l0,0,.09-.15,0-.07a6.39,6.39,0,0,1,2.15-1.92,14.64,14.64,0,0,1,13.27,0,6.29,6.29,0,0,1,2.15,1.92l0,.07.1.15s0,0,0,0C452.31,242.16,451.55,244.3,449,245.79Z" style="fill: rgb(255, 255, 255); opacity: 0.7; transform-origin: 442.336px 241.966px;" class="animable"></path></g></g><g id="freepik--shadows--inject-127" class="animable" style="transform-origin: 442.345px 272.409px;"><path d="M452.65,252.11a8.49,8.49,0,0,1-2.1,1.65c-4.54,2.63-11.89,2.63-16.43,0a8.28,8.28,0,0,1-2.1-1.66v.56h0v1.08a2.59,2.59,0,0,0,.07.63,8.73,8.73,0,0,0,2.06,1.61c4.54,2.62,11.89,2.62,16.43,0a8.73,8.73,0,0,0,2.06-1.61,2.59,2.59,0,0,0,.08-.63v-1.08h-.06Zm-1.24,9.14a5.05,5.05,0,0,1-.59-2.38,4.53,4.53,0,0,1,0-.52l-.3.18c-4.54,2.62-11.89,2.62-16.43,0l-.3-.18a4.53,4.53,0,0,1,0,.52,5.17,5.17,0,0,1-.58,2.38l-1,1.89a2.68,2.68,0,0,0-.24.67,6.37,6.37,0,0,0,2.8,2.87,16.57,16.57,0,0,0,15,0,6.41,6.41,0,0,0,2.8-2.86,2.62,2.62,0,0,0-.24-.68Zm-.86-11.74c-4.54,2.62-11.89,2.62-16.43,0a8.54,8.54,0,0,1-2.13-1.69V249a2.45,2.45,0,0,0,.11.76l.1.35-.06.21a8.94,8.94,0,0,0,2,1.54c4.54,2.62,11.89,2.62,16.43,0a8.79,8.79,0,0,0,2-1.54l-.06-.21.1-.35a2.79,2.79,0,0,0,.11-.76v-1.2A8.6,8.6,0,0,1,450.55,249.51Z" style="fill: rgb(102, 113, 215); transform-origin: 442.345px 258.137px;" id="eliaz2gc1w9c" class="animable"></path><g id="elkoxqzee84x"><path d="M452.65,252.11a8.49,8.49,0,0,1-2.1,1.65c-4.54,2.63-11.89,2.63-16.43,0a8.28,8.28,0,0,1-2.1-1.66v.56h0v1.08a2.59,2.59,0,0,0,.07.63,8.73,8.73,0,0,0,2.06,1.61c4.54,2.62,11.89,2.62,16.43,0a8.73,8.73,0,0,0,2.06-1.61,2.59,2.59,0,0,0,.08-.63v-1.08h-.06Zm-1.24,9.14a5.05,5.05,0,0,1-.59-2.38,4.53,4.53,0,0,1,0-.52l-.3.18c-4.54,2.62-11.89,2.62-16.43,0l-.3-.18a4.53,4.53,0,0,1,0,.52,5.17,5.17,0,0,1-.58,2.38l-1,1.89a2.68,2.68,0,0,0-.24.67,6.37,6.37,0,0,0,2.8,2.87,16.57,16.57,0,0,0,15,0,6.41,6.41,0,0,0,2.8-2.86,2.62,2.62,0,0,0-.24-.68Zm-.86-11.74c-4.54,2.62-11.89,2.62-16.43,0a8.54,8.54,0,0,1-2.13-1.69V249a2.45,2.45,0,0,0,.11.76l.1.35-.06.21a8.94,8.94,0,0,0,2,1.54c4.54,2.62,11.89,2.62,16.43,0a8.79,8.79,0,0,0,2-1.54l-.06-.21.1-.35a2.79,2.79,0,0,0,.11-.76v-1.2A8.6,8.6,0,0,1,450.55,249.51Z" style="fill: rgb(255, 255, 255); opacity: 0.7; transform-origin: 442.345px 258.137px;" class="animable"></path></g><path d="M449.08,288a15.5,15.5,0,0,0-13.49,0c-1.86,1-2.79,2.38-2.79,3.73v.48c0,1.16.9,2.31,2.55,3.22a16.23,16.23,0,0,0,14,0c1.65-.91,2.55-2.06,2.55-3.22v-.48C451.87,290.41,450.94,289.06,449.08,288Z" style="fill: rgb(102, 113, 215); transform-origin: 442.35px 291.736px;" id="elk1splh8u4ni" class="animable"></path><g id="elqka6cnnbhb"><path d="M449.08,288a15.5,15.5,0,0,0-13.49,0c-1.86,1-2.79,2.38-2.79,3.73v.48c0,1.16.9,2.31,2.55,3.22a16.23,16.23,0,0,0,14,0c1.65-.91,2.55-2.06,2.55-3.22v-.48C451.87,290.41,450.94,289.06,449.08,288Z" style="fill: rgb(255, 255, 255); opacity: 0.75; transform-origin: 442.35px 291.736px;" class="animable"></path></g></g><g id="elgdvrawmzf2v"><g style="opacity: 0.1; transform-origin: 442.336px 265.154px;" class="animable"><path id="freepik--shadow--inject-127" d="M436.47,292.44V264.26a3.89,3.89,0,0,1,.44-1.8l1-1.88a3.88,3.88,0,0,0-.24-4l-.5-.74a3.83,3.83,0,0,1-.68-2.19V251.3h0a4.19,4.19,0,0,1,.16-1.26,3.77,3.77,0,0,1-.16-1.11h0v-1.88h0a4,4,0,0,1,.18-1.19,4,4,0,0,1-.18-1.18h0c0-4.37,3-8.54,4.73-10.19a8.13,8.13,0,0,0,1.76-1.84,3.17,3.17,0,0,0,.2-1.59h-4.72a3.33,3.33,0,0,1-.2,1.68,7.9,7.9,0,0,1-1.76,1.84c-1.74,1.65-5.76,5.82-5.76,10.19h0a4,4,0,0,0,.18,1.18,4,4,0,0,0-.18,1.19h0V249h0a4.14,4.14,0,0,0,.16,1.11,3.89,3.89,0,0,0-.15,1.26h0v2.36a3.91,3.91,0,0,0,.68,2.19l.51.74a3.88,3.88,0,0,1,.24,4l-1,1.88a3.89,3.89,0,0,0-.44,1.8v28.18c0,1.72,1.14,3.43,3.4,4.74a18.06,18.06,0,0,0,11.4,1.71,15.38,15.38,0,0,1-5.65-1.8C437.6,295.87,436.47,294.16,436.47,292.44Z" class="animable" style="transform-origin: 438.14px 265.154px;"></path><path d="M450.55,271.74c-4.54,2.62-11.89,2.62-16.43,0-2.26-1.31-3.4-3-3.4-4.74v13.42c0,1.72,1.14,3.44,3.4,4.75,4.54,2.61,11.89,2.61,16.43,0,2.27-1.31,3.4-3,3.4-4.75V267C454,268.71,452.82,270.43,450.55,271.74Z" id="el0yis80xlf4jp" class="animable" style="transform-origin: 442.336px 277.064px;"></path></g></g><g id="freepik--Cap--inject-127" class="animable" style="transform-origin: 442.3px 227.93px;"><path d="M446,228.09a8.14,8.14,0,0,0-7.41,0,2.58,2.58,0,0,0-1.53,2.13v.84a2.6,2.6,0,0,0,1.53,2.14,8.2,8.2,0,0,0,7.41,0,2.6,2.6,0,0,0,1.53-2.14v-.83A2.6,2.6,0,0,0,446,228.09Z" style="fill: rgb(102, 113, 215); transform-origin: 442.295px 230.641px;" id="eltwc0frehc4" class="animable"></path><g id="elcnzb0ycwq9w"><path d="M446,228.09a8.14,8.14,0,0,0-7.41,0,2.58,2.58,0,0,0-1.53,2.13v.84a2.6,2.6,0,0,0,1.53,2.14,8.2,8.2,0,0,0,7.41,0,2.6,2.6,0,0,0,1.53-2.14v-.83A2.6,2.6,0,0,0,446,228.09Z" style="fill: rgb(255, 255, 255); opacity: 0.5; transform-origin: 442.295px 230.641px;" class="animable"></path></g><path d="M438.63,232.36c-2.05-1.18-2.05-3.09,0-4.27a8.14,8.14,0,0,1,7.41,0c2,1.18,2,3.09,0,4.27A8.14,8.14,0,0,1,438.63,232.36Z" style="fill: rgb(102, 113, 215); transform-origin: 442.316px 230.225px;" id="eluv29jf0bwxo" class="animable"></path><g id="eleeaidrteme7"><path d="M438.63,232.36c-2.05-1.18-2.05-3.09,0-4.27a8.14,8.14,0,0,1,7.41,0c2,1.18,2,3.09,0,4.27A8.14,8.14,0,0,1,438.63,232.36Z" style="fill: rgb(255, 255, 255); opacity: 0.5; transform-origin: 442.316px 230.225px;" class="animable"></path></g><g id="el3cfrdpikf1f"><path d="M438.63,232.36c-2.05-1.18-2.05-3.09,0-4.27a8.14,8.14,0,0,1,7.41,0c2,1.18,2,3.09,0,4.27A8.14,8.14,0,0,1,438.63,232.36Z" style="opacity: 0.1; transform-origin: 442.316px 230.225px;" class="animable"></path></g><path d="M445.94,227a8,8,0,0,0-7.21,0,2.51,2.51,0,0,0-1.48,2.07v.83a2.51,2.51,0,0,0,1.48,2.07,8,8,0,0,0,7.21,0,2.49,2.49,0,0,0,1.48-2.07v-.82A2.5,2.5,0,0,0,445.94,227Z" style="fill: rgb(102, 113, 215); transform-origin: 442.335px 229.485px;" id="eljauh9rxuju" class="animable"></path><g id="ele801lpy2ou"><path d="M445.94,227a8,8,0,0,0-7.21,0,2.51,2.51,0,0,0-1.48,2.07v.83a2.51,2.51,0,0,0,1.48,2.07,8,8,0,0,0,7.21,0,2.49,2.49,0,0,0,1.48-2.07v-.82A2.5,2.5,0,0,0,445.94,227Z" style="opacity: 0.3; transform-origin: 442.335px 229.485px;" class="animable"></path></g><path d="M438.73,231.15c-2-1.15-2-3,0-4.16a8,8,0,0,1,7.21,0c2,1.15,2,3,0,4.16A8,8,0,0,1,438.73,231.15Z" style="fill: rgb(102, 113, 215); transform-origin: 442.335px 229.07px;" id="elv8odm0y8ra" class="animable"></path><g id="elq9fzzfqyp2"><path d="M438.73,231.15c-2-1.15-2-3,0-4.16a8,8,0,0,1,7.21,0c2,1.15,2,3,0,4.16A8,8,0,0,1,438.73,231.15Z" style="opacity: 0.5; transform-origin: 442.335px 229.07px;" class="animable"></path></g><path d="M446,222.66a8.2,8.2,0,0,0-7.41,0,2.6,2.6,0,0,0-1.53,2.13v4a2.61,2.61,0,0,0,1.53,2.14,8.2,8.2,0,0,0,7.41,0,2.61,2.61,0,0,0,1.53-2.14v-4A2.6,2.6,0,0,0,446,222.66Z" style="fill: rgb(102, 113, 215); transform-origin: 442.295px 226.795px;" id="elmixobk4c1dh" class="animable"></path><g id="els33hbkw7bj"><path d="M446,222.66a8.2,8.2,0,0,0-7.41,0,2.6,2.6,0,0,0-1.53,2.13v4a2.61,2.61,0,0,0,1.53,2.14,8.2,8.2,0,0,0,7.41,0,2.61,2.61,0,0,0,1.53-2.14v-4A2.6,2.6,0,0,0,446,222.66Z" style="opacity: 0.2; transform-origin: 442.295px 226.795px;" class="animable"></path></g><path d="M439,226.71c-1.83-1.05-1.83-2.77,0-3.83a7.37,7.37,0,0,1,6.63,0c1.83,1.06,1.83,2.78,0,3.83A7.31,7.31,0,0,1,439,226.71Z" style="fill: rgb(102, 113, 215); transform-origin: 442.315px 224.799px;" id="elamw9iw6uo" class="animable"></path><g id="freepik--Lines--inject-127"><g style="opacity: 0.15; transform-origin: 442.325px 228.857px;" class="animable"><path d="M442.3,228.43h.08a.13.13,0,0,1,.13.13v2.55a.13.13,0,0,1-.13.13h-.08a.12.12,0,0,1-.12-.12v-2.55A.13.13,0,0,1,442.3,228.43Z" id="elm4m4nbjrlmk" class="animable" style="transform-origin: 442.345px 229.835px;"></path><path d="M441.65,228.53v2.55a.12.12,0,0,1-.13.12h-.07a.15.15,0,0,1-.12-.14V228.5a.11.11,0,0,1,.12-.11h.07A.13.13,0,0,1,441.65,228.53Z" id="ele4o0vfcpw7p" class="animable" style="transform-origin: 441.49px 229.795px;"></path><path d="M440.78,228.42V231a.1.1,0,0,1-.13.1h0a.15.15,0,0,1-.12-.15v-2.55a.1.1,0,0,1,.12-.1h0A.17.17,0,0,1,440.78,228.42Z" id="elr3vkpnduqlb" class="animable" style="transform-origin: 440.655px 229.701px;"></path><path d="M439.92,228.22v2.55a.09.09,0,0,1-.12.09l0,0a.18.18,0,0,1-.12-.17v-2.54a.09.09,0,0,1,.12-.09l0,0A.17.17,0,0,1,439.92,228.22Z" id="el86gi548honq" class="animable" style="transform-origin: 439.8px 229.46px;"></path><path d="M439.1,227.92v2.54c0,.07-.05.11-.11.08l-.05,0a.22.22,0,0,1-.11-.18v-2.55c0-.07.05-.1.11-.07l.05,0A.22.22,0,0,1,439.1,227.92Z" id="elnee9mkh094" class="animable" style="transform-origin: 438.965px 229.139px;"></path><path d="M438.34,227.49V230c0,.07,0,.09-.11.05l-.05,0a.3.3,0,0,1-.1-.2V227.3c0-.07.05-.09.1-.05l.05,0A.27.27,0,0,1,438.34,227.49Z" id="el5fkk0myxg7f" class="animable" style="transform-origin: 438.21px 228.65px;"></path><path d="M437.65,226.88v2.55c0,.07,0,.09-.08,0a.47.47,0,0,1-.09-.12.48.48,0,0,1-.07-.23v-2.55c0-.07,0-.08.07,0a.47.47,0,0,0,.09.12A.45.45,0,0,1,437.65,226.88Z" id="elfh49qqidzvm" class="animable" style="transform-origin: 437.53px 227.982px;"></path><path d="M443,228.53v2.55a.12.12,0,0,0,.13.12h.06a.15.15,0,0,0,.13-.14V228.5a.11.11,0,0,0-.13-.11h-.06A.13.13,0,0,0,443,228.53Z" id="elrb3txxz7pal" class="animable" style="transform-origin: 443.16px 229.794px;"></path><path d="M443.9,228.42V231a.09.09,0,0,0,.12.1h.06a.16.16,0,0,0,.12-.15v-2.55a.1.1,0,0,0-.12-.1H444A.16.16,0,0,0,443.9,228.42Z" id="elu10hudb84ti" class="animable" style="transform-origin: 444.049px 229.702px;"></path><path d="M444.75,228.22v2.55a.09.09,0,0,0,.12.09l.05,0a.18.18,0,0,0,.12-.17v-2.54a.09.09,0,0,0-.12-.09l-.05,0A.19.19,0,0,0,444.75,228.22Z" id="ellgy3y8lzwd" class="animable" style="transform-origin: 444.895px 229.46px;"></path><path d="M445.57,227.92v2.54a.08.08,0,0,0,.12.08l0,0a.22.22,0,0,0,.11-.18v-2.55c0-.07,0-.1-.11-.07l0,0A.23.23,0,0,0,445.57,227.92Z" id="el6z1p9de484n" class="animable" style="transform-origin: 445.685px 229.14px;"></path><path d="M446.34,227.49V230c0,.07.05.09.1.05l.06,0a.3.3,0,0,0,.1-.2V227.3c0-.07-.05-.09-.1-.05l-.06,0A.3.3,0,0,0,446.34,227.49Z" id="elb3ft93nq60r" class="animable" style="transform-origin: 446.47px 228.65px;"></path><path d="M447,226.88v2.55c0,.07,0,.09.08,0l.09-.12a.48.48,0,0,0,.07-.23v-2.55c0-.07,0-.08-.07,0l-.09.12A.45.45,0,0,0,447,226.88Z" id="elsrdvlch6bm" class="animable" style="transform-origin: 447.12px 227.982px;"></path></g></g><g id="freepik--shadow--inject-127"><path d="M437.1,224.83v4a1.76,1.76,0,0,0,.15.7,1.74,1.74,0,0,0-.15.77v.77a2.6,2.6,0,0,0,1.53,2.14,7,7,0,0,0,2.66.83v-.84l.62-.37V232l.21-.16h-.21v-4a7.52,7.52,0,0,1-3.28-.87A2.62,2.62,0,0,1,437.1,224.83Z" style="opacity: 0.15; transform-origin: 439.609px 229.435px;" class="animable"></path></g></g></g><g id="freepik--Label--inject-127" class="animable" style="transform-origin: 442.36px 277.907px;"><path d="M450.55,272.58c-4.54,2.62-11.89,2.62-16.43,0-2.26-1.31-3.4-3-3.4-4.74v13.43c0,1.71,1.14,3.43,3.4,4.74,4.54,2.62,11.89,2.62,16.43,0,2.27-1.31,3.4-3,3.4-4.74V267.84C454,269.56,452.82,271.27,450.55,272.58Z" style="fill: rgb(102, 113, 215); transform-origin: 442.336px 277.907px;" id="ely1bxl85tba" class="animable"></path><path d="M454,277.38v-.7c-.51.49-1,1-1.48,1.52a26.46,26.46,0,0,1-1.9,1.92,9.42,9.42,0,0,1-8.85,2.27c-2.43-.55-4.59-2.64-6.38-4.62-.38-.41-.74-.84-1.09-1.25a15.76,15.76,0,0,0-3.53-3.36v.59a16.42,16.42,0,0,1,3.14,3.1c.36.41.72.84,1.1,1.26,1.85,2,4.08,4.2,6.65,4.77a11.76,11.76,0,0,0,2.58.3,9.82,9.82,0,0,0,6.71-2.68,25.47,25.47,0,0,0,1.94-1.95Q453.4,277.95,454,277.38Z" style="fill: rgb(250, 250, 250); transform-origin: 442.385px 278.17px;" id="elkp6bzarglt" class="animable"></path><g id="elgf1mrivtcn"><path d="M435.61,273.31a13.73,13.73,0,0,1-1.49-.73c-2.26-1.31-3.4-3-3.4-4.74v13.43c0,1.71,1.14,3.43,3.4,4.74a12.06,12.06,0,0,0,1.49.72Z" style="opacity: 0.1; transform-origin: 433.165px 277.285px;" class="animable"></path></g></g></g></g><g id="freepik--ball-2--inject-127" class="animable" style="transform-origin: 282.02px 222.02px;"><g id="freepik--Ball--inject-127" class="animable" style="transform-origin: 282.02px 222.02px;"><g id="elh7s2h0w8mlm"><circle cx="282.02" cy="222.02" r="70.84" style="fill: rgb(102, 113, 215); transform-origin: 282.02px 222.02px; transform: rotate(-38.15deg);" class="animable"></circle></g><g id="elsdc4vfpm8x"><circle cx="282.02" cy="222.02" r="70.84" style="opacity: 0.3; transform-origin: 282.02px 222.02px; transform: rotate(-38.15deg);" class="animable"></circle></g><g id="el1bb6atq45i"><g style="opacity: 0.2; transform-origin: 282.02px 216.45px;" class="animable"><path d="M249.38,167.06c.68,3.42,3.58,6.16,8.16,7.7a33.7,33.7,0,0,0,29.88-6c3.63-3.19,5.25-6.83,4.57-10.25-.63-3.13-3.14-5.68-7.07-7.27q-2.26-.09-4.56,0a21.07,21.07,0,0,1,3.06.77c4.15,1.4,6.76,3.81,7.35,6.77s-.88,6.2-4.16,9.09c-7,6.15-19.85,8.73-28.67,5.75-4.15-1.4-6.76-3.8-7.35-6.77s.88-6.19,4.17-9.08a23.43,23.43,0,0,1,3.3-2.39q-2.26.83-4.45,1.78C250.23,160.25,248.71,163.76,249.38,167.06Z" id="el2yvtehbhqic" class="animable" style="transform-origin: 270.683px 163.593px;"></path><path d="M217.26,250.71c0-.09-.08-.17-.11-.26h0C217.18,250.54,217.22,250.62,217.26,250.71Z" id="elzbgiwph4tv" class="animable" style="transform-origin: 217.205px 250.58px;"></path><path d="M345.58,190.72c.11.22.22.43.32.65C345.8,191.15,345.69,190.94,345.58,190.72Z" id="elqkrpegxu4ws" class="animable" style="transform-origin: 345.74px 191.045px;"></path><path d="M218.12,252.61c.16.34.33.67.5,1C218.45,253.28,218.28,253,218.12,252.61Z" id="el2ma62y8z2gy" class="animable" style="transform-origin: 218.37px 253.11px;"></path><path d="M349.22,244.4a48.78,48.78,0,0,1-10.78,13c-23.11,20.32-65.63,28.86-94.79,19a49,49,0,0,1-15-7.86c1.3,1.48,2.66,2.92,4.07,4.28a55.09,55.09,0,0,0,10.52,4.74c14.77,5,32.92,5.31,50.3,1.82s34-10.79,45.7-21.09a55.9,55.9,0,0,0,7.88-8.44Q348.29,247.21,349.22,244.4Z" id="el8vob6wsd19b" class="animable" style="transform-origin: 288.935px 263.052px;"></path><path d="M336.74,236.18c-24.3,21.4-69.05,30.39-99.73,20-11.66-3.93-19.91-10.16-23.9-17.89.33,1.39.69,2.77,1.09,4.13h0c4.63,6.37,12.28,11.51,22.42,14.93,15.53,5.24,34.61,5.59,52.89,1.92s35.75-11.36,48.05-22.18c8-7.09,13.11-14.78,14.91-22.45-.15-1.4-.35-2.8-.58-4.21C351.19,219.13,346,228.07,336.74,236.18Z" id="el5u7yw18ssb2" class="animable" style="transform-origin: 282.79px 236.068px;"></path><path d="M352.78,225.64l-.06.86Z" id="elwx0xdso7xjo" class="animable" style="transform-origin: 352.75px 226.07px;"></path><path d="M323.64,164.71l.64.46Z" id="els0fa8vepcst" class="animable" style="transform-origin: 323.96px 164.94px;"></path><path d="M236.72,214.64c13,4.37,28.88,4.66,44.14,1.6s29.84-9.48,40.11-18.52c8.48-7.47,13-15.77,13.07-23.8-.42-.45-.85-.88-1.28-1.32.45,8.07-3.93,16.56-12.61,24.19-20.24,17.82-57.49,25.3-83,16.67-11-3.69-18.26-9.83-21-17.45-.22.57-.46,1.14-.67,1.72C218.64,205.1,226,211,236.72,214.64Z" id="elidhrv09d27q" class="animable" style="transform-origin: 274.76px 195.436px;"></path><path d="M211.5,215.31c3.1,9,11.63,16.19,24.35,20.48,14.48,4.89,32.26,5.21,49.3,1.79S318.47,227,329.94,216.9C340,208,345.1,198.09,344.49,188.59c-.52-1-1.06-1.92-1.62-2.85,2,9.95-2.91,20.68-13.75,30.24-22.64,19.92-64.3,28.28-92.88,18.64C222.57,230,213.92,222,211.88,212.06c-.15,1.08-.28,2.15-.38,3.24Z" id="elesxofww59dr" class="animable" style="transform-origin: 278.019px 212.796px;"></path><path d="M211.26,218.7c0-.46.05-.92.08-1.38C211.31,217.78,211.28,218.24,211.26,218.7Z" id="elc3urc0wa5i" class="animable" style="transform-origin: 211.3px 218.01px;"></path><path d="M321.64,163.3l-.62-.41Z" id="el7jge63kg0db" class="animable" style="transform-origin: 321.33px 163.095px;"></path><path d="M242.79,193.45c9.91,3.34,22.08,3.56,33.74,1.22s22.8-7.24,30.65-14.15c7.12-6.27,10.6-13.31,9.95-20-.45-.26-.9-.52-1.35-.76,1,6.55-2.29,13.57-9.41,19.84-15.4,13.56-43.74,19.24-63.18,12.69-9-3-14.76-8.24-16.35-14.68l-.94,1.23C227.88,185.26,233.81,190.41,242.79,193.45Z" id="elwi0kck0e31c" class="animable" style="transform-origin: 271.553px 177.992px;"></path><path d="M221.07,185.94c.16-.28.33-.55.5-.82C221.4,185.39,221.23,185.66,221.07,185.94Z" id="el1a1yova6bgc" class="animable" style="transform-origin: 221.32px 185.53px;"></path><path d="M223.26,182.46l-.5.77C222.93,183,223.1,182.72,223.26,182.46Z" id="elblfcief6sm" class="animable" style="transform-origin: 223.01px 182.845px;"></path></g></g><g id="eluo2ajiyafyh"><path d="M264,262.58c-42.19-16.2-48.5-47.33-45.17-72.43l0,0a70.84,70.84,0,1,0,133.68,39.5C349.22,251.37,306.13,278.77,264,262.58Z" style="opacity: 0.1; transform-origin: 281.874px 241.523px;" class="animable"></path></g></g></g><g id="freepik--ball-1--inject-127" class="animable" style="transform-origin: 147.61px 292.03px;"><g id="freepik--ball--inject-127" class="animable" style="transform-origin: 147.61px 292.03px;"><g id="elmze8glgx3m"><circle cx="147.61" cy="292.03" r="70.84" style="fill: rgb(102, 113, 215); transform-origin: 147.61px 292.03px; transform: rotate(-45deg);" class="animable"></circle></g><g id="elrisl0mw3li"><circle cx="147.61" cy="292.03" r="70.84" style="opacity: 0.3; transform-origin: 147.61px 292.03px; transform: rotate(-45deg);" class="animable"></circle></g><g id="ell65mnoudovo"><g style="opacity: 0.2; transform-origin: 147.6px 286.47px;" class="animable"><path d="M115,237.08c.69,3.42,3.59,6.15,8.17,7.7a33.72,33.72,0,0,0,29.88-6c3.63-3.19,5.25-6.84,4.56-10.25-.63-3.13-3.13-5.68-7.07-7.28-1.51-.06-3-.06-4.56,0A23,23,0,0,1,149,222c4.14,1.4,6.75,3.8,7.35,6.77s-.89,6.19-4.17,9.08c-7,6.15-19.85,8.73-28.67,5.76-4.14-1.4-6.75-3.81-7.35-6.77s.89-6.19,4.17-9.09a22.71,22.71,0,0,1,3.31-2.38c-1.52.54-3,1.14-4.45,1.77C115.81,230.26,114.3,233.77,115,237.08Z" id="el7uwo7ls85da" class="animable" style="transform-origin: 136.299px 233.607px;"></path><path d="M82.84,320.72c0-.08-.07-.16-.11-.25h0C82.77,320.56,82.81,320.64,82.84,320.72Z" id="eljsrtikk7rnl" class="animable" style="transform-origin: 82.785px 320.595px;"></path><path d="M211.16,260.74l.33.65Z" id="elc76lr3m7ao6" class="animable" style="transform-origin: 211.325px 261.065px;"></path><path d="M83.7,322.63c.17.33.34.66.5,1C84,323.29,83.86,323,83.7,322.63Z" id="elb2b3qges2vm" class="animable" style="transform-origin: 83.95px 323.13px;"></path><path d="M214.8,314.42a48.56,48.56,0,0,1-10.78,13c-23.11,20.33-65.62,28.87-94.79,19a48.44,48.44,0,0,1-15-7.86q1.95,2.24,4.06,4.29a55.82,55.82,0,0,0,10.53,4.74c14.77,5,32.92,5.31,50.3,1.82s34-10.8,45.7-21.1a55.76,55.76,0,0,0,7.87-8.43C213.49,318.12,214.18,316.29,214.8,314.42Z" id="eltl023n01uq" class="animable" style="transform-origin: 154.515px 333.077px;"></path><path d="M202.33,306.2c-24.31,21.4-69.05,30.38-99.73,20-11.67-3.92-19.92-10.16-23.91-17.89.33,1.4.69,2.78,1.1,4.14h0c4.63,6.36,12.27,11.51,22.41,14.93,15.53,5.23,34.62,5.59,52.89,1.92s35.75-11.36,48-22.19c8-7.08,13.11-14.78,14.91-22.45-.14-1.39-.34-2.8-.57-4.2C216.77,289.15,211.55,298.08,202.33,306.2Z" id="elrm1yb1c0hnk" class="animable" style="transform-origin: 148.345px 306.096px;"></path><path d="M218.36,295.66c0,.28,0,.57-.05.85C218.32,296.23,218.35,295.94,218.36,295.66Z" id="eljzmg7o7qcx" class="animable" style="transform-origin: 218.335px 296.085px;"></path><path d="M189.23,234.72l.63.47Z" id="elqd6w8y339ul" class="animable" style="transform-origin: 189.545px 234.955px;"></path><path d="M102.3,284.65c13,4.38,28.89,4.67,44.15,1.6s29.84-9.48,40.1-18.51c8.49-7.47,13-15.77,13.07-23.8-.41-.45-.85-.89-1.27-1.32.44,8.07-3.94,16.55-12.61,24.19-20.24,17.81-57.49,25.29-83,16.67-11-3.7-18.27-9.83-21-17.45-.23.57-.46,1.14-.67,1.71C84.23,275.12,91.59,281,102.3,284.65Z" id="elwtggca7k97k" class="animable" style="transform-origin: 140.345px 265.454px;"></path><path d="M77.09,285.33c3.1,9,11.62,16.18,24.34,20.47,14.48,4.9,32.26,5.22,49.3,1.8s33.32-10.58,44.79-20.69c10.09-8.87,15.16-18.81,14.55-28.3-.52-1-1.06-1.92-1.62-2.86,2,9.95-2.91,20.69-13.75,30.24-22.63,19.92-64.3,28.29-92.87,18.65C88.15,300,79.5,292,77.47,282.08c-.15,1.07-.29,2.15-.39,3.23Z" id="elegdcok7hkp" class="animable" style="transform-origin: 143.6px 282.81px;"></path><path d="M76.84,288.71c0-.46,0-.92.08-1.37C76.89,287.79,76.86,288.25,76.84,288.71Z" id="eln3u7yh0omg" class="animable" style="transform-origin: 76.88px 288.025px;"></path><path d="M187.22,233.32l-.62-.42Z" id="elipb590zwfxa" class="animable" style="transform-origin: 186.91px 233.11px;"></path><path d="M108.38,263.46c9.9,3.34,22.08,3.57,33.74,1.22s22.8-7.24,30.65-14.15c7.12-6.26,10.59-13.3,9.94-20-.45-.26-.89-.52-1.35-.77,1,6.55-2.28,13.57-9.41,19.85-15.4,13.55-43.74,19.24-63.18,12.68-9-3-14.76-8.23-16.34-14.67-.32.4-.63.81-1,1.22C93.47,255.27,99.39,260.43,108.38,263.46Z" id="elnxv7bn3de9a" class="animable" style="transform-origin: 137.109px 247.999px;"></path><path d="M86.65,256l.5-.83C87,255.41,86.81,255.68,86.65,256Z" id="elqoy1k14qgx" class="animable" style="transform-origin: 86.9px 255.585px;"></path><path d="M88.85,252.48l-.5.76Z" id="eln36mpex9krg" class="animable" style="transform-origin: 88.6px 252.86px;"></path></g></g><g id="elt3s9cf7125m"><path d="M129.55,332.59c-42.19-16.2-48.49-47.33-45.16-72.43h0a70.83,70.83,0,1,0,133.68,39.5C214.81,321.39,171.72,348.78,129.55,332.59Z" style="opacity: 0.1; transform-origin: 147.447px 311.501px;" class="animable"></path></g></g></g><g id="freepik--character-2--inject-127" class="animable" style="transform-origin: 330.655px 192.445px;"><g id="freepik--shadow--inject-127"><path d="M351.47,208.07a70.47,70.47,0,0,0-6.82-19.15c-5.3-2.34-10.74-4.44-16.13-6.52l-23.58-9.09c-3.18-1.23-6.76-2.13-9.71-3.76s-5.08-5.81-8.64-6.64-7.75,2.59-9.82,5.27a25.33,25.33,0,0,0-4.41,10.49,43.61,43.61,0,0,0,4.4,29.43c12.84,23.41,44.36,27.52,68.14,30.93a8.75,8.75,0,0,0,4,0,6.15,6.15,0,0,0,2.2-1.36A70.5,70.5,0,0,0,351.47,208.07Z" style="opacity: 0.1; transform-origin: 312.177px 201.023px;" class="animable"></path></g><g id="freepik--Character--inject-127" class="animable" style="transform-origin: 330.655px 192.445px;"><g id="freepik--Bottom--inject-127" class="animable" style="transform-origin: 351.555px 251.812px;"><path d="M400.2,232.15c-.06,3.24-.89,43.68-.9,45.15a53.46,53.46,0,0,0,.9,8.56c.19,1.16-1.67,1.4-1.24,2.57s1.27,2.78.65,3.87a4.49,4.49,0,0,1-1.17,1.29,10.31,10.31,0,0,1-7.34,2,7.76,7.76,0,0,1-3.85-1.35c-2.22-1.65-3-4.47-4.08-6.87-1.2-2.61-.33-3.89-.39-6.66-.07-3.1-8.74-42.25-9.22-45.31C378.85,230,394,230.2,400.2,232.15Z" style="fill: rgb(177, 102, 104); transform-origin: 386.887px 263.275px;" id="eltallon83ue" class="animable"></path><path d="M392.47,197.57c-7.71-5.62-27.56-18.53-51.7-23.82l-53.62,32,53,13.24,32.46,5.37c-.58,8.38.24,10,1.06,14.52a222.81,222.81,0,0,0,5.84,24.37c5.14,3.91,18.3,1.11,20.33-1.55.81-11.92.55-26.73.94-41.62C401.09,207.06,399.16,202.46,392.47,197.57Z" style="fill: rgb(55, 71, 79); transform-origin: 343.981px 219.467px;" id="eltmygymikn0r" class="animable"></path><path d="M368.61,223.74c.46-6.82-1-9.82-5.4-13.35s-29-17-29-17,1.78-6.35-.6-11.86l-5.9,13.26,37.87,28.47Z" style="fill: rgb(38, 50, 56); transform-origin: 348.2px 202.635px;" id="elb6hwlo9da7j" class="animable"></path><path d="M382.78,280.35c-1.14.38-1.07,1.68-.31,2.8a15.43,15.43,0,0,0,1.27,1.67Z" style="fill: rgb(102, 113, 215); transform-origin: 382.825px 282.585px;" id="eltz74jtxoo2" class="animable"></path><g id="elhezuh1skomq"><path d="M382.78,280.35c-1.14.38-1.07,1.68-.31,2.8a15.43,15.43,0,0,0,1.27,1.67Z" style="opacity: 0.3; transform-origin: 382.825px 282.585px;" class="animable"></path></g><path d="M410.06,301.46c-2.25-2.72-7.79-11.52-8.72-14.16s.28-4.62-2.41-4.12-6.47.78-6.91,2.33.81,5.22,3.68,9.73,8.52,9.1,8.52,9.1Z" style="fill: rgb(102, 113, 215); transform-origin: 400.997px 293.721px;" id="el02p42uzl682" class="animable"></path><g id="elamfe1k4km4t"><path d="M410.06,301.46c-2.25-2.72-7.79-11.52-8.72-14.16s.28-4.62-2.41-4.12-6.47.78-6.91,2.33.81,5.22,3.68,9.73,8.52,9.1,8.52,9.1Z" style="opacity: 0.1; transform-origin: 400.997px 293.721px;" class="animable"></path></g><path d="M422.28,315.29c.16,1.12.06,1.89-3.91,3.33s-9.94,1.4-15,.16-9.38-5.84-11.47-9.06-6.39-6.24-9.22-7.82-3.41-2.21-3.19-3.17,1.05-3.51,1.05-3.51Z" style="fill: rgb(235, 235, 235); transform-origin: 400.885px 307.463px;" id="el8msil3o6skh" class="animable"></path><path d="M382.78,280.35c-.91.63-.38,2.34,1.13,3.81.62.93,1,4.11,2.43,4.6s2.68-2.06,4.23-2.06,3,2.68,5.13,6,8,10.74,8.91,10.74,4.09-2.18,5.45-2a78.14,78.14,0,0,0,6.53,5.58c3.2,2.38,4.33,3.1,5.26,3.72s1.15,2.89.63,4.23-8,4.61-15.8,2.77-10.11-5.29-12.81-9.58a21.67,21.67,0,0,0-8.15-7.64,17.84,17.84,0,0,1-5.48-3.93,11.38,11.38,0,0,1,0-5.47c.73-3.2,1.66-5.89,1.24-8.47s1.14-3.48,1.14-3.48S382.67,279.64,382.78,280.35Z" style="fill: rgb(102, 113, 215); transform-origin: 401.331px 298.729px;" id="el0x8ko8anrsji" class="animable"></path><path d="M421.26,312.17c-1.43.37-3,.74-3.06,1.3s-.13,3.65-.9,4.67a3.8,3.8,0,0,1-3.08,1.41c-1.37.12-7.21.12-10.62-1a19.48,19.48,0,0,1-9.51-6.42c-3-3.55-3.5-5.26-7.43-8s-5.41-3.16-7.13-4.79a7.43,7.43,0,0,0-.33,1.28,5,5,0,0,0,1.78,1.53c1.27.68,5.62,2.92,7.34,4.47a54,54,0,0,1,5.32,6.3,20,20,0,0,0,9.93,6.46c4.45,1.13,10.58,1.33,14.6-.1s4.24-2.27,4.59-2.76a9.6,9.6,0,0,0,.28-4.09C422.81,311.84,422.28,311.91,421.26,312.17Z" style="fill: rgb(69, 90, 100); transform-origin: 401.172px 309.815px;" id="el3vk7mjldjtx" class="animable"></path><path d="M403,303.1c2.88-2,5.35-2.76,6.44-2.46a2.38,2.38,0,0,1,1,1.2s-2.16-.1-6.24,2.5A1.39,1.39,0,0,1,403,303.1Z" style="fill: rgb(69, 90, 100); transform-origin: 406.72px 302.458px;" id="eludt2lq62b9" class="animable"></path><path d="M407.25,297.54a9.91,9.91,0,0,0-6.78,2.68A1.51,1.51,0,0,1,399.3,299s3.18-3,7.11-2.74C406.41,296.25,407.32,296.76,407.25,297.54Z" style="fill: rgb(69, 90, 100); transform-origin: 403.277px 298.232px;" id="elhsaw3hel0j" class="animable"></path><path d="M404.52,293.23c-1.75-.67-5.92,1.2-7.42,2.61a1.25,1.25,0,0,1-1.16-1.38,11.28,11.28,0,0,1,7.61-2.87S404.76,292.16,404.52,293.23Z" style="fill: rgb(69, 90, 100); transform-origin: 400.242px 293.715px;" id="elox84pvh7zm" class="animable"></path><path d="M402.18,289.14a10.41,10.41,0,0,0-7.8,2.44,1.54,1.54,0,0,1-.92-1.44,9.11,9.11,0,0,1,8-2.55A2.39,2.39,0,0,1,402.18,289.14Z" style="fill: rgb(69, 90, 100); transform-origin: 397.82px 289.519px;" id="ellyg7w0bemx8" class="animable"></path><path d="M365.55,247.17c-.06,3.24-1.25,53.82-1.26,55.29a51.61,51.61,0,0,0,1.06,8.39,20,20,0,0,0,1.29,3.31c.42,1.17-1.69.38-2.31,1.47a4.49,4.49,0,0,1-1.17,1.29,10.31,10.31,0,0,1-7.34,2,7.76,7.76,0,0,1-3.85-1.35c-2.22-1.65-3-4.47-4.08-6.87-1.2-2.61-.33-3.89-.39-6.66-.07-3.1-7.31-50.84-7.79-53.9C345,244.75,359.38,245.22,365.55,247.17Z" style="fill: rgb(177, 102, 104); transform-origin: 353.202px 282.402px;" id="el9ni71hcpjg" class="animable"></path><path d="M366.75,227.25c-.05-2.7.64-9.25-5.77-14.49-8.42-6.89-30.57-17.72-30.57-17.72,3.06-6.27,11.17-17.38,10.36-21.29,0-4.12-3.33-9-5.56-11.61-3.22,8.32-36.85,9-51.14,7.29-6.05,15.84-4.74,26.2-.39,36,2.52,5.64,10.4,12,14.84,14.4,19.53,10.36,30.47,12.61,39.05,15.65a50.63,50.63,0,0,0,.51,13.69c1,6.65,4.06,22.42,5.89,30.49,5.14,3.91,19.45,1.25,21.48-1.4C366.25,266.3,367,241.68,366.75,227.25Z" style="fill: rgb(55, 71, 79); transform-origin: 323.383px 221.888px;" id="eljj04nxeijx" class="animable"></path><path d="M347.24,301.54c-1.15.38-1.08,1.68-.32,2.8a15.43,15.43,0,0,0,1.27,1.67Z" style="fill: rgb(102, 113, 215); transform-origin: 347.275px 303.775px;" id="elvei9b319y0b" class="animable"></path><g id="eljt4xdrba2ki"><path d="M347.24,301.54c-1.15.38-1.08,1.68-.32,2.8a15.43,15.43,0,0,0,1.27,1.67Z" style="opacity: 0.3; transform-origin: 347.275px 303.775px;" class="animable"></path></g><path d="M374.51,322.65c-2.25-2.71-7.79-11.52-8.72-14.16s.28-4.61-2.4-4.12-6.47.78-6.92,2.33.82,5.22,3.69,9.73,8.51,9.1,8.51,9.1Z" style="fill: rgb(102, 113, 215); transform-origin: 365.446px 314.912px;" id="el53egrz6t81c" class="animable"></path><g id="ellmfw3wf4q6f"><path d="M374.51,322.65c-2.25-2.71-7.79-11.52-8.72-14.16s.28-4.61-2.4-4.12-6.47.78-6.92,2.33.82,5.22,3.69,9.73,8.51,9.1,8.51,9.1Z" style="opacity: 0.1; transform-origin: 365.446px 314.912px;" class="animable"></path></g><path d="M386.73,336.48c.16,1.13.06,1.9-3.9,3.34s-9.95,1.39-15,.15-9.38-5.83-11.47-9.06-6.39-6.23-9.21-7.82-3.42-2.2-3.19-3.17,1-3.5,1-3.5Z" style="fill: rgb(235, 235, 235); transform-origin: 365.344px 328.66px;" id="elkf37qhqkamp" class="animable"></path><path d="M347.24,301.54c-.92.64-.39,2.34,1.12,3.82.62.93,1.05,4.11,2.43,4.6s2.68-2.07,4.23-2.07,3,2.69,5.14,6,8,10.74,8.91,10.74,4.08-2.18,5.44-2a78.53,78.53,0,0,0,6.54,5.59c3.2,2.37,4.32,3.1,5.26,3.71s1.14,2.9.62,4.24-7.95,4.6-15.8,2.76-10.1-5.28-12.8-9.58a21.84,21.84,0,0,0-8.16-7.64,17.61,17.61,0,0,1-5.47-3.92,11.27,11.27,0,0,1,0-5.48c.72-3.2,1.65-5.88,1.23-8.46s1.15-3.48,1.15-3.48S347.12,300.84,347.24,301.54Z" style="fill: rgb(102, 113, 215); transform-origin: 365.786px 319.925px;" id="elu2ta5gq5mvg" class="animable"></path><path d="M385.71,333.36c-1.43.37-3,.75-3,1.3s-.14,3.65-.91,4.67a3.78,3.78,0,0,1-3.08,1.42c-1.37.11-7.21.11-10.62-1a19.44,19.44,0,0,1-9.5-6.43c-3-3.54-3.51-5.25-7.44-8s-5.41-3.15-7.13-4.79a8.86,8.86,0,0,0-.33,1.29,4.91,4.91,0,0,0,1.79,1.52c1.26.68,5.61,2.92,7.33,4.48a52.87,52.87,0,0,1,5.32,6.29,19.94,19.94,0,0,0,9.93,6.46c4.45,1.14,10.58,1.33,14.6-.1s4.24-2.27,4.59-2.75a9.61,9.61,0,0,0,.28-4.09C387.27,333,386.73,333.1,385.71,333.36Z" style="fill: rgb(69, 90, 100); transform-origin: 365.672px 331.007px;" id="el7kn4tft31fd" class="animable"></path><path d="M367.43,324.29c2.89-2,5.35-2.75,6.44-2.46a2.34,2.34,0,0,1,1,1.2s-2.16-.09-6.24,2.5A1.38,1.38,0,0,1,367.43,324.29Z" style="fill: rgb(69, 90, 100); transform-origin: 371.15px 323.65px;" id="elbp69s5pdz5s" class="animable"></path><path d="M371.7,318.73a10,10,0,0,0-6.78,2.68,1.47,1.47,0,0,1-1.16-1.23s3.17-3,7.1-2.74C370.86,317.44,371.78,318,371.7,318.73Z" style="fill: rgb(69, 90, 100); transform-origin: 367.732px 319.417px;" id="elbc75bfwcysa" class="animable"></path><path d="M369,314.42c-1.74-.67-5.91,1.21-7.41,2.61a1.25,1.25,0,0,1-1.17-1.38,11.25,11.25,0,0,1,7.61-2.86S369.21,313.36,369,314.42Z" style="fill: rgb(69, 90, 100); transform-origin: 364.719px 314.91px;" id="el1uoqougtkmn" class="animable"></path><path d="M366.64,310.33a10.45,10.45,0,0,0-7.81,2.45,1.54,1.54,0,0,1-.92-1.45,9.14,9.14,0,0,1,8-2.55A2.43,2.43,0,0,1,366.64,310.33Z" style="fill: rgb(69, 90, 100); transform-origin: 362.275px 310.715px;" id="eletpnzg5ko48" class="animable"></path></g><g id="freepik--Top--inject-127" class="animable" style="transform-origin: 303.132px 109.53px;"><g id="freepik--Arm--inject-127" class="animable" style="transform-origin: 339.878px 95.2599px;"><path d="M339.88,131s23.69-42.81,27.62-58.56c2-8.08-1.2-11.13-7.17-12.62s-48.67,3.05-48.67,3.05l.9,13L346.7,78.5s-8.78,12.19-12,16.94a79.53,79.53,0,0,1-7.55,9.21c-1.37,1.48-3.46,2.5-5.55,3.69C319.11,109.75,339.88,131,339.88,131Z" style="fill: rgb(177, 102, 104); transform-origin: 339.878px 95.2599px;" id="elh3lj26cksfv" class="animable"></path><path d="M346.7,78.5c4.12.52,8.74-.47,10.55-1.89a8.91,8.91,0,0,1-5.47,3.58,37.49,37.49,0,0,1-7,1Z" style="fill: rgb(154, 74, 77); transform-origin: 351.015px 78.9px;" id="eljymw68i96si" class="animable"></path></g><g id="freepik--Chest--inject-127" class="animable" style="transform-origin: 312.945px 141.878px;"><path d="M284.07,169.43c1.4-5.15,3.45-10.28,3.45-10.28s-1.11-7.05-3.17-15.5c-2-8.13-2.07-22.48-1.79-24.91.61-5.22,2.89-8.1,8.78-9.54L303,108.1l18.65.24c2.67,0,12.25,8.16,18.68,17.9,3.58,5.41,5.24,13.58-2.74,21.63.34,5.77-2.35,14.27-2.35,14.27s2.17,9.49-15,12.47C296.76,178.71,284.07,169.43,284.07,169.43Z" style="fill: rgb(177, 102, 104); transform-origin: 312.872px 141.878px;" id="elnvcrtec2iaf" class="animable"></path><path d="M289.61,109.2,303,108.1l18.65.24c2.67,0,12.25,8.16,18.68,17.9,3.58,5.41,5.55,13.59-2.44,21.64a20.34,20.34,0,0,1-.8,6.48h0s-24.2,15.26-50.53-.72h0c-.53-2.71-1.26-6.21-2.18-10-2-8.13-2.07-22.48-1.79-24.91C283.17,113.52,283.72,110.64,289.61,109.2Z" style="fill: rgb(55, 71, 79); transform-origin: 312.96px 134.517px;" id="el9ijjl38vyql" class="animable"></path><path d="M326.86,145.8s-3.72,6.24-13.19,6.36A17.39,17.39,0,0,1,296.76,140s1.09,13.54,15.59,15C324.28,156.24,326.86,145.8,326.86,145.8Z" style="fill: rgb(38, 50, 56); transform-origin: 311.81px 147.551px;" id="el36gppo1ci2a" class="animable"></path></g><g id="freepik--arm--inject-127" class="animable" style="transform-origin: 266.235px 104.643px;"><path d="M289.61,109.2S267.08,94.43,263.5,91.82l26.35-9.66-2-12.36s-36.92,5.56-43.74,7.63c-3.6,1.09-5.27,2.25-5.79,4.74-.86,4.15,2,10.34,6.52,16.13,8.79,11.24,13.76,15.73,26.47,28.09,2.74,2.66,6.52,6.34,9.93,10.06,1.08,1.18,2.43,2.75,2.43,2.75C287.28,142,301.59,123.71,289.61,109.2Z" style="fill: rgb(177, 102, 104); transform-origin: 266.235px 104.643px;" id="el4is1moqpsel" class="animable"></path><path d="M263.5,91.82c-3.56,1.12-8.73,2.21-12.32,2,0,0,6,2.83,14.78-.12Z" style="fill: rgb(154, 74, 77); transform-origin: 258.57px 93.4315px;" id="eldtyqk0c0eg7" class="animable"></path></g><path d="M306,76c6.29,1.69,12.58,4.42,19,1.86,2.29-.91,6.32-2.71,5.51-6a3.47,3.47,0,0,0,6.2,1.17,1.45,1.45,0,0,1-2.28-.09,2.46,2.46,0,0,1,0-2.55,8.42,8.42,0,0,1,1.77-2,10.58,10.58,0,0,0,3.19-4.6,6.31,6.31,0,0,0-9.71-6.87,15.52,15.52,0,0,0,1-5.37,6.67,6.67,0,0,0-2.11-4.9c-2-1.71-5-1.64-7.54-1A21.48,21.48,0,0,0,314,48.9a6.68,6.68,0,0,0-5.41-5.38,10,10,0,0,0-7.66,2,20.32,20.32,0,0,0-5.22,6.17c-1.83-2.08-4.93-2-7.22-.8A7.87,7.87,0,0,0,284,57a13.79,13.79,0,0,0,1.45,8.73.78.78,0,0,1,.15.58.81.81,0,0,1-.26.35A14.64,14.64,0,0,0,281,74.45a17.47,17.47,0,0,0,1.7,11c3.7,7.14,11.26,10.48,14,15.1L296,82s1.73,1.67,2.8,1c1.48-.88,1.47-2.86,1.25-4.21-.24-1.54.12-2.73,1.73-3.16A8.41,8.41,0,0,1,306,76Z" style="fill: rgb(38, 50, 56); transform-origin: 310.186px 71.9777px;" id="el9xg43fa5nks" class="animable"></path><path d="M324.23,98.1a18.61,18.61,0,0,1-9.53,2.25l.65,9.07s6.15,5.78,4.4,12.38c-15.87-4-22.2-11.88-22.2-11.88l-1.61-18a4.3,4.3,0,0,1-4.38.67c-5-1.62-5.57-7.84-3.45-10.77a4.71,4.71,0,0,1,7.76-.12c.11.16.17.23.17.23s1.73,1.67,2.8,1c2.4-1.44-.64-6.73,1.46-9,2.76-3,.78-7.74,4.91-9.8,3.84-1.92,6.63,1.12,8.6.52,1.77-.53.75-3.17,4.2-3.06s6.22,3.44,6.22,3.44a39.26,39.26,0,0,1,4.38,15.52C329.43,92.41,326.18,96.88,324.23,98.1Z" style="fill: rgb(177, 102, 104); transform-origin: 307.844px 91.6933px;" id="elvhup6inspth" class="animable"></path><polygon points="314.44 72.82 317.12 85.12 323.24 82.34 314.44 72.82" style="fill: rgb(154, 74, 77); transform-origin: 318.84px 78.97px;" id="elxdepf94ix3" class="animable"></polygon><path d="M310.66,78.14a1.78,1.78,0,1,1-2.22-1.25A1.81,1.81,0,0,1,310.66,78.14Z" style="fill: rgb(38, 50, 56); transform-origin: 308.94px 78.6019px;" id="el7l55v7xusrw" class="animable"></path><path d="M323.82,75.39a1.78,1.78,0,1,1-2.21-1.26A1.79,1.79,0,0,1,323.82,75.39Z" style="fill: rgb(38, 50, 56); transform-origin: 322.098px 75.8429px;" id="elxle0uah0d6" class="animable"></path><path d="M320.13,90.88a1.64,1.64,0,1,1-1.45-1.82A1.63,1.63,0,0,1,320.13,90.88Z" style="fill: rgb(154, 74, 77); transform-origin: 318.502px 90.6902px;" id="elghqk1wcp58" class="animable"></path><path d="M309.83,83.49c.38,1.24-.68,2.67-2.38,3.19s-3.37-.07-3.75-1.32.68-2.68,2.37-3.19S309.44,82.24,309.83,83.49Z" style="fill: rgb(242, 143, 143); transform-origin: 306.765px 84.4271px;" id="el61dzujaeco2" class="animable"></path><path d="M331.25,78.92c.1,1.3-1.24,2.48-3,2.62s-3.28-.79-3.39-2.09,1.24-2.47,3-2.62S331.14,77.63,331.25,78.92Z" style="fill: rgb(242, 143, 143); transform-origin: 328.054px 79.1842px;" id="elmh04akc87ri" class="animable"></path><path d="M314.7,100.35c-3.65-.17-11.12-1.11-15.27-6.82a13.05,13.05,0,0,0,3.65,5.81c3.87,3.16,11.86,4.45,11.86,4.45Z" style="fill: rgb(154, 74, 77); transform-origin: 307.185px 98.66px;" id="elv259piwy56" class="animable"></path><path d="M308.81,72.07l-3.4,3.39a2.51,2.51,0,0,1,0-3.48A2.34,2.34,0,0,1,308.81,72.07Z" style="fill: rgb(38, 50, 56); transform-origin: 306.759px 73.3759px;" id="elijn225hcul" class="animable"></path><path d="M324.42,71.34l-4.67-1.23a2.31,2.31,0,0,1,2.87-1.76A2.54,2.54,0,0,1,324.42,71.34Z" style="fill: rgb(38, 50, 56); transform-origin: 322.114px 69.8043px;" id="elfso5h9cr05p" class="animable"></path></g></g></g><g id="freepik--character-1--inject-127" class="animable" style="transform-origin: 166.04px 281.803px;"><g id="freepik--shadow--inject-127"><path d="M217.06,278.09a71,71,0,0,0-6.82-19.15c-5.31-2.34-10.74-4.45-16.13-6.52l-44.4-17.11c-5.87-2.27-11.85-4.55-18.12-5-8-.56-15.15,3.49-22.58,5.84a4.31,4.31,0,0,0-2.35,1.34c-.83,1.18-.3,2.8.29,4.12,3.44,7.76,8,15.31,14.8,20.38,7.2,5.35,16.74,7.85,22.06,15.07,2.26,3.05,3.51,6.69,5.59,9.84s5.54,5.06,8.61,7c15.55,9.74,34.31,12.56,52.48,15.16a8.9,8.9,0,0,0,4,0,6.26,6.26,0,0,0,2.2-1.37A70.45,70.45,0,0,0,217.06,278.09Z" style="opacity: 0.1; transform-origin: 162.342px 269.773px;" class="animable"></path></g><g id="freepik--character--inject-127" class="animable" style="transform-origin: 166.04px 281.803px;"><g id="freepik--top--inject-127" class="animable" style="transform-origin: 112.105px 211.535px;"><g id="freepik--arm--inject-127" class="animable" style="transform-origin: 141.24px 187.755px;"><path d="M158.78,223s8.76-43.79,8.75-60c0-8.33-3.87-10.51-10-10.49s-42.58,16-42.58,16l4,12.42,29.86-7s-4.26,17-5.19,20.19-2.22,6.24-3.65,10.1c-.71,1.89-2.86,3.36-4.85,5.64S158.78,223,158.78,223Z" style="fill: rgb(255, 168, 167); transform-origin: 141.24px 187.755px;" id="elrg3vs752dag" class="animable"></path><path d="M148.83,173.93c4.12-.5,8.36-2.58,9.78-4.4a8.93,8.93,0,0,1-4.45,4.8,35.35,35.35,0,0,1-6.08,2.59Z" style="fill: rgb(242, 143, 143); transform-origin: 153.345px 173.225px;" id="elwdvi9c8jijk" class="animable"></path></g><g id="freepik--chest--inject-127" class="animable" style="transform-origin: 141.672px 240.085px;"><path d="M179.63,237.24l-14.1-9.85c.11-7-2.23-10.93-7.83-14s-22.56-3.5-22.56-3.5-16.24,3.28-20.76,4.81-9.27,6.34-10,10.41-.22,13.84,6,19.72c6.64,6.26,9.69,7.65,17.94,11.29,2.69,1.18,5.86,1.66,10,4.44a28.58,28.58,0,0,1,10,10Z" style="fill: rgb(255, 168, 167); transform-origin: 141.878px 240.225px;" id="elg6jx02t4gbj" class="animable"></path><path d="M157.7,213.36c-5.59-3.1-22.56-3.75-22.56-3.75s-16.45,3.28-21,4.81a29.5,29.5,0,0,0-5.68,2.46c-2.88,1.79-3.66,5.62-4.15,8.2-.78,4.08-2.2,12.91,6.48,20.91a53.85,53.85,0,0,0,20.28,11.14c-.1-1.95,3.25-10.88,11.39-18.28s18.79-12,23-11.46C166,220,163.3,216.46,157.7,213.36Z" style="fill: rgb(102, 113, 215); transform-origin: 134.621px 233.37px;" id="el19r0lhjghc6" class="animable"></path><g id="elwpm59ncfkpk"><path d="M157.7,213.36c-5.59-3.1-22.56-3.75-22.56-3.75s-16.45,3.28-21,4.81a29.5,29.5,0,0,0-5.68,2.46c-2.88,1.79-3.66,5.62-4.15,8.2-.78,4.08-2.2,12.91,6.48,20.91a53.85,53.85,0,0,0,20.28,11.14c-.1-1.95,3.25-10.88,11.39-18.28s18.79-12,23-11.46C166,220,163.3,216.46,157.7,213.36Z" style="fill: rgb(255, 255, 255); opacity: 0.7; transform-origin: 134.621px 233.37px;" class="animable"></path></g><g id="elaltbuchqn3j"><path d="M165.53,227.39a21.32,21.32,0,0,0,0-2.89c-3.94-.31-8.22-1.34-12.18-.61-6.19,1.14-8.37,6.17-14,11.88s-12.35,15.67-26.65,8.65l-2-12.87-5.38,6.86a22.28,22.28,0,0,0,5.51,7.58,53.85,53.85,0,0,0,20.28,11.14c-.1-1.95,3.25-10.88,11.39-18.28S161.28,226.8,165.53,227.39Z" style="opacity: 0.1; transform-origin: 135.45px 240.382px;" class="animable"></path></g></g><path d="M55.83,196.66a28.58,28.58,0,0,0,7.77.52,30.74,30.74,0,0,0,4.78-.68,19.2,19.2,0,0,0,5.7-2.12c3.47-2.07,5.87-5.55,7.61-9.19s2.94-7.53,4.66-11.18a12.66,12.66,0,0,1,2.76-4.1,5.36,5.36,0,0,1,4.56-1.48c1.19.25,2.35,1,3.53.72,1.52-.4,2-2.52,1.25-3.9-1.43-2.64-5.18-3.75-8.36-4.14-.83-.1-1.63-.15-2.33-.17-4.75-.13-8.84,2-12.18,5.28a39.93,39.93,0,0,0-5.41,6.87c-1.59,2.43-3.49,4.92-6.19,6.18-3.13,1.47-6.69.86-9.69-.62-1.74-.86-3.57-2-5.48-1.63a4.85,4.85,0,0,0-3.33,2.51,8.35,8.35,0,0,0-.89,4.18,13.18,13.18,0,0,0,5.27,10.39A15.8,15.8,0,0,0,55.83,196.66Z" style="fill: rgb(69, 90, 100); transform-origin: 71.6893px 179.092px;" id="elcekrdc5evzs" class="animable"></path><g id="freepik--arm--inject-127" class="animable" style="transform-origin: 85.1936px 210.726px;"><path d="M108.49,216.88s-24.39-15.5-28.28-17.63l23.19-11.39-3.79-12.6s-34,9.26-40.48,12.17c-3.43,1.53-4.94,2.9-5.14,5.43-.33,4.23,3.29,10,8.5,15.17a244.12,244.12,0,0,0,36.65,29.21,72.12,72.12,0,0,1,8.93,6.33c1.22,1,2.75,2.42,2.75,2.42C114.79,248.34,122.21,229.76,108.49,216.88Z" style="fill: rgb(255, 168, 167); transform-origin: 85.1936px 210.726px;" id="el89s4wp2tb0a" class="animable"></path><path d="M80.21,199.25a40.26,40.26,0,0,1-12.37,3.3s6.55,2.21,14.87-1.82Z" style="fill: rgb(242, 143, 143); transform-origin: 75.275px 201.202px;" id="ellomenhgbrim" class="animable"></path></g><g id="freepik--Head--inject-127" class="animable" style="transform-origin: 115.721px 186.362px;"><path d="M91.13,181.33c0-7.43,2.62-15.17,12.18-19.5,5.92-3,11.25-2.2,18.34-5.62,3.22-1.55,6.21-2.8,8.85-2.48,3,.37,5.5,2.65,6.45,6.39a8.37,8.37,0,0,1-.63,5.89c3.63,2.83,3.44,9.75-1.55,13.07l1,20.37s-22.18,14.65-23.68,10.47C104.65,203.21,91.09,199.74,91.13,181.33Z" style="fill: rgb(69, 90, 100); transform-origin: 114.97px 182.175px;" id="el2nptngr7paf" class="animable"></path><path d="M115.05,216.29l-5.83-14.38s-1.11,3.16-5.5,1.86c-3.94-1.17-7-5.61-5.72-8.93.9-2.35,5.35-5.05,8.61-1.86,0,0,5.46-2.26,10.87-10s5.5-12.91,9.77-15c2.66.85,6.37,4.81,10.59,17.28,3.12,9.22.59,15.06-1,17.39-1.25,1.89-3.2,2.48-7.27,3.57l1.77,5.45C140.73,216.42,126.84,222.76,115.05,216.29Z" style="fill: rgb(255, 168, 167); transform-origin: 118.514px 193.512px;" id="el8ocowzkd22" class="animable"></path><path d="M120.76,186.59a1.78,1.78,0,1,1-2.35-1A1.82,1.82,0,0,1,120.76,186.59Z" style="fill: rgb(38, 50, 56); transform-origin: 119.099px 187.237px;" id="elsmrmvpux65" class="animable"></path><path d="M133.62,177.54l-4.3-1.15A2.19,2.19,0,0,1,132,174.8,2.27,2.27,0,0,1,133.62,177.54Z" style="fill: rgb(38, 50, 56); transform-origin: 131.503px 176.134px;" id="elfaug3vups3d" class="animable"></path><path d="M132.92,183a1.77,1.77,0,0,1-.94,2.35,1.81,1.81,0,0,1-2.35-1,1.78,1.78,0,1,1,3.29-1.36Z" style="fill: rgb(38, 50, 56); transform-origin: 131.283px 183.684px;" id="el4d13vowtagz" class="animable"></path><polygon points="124.42 182.8 127.1 193.23 132.62 190.43 124.42 182.8" style="fill: rgb(242, 143, 143); transform-origin: 128.52px 188.015px;" id="elhmhjgjfcv6w" class="animable"></polygon><circle cx="129.32" cy="197.92" r="1.64" style="fill: rgb(177, 102, 104); transform-origin: 129.32px 197.92px;" id="elu8orwoyf9pf" class="animable"></circle><path d="M119.36,192c.51,1.19-.38,2.73-2,3.44s-3.36.3-3.88-.9.38-2.73,2-3.44S118.84,190.76,119.36,192Z" style="fill: rgb(242, 143, 143); transform-origin: 116.418px 193.265px;" id="elred0vhmpp5e" class="animable"></path><path d="M140.28,185.82c.25,1.28-1,2.59-2.69,2.93s-3.35-.42-3.6-1.7.95-2.59,2.69-2.93S140,184.54,140.28,185.82Z" style="fill: rgb(242, 143, 143); transform-origin: 137.134px 186.435px;" id="ela48v3ctfk3w" class="animable"></path><path d="M129.62,206.19c-4.08.9-12.9,1.51-15.26-1.15a8.52,8.52,0,0,0,4.23,3c3.11,1.15,11.8.7,11.8.7Z" style="fill: rgb(242, 143, 143); transform-origin: 122.375px 206.933px;" id="el5vq50rg486g" class="animable"></path><path d="M106.3,192.12l1.82,5.08h0a3.8,3.8,0,0,0,2.35-4.84l-1.76-4.91Z" style="fill: rgb(69, 90, 100); transform-origin: 108.49px 192.325px;" id="elht3rj7mpb24" class="animable"></path></g></g><g id="freepik--bottom--inject-127" class="animable" style="transform-origin: 214.995px 323.148px;"><path d="M265.78,302.17c-.06,3.23-2.75,44-2.76,45.5a41.2,41.2,0,0,0,.6,7.61,17.23,17.23,0,0,0,.92,3.17c.42,1.17,1.27,2.78.66,3.86A4.65,4.65,0,0,1,264,363.6a10.24,10.24,0,0,1-7.34,2,7.54,7.54,0,0,1-3.85-1.35c-2.23-1.65-3-4.46-4.08-6.87-1.2-2.6-.34-3.88-.4-6.66-.06-3.09-7-42.26-7.47-45.32C246.18,300,259.61,300.21,265.78,302.17Z" style="fill: rgb(255, 168, 167); transform-origin: 253.32px 333.286px;" id="elh0zvvcxo3s" class="animable"></path><path d="M257.89,269.46c-7.71-5.62-47.39-23.45-61.9-26.12l-45.55,34.19c2.4,6,55.27,11.5,55.27,11.5s27.09,4.31,33.66,4.51a89.67,89.67,0,0,0,.53,12c.95,6.66,2.32,12.81,4.15,20.88,5.14,3.91,18.62,2.61,20.65-.05.8-11.92,1.24-21.32,1.63-36.21C266.68,277.07,264.57,274.34,257.89,269.46Z" style="fill: rgb(69, 90, 100); transform-origin: 208.403px 286.112px;" id="elj41ruahvuus" class="animable"></path><path d="M234.14,293.09c.46-6.82-1-9.15-5.35-12.68s-29-17-29-17-.26-7.81-2.64-13.33l-3.86,14.73,37.81,27.94Z" style="fill: rgb(55, 71, 79); transform-origin: 213.756px 271.585px;" id="els9fauaa01u" class="animable"></path><path d="M246,362.44a8.49,8.49,0,0,0,.54,3.32c.37,1.13,4.23,3.91,5.57,5.77s1.5,2.6,3,5.14c1.68,2.81,2.54,6.24,10.24,9.19s12.94,1.86,16.61.8,4.83-2.86,4.83-2.86,1.4-4.4-1-5.46S246,362.44,246,362.44Z" style="fill: rgb(38, 50, 56); transform-origin: 266.595px 375.103px;" id="elcn0wjh73hvl" class="animable"></path><path d="M266.18,352.55c.56.6.84,2.26,1.08,3,.79,2.6,2.71,5,4.45,7.07,8.2,9.71,16.24,9.74,15.77,17.9-.25,2.28-4.62,5.57-14.58,5.52-5.08,0-12.67-3.72-14.85-7S255,373,253.23,370.6s-6.23-5.39-7.19-8.16a11.54,11.54,0,0,1-.22-5.13c.17-1.38,1-4,1.24-5.39s0-2.39,1.18-2.46l.49,2.17c1,3.59,1.75,3.39,3.05,4.35a24.59,24.59,0,0,1,3.52,3.81c-.58-2.44-1.53-4-.24-5.14s3-1.69,6.26-2.19S265.68,352,266.18,352.55Z" style="fill: rgb(102, 113, 215); transform-origin: 266.565px 367.75px;" id="elep9ffk1w5qf" class="animable"></path><g id="elrax5r4ude7q"><path d="M266.18,352.55c.56.6.84,2.26,1.08,3,.79,2.6,2.71,5,4.45,7.07,8.2,9.71,16.24,9.74,15.77,17.9-.25,2.28-4.62,5.57-14.58,5.52-5.08,0-12.67-3.72-14.85-7S255,373,253.23,370.6s-6.23-5.39-7.19-8.16a11.54,11.54,0,0,1-.22-5.13c.17-1.38,1-4,1.24-5.39s0-2.39,1.18-2.46l.49,2.17c1,3.59,1.75,3.39,3.05,4.35a24.59,24.59,0,0,1,3.52,3.81c-.58-2.44-1.53-4-.24-5.14s3-1.69,6.26-2.19S265.68,352,266.18,352.55Z" style="opacity: 0.4; transform-origin: 266.565px 367.75px;" class="animable"></path></g><g id="elb7ixmh3oh24"><path d="M272.9,386.07c-5.08,0-12.67-3.72-14.85-7a33.08,33.08,0,0,1-1.95-3.37c.16.2.32.42.47.58.33.36.67.71,1,1a11.29,11.29,0,0,0,4.82,3c1.66.4,5.72,1.54,7.09-.06.77-.9.48-2.41-.28-3.59-.32-.5-1.31-1.68-1.31-1.68a18.34,18.34,0,0,1,5.12-2.9A18.16,18.16,0,0,1,278.4,371a7.87,7.87,0,0,0,2,1.73,6.76,6.76,0,0,0,2.79.76,4.17,4.17,0,0,0,1-.23c2.18,1.88,3.49,3.87,3.29,7.29C287.23,382.83,282.86,386.12,272.9,386.07Z" style="opacity: 0.3; transform-origin: 271.8px 378.535px;" class="animable"></path></g><path d="M271.71,362.65a41.69,41.69,0,0,0,7.34,6.77c1.79,2.88,1.1,3.61-.28,2.69s-5.41-6.89-8.85-11.68C270.5,361.21,271.11,362,271.71,362.65Z" style="fill: rgb(55, 71, 79); transform-origin: 275.023px 366.457px;" id="elidu4fqw6abo" class="animable"></path><path d="M249.7,356.58a6.94,6.94,0,0,1-2.82-3.78c.07-.32.14-.62.18-.88.22-1.49,0-2.39,1.18-2.46l.49,2.17c1,3.59,1.75,3.39,3.05,4.35a24.59,24.59,0,0,1,3.52,3.81c3.47,4.34,4.17,6.37,7.81,10s7,4.95,6.76,5.7-1.58,1.53-5-.8-7.67-8-9.44-11S251.58,357.73,249.7,356.58Z" style="fill: rgb(55, 71, 79); transform-origin: 258.381px 362.853px;" id="el20m5p2zv0j3h" class="animable"></path><path d="M268,375.53a.5.5,0,0,0,.28-.12,16.67,16.67,0,0,1,10.43-3.79.52.52,0,0,0,.49-.53.51.51,0,0,0-.53-.49,17.69,17.69,0,0,0-11.05,4,.52.52,0,0,0-.06.72A.54.54,0,0,0,268,375.53Z" style="fill: rgb(235, 235, 235); transform-origin: 273.321px 373.065px;" id="el43m1a6dqjjs" class="animable"></path><path d="M265,372.38a.57.57,0,0,0,.27-.11,18.43,18.43,0,0,1,11-3.86.51.51,0,0,0,.5-.54.53.53,0,0,0-.54-.51,19.57,19.57,0,0,0-11.66,4.09.52.52,0,0,0,.39.93Z" style="fill: rgb(235, 235, 235); transform-origin: 270.567px 369.873px;" id="el869oz2c5vzo" class="animable"></path><path d="M261.28,369.55a.56.56,0,0,0,.3-.12,20.35,20.35,0,0,1,12.18-4.26.58.58,0,0,0,.55-.6.57.57,0,0,0-.6-.55,21.43,21.43,0,0,0-12.85,4.51.57.57,0,0,0,.42,1Z" style="fill: rgb(235, 235, 235); transform-origin: 267.486px 366.785px;" id="elneh9ksdnxq" class="animable"></path><path d="M258.56,366.54a.69.69,0,0,0,.29-.13,19.91,19.91,0,0,1,11.94-4.17.57.57,0,1,0-.05-1.13,21,21,0,0,0-12.6,4.42.58.58,0,0,0-.09.8A.6.6,0,0,0,258.56,366.54Z" style="fill: rgb(235, 235, 235); transform-origin: 264.668px 363.822px;" id="el6ja8v0ej3md" class="animable"></path><path d="M256.4,363a.69.69,0,0,0,.29-.13,19.91,19.91,0,0,1,11.94-4.17.56.56,0,0,0,.54-.59.56.56,0,0,0-.59-.54A21.1,21.1,0,0,0,256,362a.57.57,0,0,0,.42,1Z" style="fill: rgb(235, 235, 235); transform-origin: 262.486px 360.286px;" id="elbv7tg470xo6" class="animable"></path><path d="M231.13,317.19c0,3.23-3.38,52.35-3.39,53.81a41.2,41.2,0,0,0,.6,7.61,17.36,17.36,0,0,0,.92,3.16c.42,1.18,1.27,2.79.66,3.87a4.65,4.65,0,0,1-1.17,1.29,10.24,10.24,0,0,1-7.34,2,7.54,7.54,0,0,1-3.85-1.35c-2.23-1.65-3-4.47-4.08-6.87-1.2-2.6-.34-3.89-.4-6.66-.06-3.09-7.3-50.84-7.78-53.9C210.59,314.76,225,315.23,231.13,317.19Z" style="fill: rgb(255, 168, 167); transform-origin: 218.215px 352.414px;" id="elf57e5m4zf4s" class="animable"></path><path d="M232.34,297.27c-.06-2.7.63-9.26-5.78-14.5-8.42-6.89-30.56-17.71-30.56-17.71,3.05-6.28.8-17.8,0-21.72-6.32-2.87-11.13-5.52-18.23-7.57-16.34,1-28.61,14.79-34.47,28.57,1.47,2.29,2.31,5.41,6,11.48a27.55,27.55,0,0,0,12.07,10.63c19.54,9.19,34.24,12.5,42.82,15.54-.28,3.38-1.28,8.83-.22,16.14,1,6.65,2.68,14.93,4.51,23,5.14,3.91,19.31,2,21.34-.65C230.6,328.56,232.62,311.69,232.34,297.27Z" style="fill: rgb(69, 90, 100); transform-origin: 187.833px 289.562px;" id="elcamnhh9h71" class="animable"></path><path d="M211,303.88c.43-3.9.54-5.18.07-6.05-1.1-2.05-3.93-2.93-9.56-4.68-2.11-.66-4.74-1.47-7.76-2.51q-2.6-.88-5.21-1.74c-9.93-3.28-20.2-6.67-28.77-14-3.6-3.08-6.26-7.57-8.84-11.91-1.28-2.14-2.51-4.22-3.81-6.06-.57.94-1.11,1.89-1.62,2.84,1,1.47,1.92,3.07,2.9,4.72,2.7,4.55,5.5,9.25,9.45,12.64,9,7.74,19.57,11.22,29.77,14.59,1.73.57,3.46,1.14,5.18,1.73,3.06,1.05,5.71,1.87,7.84,2.54,4.11,1.27,7.12,2.21,7.79,3.17a35.74,35.74,0,0,1-.35,4.42c-.08.75-.17,1.55-.26,2.41-1.33,12.92,2,28.77,3.94,36.68a20.21,20.21,0,0,0,3.18.57c-1.83-7.18-5.55-23.89-4.2-36.94C210.82,305.41,210.91,304.61,211,303.88Z" style="fill: rgb(235, 235, 235); transform-origin: 180.22px 300.085px;" id="ell7s265iys0l" class="animable"></path><path d="M142.49,263.62A42.71,42.71,0,0,1,156.3,244.2c10.57-8.31,16.87-8.39,20.44-9l8.54,3.21s-8.67-1-22.76,10.16c-13.59,10.8-15.81,22.63-15.81,22.63C144.87,267.46,143.39,264.64,142.49,263.62Z" style="fill: rgb(55, 71, 79); transform-origin: 163.885px 253.2px;" id="el9gkyc9n38fv" class="animable"></path><path d="M210.76,385.77a8.32,8.32,0,0,0,.55,3.32c.36,1.13,4.22,3.91,5.56,5.76s1.5,2.61,3,5.15c1.68,2.81,2.54,6.24,10.24,9.19s12.94,1.86,16.61.8,4.84-2.86,4.84-2.86,1.39-4.4-1-5.46S210.76,385.77,210.76,385.77Z" style="fill: rgb(38, 50, 56); transform-origin: 231.358px 398.433px;" id="eloydj264w5a" class="animable"></path><path d="M230.9,375.88c.56.6.84,2.26,1.08,3,.79,2.6,2.71,5,4.45,7.07,8.21,9.71,16.24,9.74,15.77,17.9-.25,2.28-4.62,5.57-14.58,5.52-5.08,0-12.67-3.72-14.85-7s-3.05-6.09-4.82-8.48-6.23-5.39-7.19-8.16a11.54,11.54,0,0,1-.22-5.13c.17-1.38,1-4,1.24-5.39s0-2.39,1.18-2.46l.49,2.17c1,3.59,1.75,3.39,3.05,4.34a25.13,25.13,0,0,1,3.52,3.82c-.58-2.44-1.53-4-.24-5.14s3-1.7,6.26-2.19S230.4,375.35,230.9,375.88Z" style="fill: rgb(102, 113, 215); transform-origin: 231.285px 391.06px;" id="el2rn610cs41" class="animable"></path><g id="elgulyv64pi0j"><path d="M230.9,375.88c.56.6.84,2.26,1.08,3,.79,2.6,2.71,5,4.45,7.07,8.21,9.71,16.24,9.74,15.77,17.9-.25,2.28-4.62,5.57-14.58,5.52-5.08,0-12.67-3.72-14.85-7s-3.05-6.09-4.82-8.48-6.23-5.39-7.19-8.16a11.54,11.54,0,0,1-.22-5.13c.17-1.38,1-4,1.24-5.39s0-2.39,1.18-2.46l.49,2.17c1,3.59,1.75,3.39,3.05,4.34a25.13,25.13,0,0,1,3.52,3.82c-.58-2.44-1.53-4-.24-5.14s3-1.7,6.26-2.19S230.4,375.35,230.9,375.88Z" style="opacity: 0.4; transform-origin: 231.285px 391.06px;" class="animable"></path></g><g id="elef23bobhbpc"><path d="M237.62,409.4c-5.08,0-12.67-3.72-14.85-7a33.08,33.08,0,0,1-2-3.37c.16.2.32.42.47.58.33.36.67.71,1,1a11.22,11.22,0,0,0,4.82,3c1.66.4,5.72,1.53,7.09-.06.77-.9.48-2.41-.28-3.59-.32-.5-1.31-1.68-1.31-1.68a18.34,18.34,0,0,1,5.12-2.9,18.16,18.16,0,0,1,5.36-1.12,7.87,7.87,0,0,0,2,1.73,6.76,6.76,0,0,0,2.79.76,4.17,4.17,0,0,0,1-.23c2.18,1.88,3.49,3.87,3.29,7.29C252,406.16,247.58,409.45,237.62,409.4Z" style="opacity: 0.3; transform-origin: 236.455px 401.83px;" class="animable"></path></g><path d="M236.43,386a41.69,41.69,0,0,0,7.34,6.77c1.8,2.88,1.1,3.61-.28,2.69s-5.41-6.89-8.85-11.68C235.22,384.54,235.83,385.28,236.43,386Z" style="fill: rgb(55, 71, 79); transform-origin: 239.745px 389.807px;" id="el8uxo17xgb2w" class="animable"></path><path d="M214.43,379.91a6.91,6.91,0,0,1-2.83-3.78c.07-.32.14-.62.18-.88.22-1.49,0-2.39,1.18-2.46l.49,2.17c1,3.59,1.75,3.39,3.05,4.34a25.13,25.13,0,0,1,3.52,3.82c3.47,4.34,4.17,6.37,7.81,10s7,4.95,6.76,5.7-1.58,1.53-5-.8-7.67-8-9.44-11S216.3,381.06,214.43,379.91Z" style="fill: rgb(55, 71, 79); transform-origin: 223.101px 386.183px;" id="elx1arrsffe4i" class="animable"></path><path d="M232.69,398.86a.58.58,0,0,0,.28-.12A16.67,16.67,0,0,1,243.4,395a.52.52,0,0,0,.49-.53.51.51,0,0,0-.53-.49,17.69,17.69,0,0,0-11.05,4,.52.52,0,0,0-.06.72A.54.54,0,0,0,232.69,398.86Z" style="fill: rgb(235, 235, 235); transform-origin: 238.011px 396.421px;" id="elina0w12loak" class="animable"></path><path d="M229.75,395.71a.57.57,0,0,0,.27-.11,18.43,18.43,0,0,1,11-3.86.51.51,0,0,0,.5-.54.53.53,0,0,0-.54-.51,19.57,19.57,0,0,0-11.66,4.09.53.53,0,0,0-.08.74A.54.54,0,0,0,229.75,395.71Z" style="fill: rgb(235, 235, 235); transform-origin: 235.323px 393.204px;" id="elxhv55b3fku" class="animable"></path><path d="M226,392.88a.56.56,0,0,0,.3-.12,20.29,20.29,0,0,1,12.18-4.26.58.58,0,0,0,.55-.6.57.57,0,0,0-.6-.55,21.43,21.43,0,0,0-12.85,4.51.57.57,0,0,0-.09.81A.58.58,0,0,0,226,392.88Z" style="fill: rgb(235, 235, 235); transform-origin: 232.196px 390.116px;" id="elttsny3wezpl" class="animable"></path><path d="M223.28,389.87a.69.69,0,0,0,.29-.13,19.91,19.91,0,0,1,11.94-4.17.58.58,0,0,0,.54-.59.57.57,0,0,0-.59-.54,21,21,0,0,0-12.6,4.42.58.58,0,0,0-.09.8A.6.6,0,0,0,223.28,389.87Z" style="fill: rgb(235, 235, 235); transform-origin: 229.35px 387.156px;" id="eltegzzdj55te" class="animable"></path><path d="M221.12,386.3a.69.69,0,0,0,.29-.13A19.91,19.91,0,0,1,233.35,382a.56.56,0,0,0,.54-.59.56.56,0,0,0-.59-.54,21.1,21.1,0,0,0-12.6,4.42.57.57,0,0,0,.42,1Z" style="fill: rgb(235, 235, 235); transform-origin: 227.196px 383.585px;" id="elxx1o88xqyq" class="animable"></path></g></g></g><g id="freepik--speech-bubble--inject-127" class="animable" style="transform-origin: 118.535px 94.9508px;"><g id="freepik--speech-bubble--inject-127" class="animable" style="transform-origin: 118.535px 94.9508px;"><g id="freepik--speech-bubble--inject-127" class="animable" style="transform-origin: 118.535px 94.9508px;"><path d="M122.88,105.21l-11.56,6.69,4.59,10.32a1.06,1.06,0,0,0,.44.49l4,2.29a1.06,1.06,0,0,0,1.55-.61l5-16.88Z" style="fill: rgb(102, 113, 215); transform-origin: 119.11px 115.177px;" id="elkwt7ch7i65r" class="animable"></path><g id="elkx31e5s96uj"><path d="M122.88,105.21l-11.56,6.69,4.59,10.32a1.06,1.06,0,0,0,.44.49l4,2.29a1.06,1.06,0,0,0,1.55-.61l5-16.88Z" style="opacity: 0.2; transform-origin: 119.11px 115.177px;" class="animable"></path></g><path d="M115.3,114.2l4.59,10.32a1.06,1.06,0,0,0,2-.13l5-16.88Z" style="fill: rgb(102, 113, 215); transform-origin: 121.095px 116.34px;" id="elwgsv1tyhtn" class="animable"></path><path d="M151,56.69l-71,41a2.42,2.42,0,0,0-1.1,1.9v29.53a2.38,2.38,0,0,0,1.1,1.89l3.93,2.2a2.44,2.44,0,0,0,2.2,0l71-41a2.41,2.41,0,0,0,1.1-1.89V60.77a2.43,2.43,0,0,0-1.1-1.89l-3.93-2.2A2.47,2.47,0,0,0,151,56.69Z" style="fill: rgb(102, 113, 215); transform-origin: 118.565px 94.9493px;" id="el4qz2zf1o1bn" class="animable"></path><path d="M85,132.59V103.05a2.4,2.4,0,0,1,1.1-1.89l71-41c.61-.35,1.1-.07,1.1.63V90.31a2.41,2.41,0,0,1-1.1,1.89l-71,41C85.46,133.57,85,133.29,85,132.59Z" style="fill: rgb(102, 113, 215); transform-origin: 121.6px 96.6865px;" id="el45ules0d1la" class="animable"></path><g id="eluc4x6w9aub"><path d="M86.07,133.22a2.5,2.5,0,0,1-2.2,0L79.94,131a2.39,2.39,0,0,1-1.1-1.88V99.61a2.26,2.26,0,0,1,.35-1.12l6.1,3.49a2.14,2.14,0,0,0-.32,1.07v29.54C85,133.23,85.42,133.6,86.07,133.22Z" style="opacity: 0.2; transform-origin: 82.455px 115.983px;" class="animable"></path></g><g id="elikun51b034n"><path d="M158.17,60.57c-.08-.55-.53-.75-1.08-.43l-71,41a2.13,2.13,0,0,0-.78.82l-6.11-3.49a2.19,2.19,0,0,1,.76-.78l71-41a2.47,2.47,0,0,1,2.2,0l3.92,2.2A2.39,2.39,0,0,1,158.17,60.57Z" style="fill: rgb(255, 255, 255); opacity: 0.4; transform-origin: 118.685px 79.1958px;" class="animable"></path></g></g><path d="M90.55,110.64a.74.74,0,0,1-.07-.42,1.56,1.56,0,0,1,.14-.48l2.74-5.31c.06-.13.15-.28.24-.46a.88.88,0,0,1,.34-.37l1.55-.9a.17.17,0,0,1,.24,0,.56.56,0,0,1,.1.37v14.6a1.19,1.19,0,0,1-.1.49.56.56,0,0,1-.24.32l-1.66,1a.19.19,0,0,1-.25,0,.63.63,0,0,1-.1-.37v-9.88L92,112.1a.51.51,0,0,1-.25.27.18.18,0,0,1-.23-.1Z" style="fill: rgb(250, 250, 250); transform-origin: 93.1531px 111.089px;" id="elzx21tzouq4" class="animable"></path><path d="M100.31,115.13a1.23,1.23,0,0,1-.1.49.71.71,0,0,1-.24.32l-1.67,1a.17.17,0,0,1-.24,0,.58.58,0,0,1-.1-.37v-3a1.19,1.19,0,0,1,.1-.49.65.65,0,0,1,.24-.32l1.67-1a.18.18,0,0,1,.24,0,.55.55,0,0,1,.1.37Z" style="fill: rgb(250, 250, 250); transform-origin: 99.1354px 114.352px;" id="elik3gda935z" class="animable"></path><path d="M104.59,112.65a1.19,1.19,0,0,1-.1.49.65.65,0,0,1-.24.32l-1.67,1a.17.17,0,0,1-.24,0,.61.61,0,0,1-.1-.37v-3a1.43,1.43,0,0,1,.1-.49.71.71,0,0,1,.24-.32l1.67-1a.17.17,0,0,1,.24,0,.58.58,0,0,1,.1.37Z" style="fill: rgb(250, 250, 250); transform-origin: 103.415px 111.87px;" id="eltxynwlo27kn" class="animable"></path><path d="M108.88,110.18a1.38,1.38,0,0,1-.1.49.61.61,0,0,1-.25.32l-1.66,1a.17.17,0,0,1-.24,0,.56.56,0,0,1-.1-.37v-3a1.19,1.19,0,0,1,.1-.49.65.65,0,0,1,.24-.32l1.66-1a.18.18,0,0,1,.25,0,.61.61,0,0,1,.1.37Z" style="fill: rgb(250, 250, 250); transform-origin: 107.704px 109.4px;" id="elluzfniruuor" class="animable"></path><path d="M117.86,94.87a11.62,11.62,0,0,1-.07,1.31,9.45,9.45,0,0,1-.26,1.33,13.34,13.34,0,0,1-.49,1.42,14.24,14.24,0,0,1-.73,1.56l-1.78,3.42,3.2-1.84a.17.17,0,0,1,.24,0,.61.61,0,0,1,.1.37v2.4a1.37,1.37,0,0,1-.1.48.65.65,0,0,1-.24.32L111,109.56a.17.17,0,0,1-.24,0,.56.56,0,0,1-.1-.37v-2a4.38,4.38,0,0,1,.08-.77,2.66,2.66,0,0,1,.29-.77l3.8-7a5.75,5.75,0,0,0,.56-1.4,5.44,5.44,0,0,0,.11-1,4,4,0,0,0,0-.43,1.34,1.34,0,0,0-.15-.48A.62.62,0,0,0,115,95a.68.68,0,0,0-.56.13,1.61,1.61,0,0,0-.58.55,2.93,2.93,0,0,0-.35.68,3.57,3.57,0,0,0-.17.66l-.09.46a1.28,1.28,0,0,1-.19.53,1.1,1.1,0,0,1-.32.29l-1.56.9a.15.15,0,0,1-.2,0,.47.47,0,0,1-.08-.3,11.38,11.38,0,0,1,.23-2,10,10,0,0,1,.66-2.08,8.55,8.55,0,0,1,1.09-1.88,5.25,5.25,0,0,1,1.54-1.36,2.59,2.59,0,0,1,1.48-.42,1.68,1.68,0,0,1,1.08.56,3.14,3.14,0,0,1,.65,1.32A7.11,7.11,0,0,1,117.86,94.87Z" style="fill: rgb(250, 250, 250); transform-origin: 114.364px 100.384px;" id="el7mktgc9oxe8" class="animable"></path><path d="M122.26,102.45a1.19,1.19,0,0,1-.1.49.65.65,0,0,1-.24.32l-1.67,1a.17.17,0,0,1-.24,0,.61.61,0,0,1-.1-.37v-3a1.38,1.38,0,0,1,.1-.49.71.71,0,0,1,.24-.32l1.67-1a.17.17,0,0,1,.24,0,.56.56,0,0,1,.1.37Z" style="fill: rgb(250, 250, 250); transform-origin: 121.086px 101.67px;" id="el7qcwltkvs4a" class="animable"></path><path d="M126.55,100a1.38,1.38,0,0,1-.1.49.65.65,0,0,1-.25.32l-1.66,1a.17.17,0,0,1-.24,0,.56.56,0,0,1-.1-.37v-3a1.19,1.19,0,0,1,.1-.49.56.56,0,0,1,.24-.32l1.66-1a.18.18,0,0,1,.25,0,.61.61,0,0,1,.1.37Z" style="fill: rgb(250, 250, 250); transform-origin: 125.374px 99.2196px;" id="elu4ze499jzs" class="animable"></path><path d="M130.83,97.51a1.18,1.18,0,0,1-.1.48.65.65,0,0,1-.24.32l-1.67,1a.17.17,0,0,1-.24,0,.55.55,0,0,1-.1-.37v-3a1.26,1.26,0,0,1,.1-.49.77.77,0,0,1,.24-.32l1.67-1a.17.17,0,0,1,.24,0,.59.59,0,0,1,.1.38Z" style="fill: rgb(250, 250, 250); transform-origin: 129.655px 96.72px;" id="eldphp92yfj29" class="animable"></path><path d="M139.36,77.37a.17.17,0,0,1,.24,0,.56.56,0,0,1,.1.37v2.4a1.74,1.74,0,0,1-.08.5c-.06.17-.12.32-.17.44l-1.54,3.64a1.75,1.75,0,0,1,1.62.6,3.81,3.81,0,0,1,.62,2.47,9.27,9.27,0,0,1-1,4.42,7.21,7.21,0,0,1-2.77,2.89,3.65,3.65,0,0,1-1.63.55,1.91,1.91,0,0,1-1.18-.33,2.24,2.24,0,0,1-.75-1,4.24,4.24,0,0,1-.27-1.48,1.1,1.1,0,0,1,.08-.4.51.51,0,0,1,.2-.26l1.6-.92c.18-.11.31-.11.41,0l.31.28a1,1,0,0,0,.44.21,1.28,1.28,0,0,0,.79-.24,3.16,3.16,0,0,0,1-1,2.44,2.44,0,0,0,.4-1.38c0-.53-.14-.83-.4-.92a1.28,1.28,0,0,0-1,.22l-1.06.61a.17.17,0,0,1-.24,0,.56.56,0,0,1-.1-.37v-2a1.51,1.51,0,0,1,.09-.5c.06-.17.11-.32.17-.46l1.35-3.2-3.32,1.92a.17.17,0,0,1-.24,0,.59.59,0,0,1-.1-.38V81.69a1.19,1.19,0,0,1,.1-.49.65.65,0,0,1,.24-.32Z" style="fill: rgb(250, 250, 250); transform-origin: 136.359px 86.4866px;" id="elsz5yip128lj" class="animable"></path><path d="M144.34,89.7a1.19,1.19,0,0,1-.1.49.65.65,0,0,1-.24.32l-1.66,1a.18.18,0,0,1-.25,0,.61.61,0,0,1-.1-.37v-3a1.43,1.43,0,0,1,.1-.49.65.65,0,0,1,.25-.32l1.66-1a.17.17,0,0,1,.24,0,.58.58,0,0,1,.1.37Z" style="fill: rgb(250, 250, 250); transform-origin: 143.165px 88.9204px;" id="eliwloorhfjcb" class="animable"></path><path d="M148.63,87.23a1.38,1.38,0,0,1-.1.49.61.61,0,0,1-.25.32l-1.66,1a.17.17,0,0,1-.24,0,.56.56,0,0,1-.1-.37v-3a1.19,1.19,0,0,1,.1-.49.65.65,0,0,1,.24-.32l1.66-1a.18.18,0,0,1,.25,0,.61.61,0,0,1,.1.37Z" style="fill: rgb(250, 250, 250); transform-origin: 147.454px 86.4496px;" id="el39bxdpr5gd" class="animable"></path><path d="M152.91,84.76a1.23,1.23,0,0,1-.1.49.71.71,0,0,1-.24.32l-1.67,1a.17.17,0,0,1-.24,0,.58.58,0,0,1-.1-.37v-3a1.19,1.19,0,0,1,.1-.49.65.65,0,0,1,.24-.32l1.67-1a.18.18,0,0,1,.24.05.55.55,0,0,1,.1.37Z" style="fill: rgb(250, 250, 250); transform-origin: 151.735px 83.9918px;" id="elhn219j0pddd" class="animable"></path></g></g><defs>     <filter id="active" height="200%">         <feMorphology in="SourceAlpha" result="DILATED" operator="dilate" radius="2"></feMorphology>                <feFlood flood-color="#32DFEC" flood-opacity="1" result="PINK"></feFlood>        <feComposite in="PINK" in2="DILATED" operator="in" result="OUTLINE"></feComposite>        <feMerge>            <feMergeNode in="OUTLINE"></feMergeNode>            <feMergeNode in="SourceGraphic"></feMergeNode>        </feMerge>    </filter>    <filter id="hover" height="200%">        <feMorphology in="SourceAlpha" result="DILATED" operator="dilate" radius="2"></feMorphology>                <feFlood flood-color="#ff0000" flood-opacity="0.5" result="PINK"></feFlood>        <feComposite in="PINK" in2="DILATED" operator="in" result="OUTLINE"></feComposite>        <feMerge>            <feMergeNode in="OUTLINE"></feMergeNode>            <feMergeNode in="SourceGraphic"></feMergeNode>        </feMerge>            <feColorMatrix type="matrix" values="0   0   0   0   0                0   1   0   0   0                0   0   0   0   0                0   0   0   1   0 "></feColorMatrix>    </filter></defs></svg>