<svg xmlns="http://www.w3.org/2000/svg" version="1.1" xmlns:xlink="http://www.w3.org/1999/xlink" xmlns:svgjs="http://svgjs.dev/svgjs" viewBox="0 0 800 800"><defs><linearGradient x1="50%" y1="0%" x2="50%" y2="100%" id="uundulate-grad"><stop stop-color="hsl(0, 0%, 31%)" stop-opacity="1" offset="45%"></stop><stop stop-color="hsl(135, 65%, 51%)" stop-opacity="1" offset="100%"></stop></linearGradient></defs><g stroke-width="2" stroke="url(#uundulate-grad)" fill="none"><path d="M657.2827721828758 218.86862047698378C694.6011212068444 298.16718950439247 676.8052083178651 522.4454304716282 566.9301739784164 595.2843598968698C457.05513963896783 668.1232893221113 167.20095637749193 647.7940507455512 129.8826073535232 568.4954817181424C92.56425832955449 489.1969126907338 277.92706432391833 287.49015799055024 387.802098663367 214.65122856530877C497.6771330028157 141.81229914006724 619.964423158907 139.57005144957503 657.2827721828758 218.86862047698378C694.6011212068444 298.16718950439247 676.8052083178651 522.4454304716282 566.9301739784164 595.2843598968698 "></path><path d="M645.5880993328551 227.1018511291308C681.2101597648252 302.79593974620275 664.2231520071632 516.879715214928 559.3424374104167 586.4077842117493C454.46172281367024 655.9358532085707 177.78272970044333 636.5306709309452 142.16066926847316 560.8365823138732C106.53860883650299 485.14249369680124 283.47583274021395 292.6042278466261 388.3565473369604 223.07615884980464C493.2372619337068 153.54808985298325 609.9660389008849 151.40776251205887 645.5880993328551 227.1018511291308C681.2101597648252 302.79593974620275 664.2231520071632 516.879715214928 559.3424374104167 586.4077842117493 "></path><path d="M633.8934264828345 235.33506652248877C667.8191983228061 307.42467472922397 651.6410956964612 511.3139846994384 551.7547008424169 577.5311932678397C451.86830598837264 643.7484018362411 188.36450302339466 625.2672758575501 154.4387311834231 553.1776676508149C120.51295934345148 481.0880594440798 289.02460115650956 297.71828244391287 388.91099601055384 231.5010738755115C488.797390864598 165.28386530711015 599.9676546428628 163.24545831575358 633.8934264828345 235.33506652248877C667.8191983228061 307.42467472922397 651.6410956964612 511.3139846994384 551.7547008424169 577.5311932678397 "></path><path d="M622.1987536328138 243.56834295100305C654.4282368807868 312.05347074740143 639.0590393857592 505.74831521910505 544.1669642744172 568.6546633590865C449.27488916307516 631.5610114990677 198.94627634634605 614.0039418193112 166.71679309837305 545.5188140229129C134.48730985040004 477.0336862265144 294.5733695728052 302.8323980763559 389.4654446841472 239.92604993637462C484.3575197954892 177.0197017963933 589.9692703848409 175.0832151546046 622.1987536328138 243.56834295100305C654.4282368807868 312.05347074740143 639.0590393857592 505.74831521910505 544.1669642744172 568.6546633590865 "></path><path d="M610.5041113003713 251.80158886193914C641.0373059563458 316.6822362480008 626.4770135926353 500.1826152211938 536.5792582239956 559.778102932755C446.6815028553558 619.3735906443162 209.5280801868755 602.7405772634943 178.99488553090112 537.8599298774326C148.46169087492666 472.979282491371 300.1221685066789 307.9464831912208 390.0199238753187 248.35099547965956C479.91767924395856 188.75550776809837 579.970916644397 186.92094147587744 610.5041113003713 251.80158886193914C641.0373059563458 316.6822362480008 626.4770135926353 500.1826152211938 536.5792582239956 559.778102932755 "></path><path d="M598.8094079327725 260.03481951408617C627.6463139967484 321.31098648981106 613.8949267643552 494.6168999644933 528.9914911384176 550.9015272476345C444.0880555124801 607.1861545307756 220.10982299224872 591.4771974488883 191.27291692827293 530.2010304731634C162.4360108642971 468.9248634974384 305.6709064053964 313.06055304729665 390.574342031334 256.7759257641555C475.47777765727164 200.49129848101433 569.9725018687967 198.75865253836128 598.8094079327725 260.03481951408617C627.6463139967484 321.31098648981106 613.8949267643552 494.6168999644933 528.9914911384176 550.9015272476345 "></path><path d="M587.114735082752 268.2680654250223C614.2553525547291 325.93975199041046 601.3128704536533 489.051199966582 521.403754570418 542.024966821303C441.4946386871826 594.9987336760241 230.69159631520012 580.2138328930714 203.55097884322282 522.5421463276832C176.41036137124559 464.870459762295 311.219674821692 318.17463816216156 391.1287907049274 265.2008713074405C471.03790658816274 212.22710445271935 559.9741176107747 210.59637885963411 587.114735082752 268.2680654250223C614.2553525547291 325.93975199041046 601.3128704536533 489.051199966582 521.403754570418 542.024966821303 "></path><path d="M575.4200622327313 276.5013113359584C600.86439111271 330.56851749100974 588.7308141429513 483.48549996867064 513.8160180024181 533.1484063949716C438.901221861885 582.8113128212726 241.27336963815145 568.9504683372543 215.82904075817277 514.883262182203C190.38471187819408 460.8160560271516 316.76844323798764 323.28872327702646 391.68323937852085 273.6258168507254C466.59803551905406 223.96291042442442 549.9757333527526 222.434105180907 575.4200622327313 276.5013113359584C600.86439111271 330.56851749100974 588.7308141429513 483.48549996867064 513.8160180024181 533.1484063949716 "></path><path d="M563.7254199002888 284.7345572468945C587.473460188269 335.19728299160914 576.1487883498276 477.9197999707592 506.2283119519966 524.2718459686402C436.30783555416565 570.6238919665211 251.85517347868097 557.6871037814374 228.10713319070084 507.2243780367228C204.35909290272076 456.7616522920082 322.3172421718614 328.40280839189137 392.23771856969233 282.0507623940104C462.1581949675233 235.69871639612944 539.9773796123087 234.27183150217985 563.7254199002888 284.7345572468945C587.473460188269 335.19728299160914 576.1487883498276 477.9197999707592 506.2283119519966 524.2718459686402 "></path><path d="M552.0307165326901 292.9678031578306C574.0824682286716 339.8260484922085 563.5667015215474 472.35409997284785 498.6405448664186 515.3952855423088C433.71438821128993 558.4364711117696 262.4369162840542 546.4237392256205 240.38516458807266 499.56549389124257C218.33341289209113 452.70724855686467 327.86598007057887 333.5168935067563 392.7921367257076 290.4757079372954C457.71829338083637 247.43452236783446 529.9789648367085 246.10955782345275 552.0307165326901 292.9678031578306C574.0824682286716 339.8260484922085 563.5667015215474 472.35409997284785 498.6405448664186 515.3952855423088 "></path><path d="M540.3360742002476 301.20104906876674C560.6915373042305 344.45481399280783 550.9846757284236 466.7883999749365 491.0528388159971 506.5187251159773C431.12100190357046 546.2490502570181 273.0187201245837 535.1603746698036 252.66325702060072 491.90660974576235C232.3077939166178 448.65284482172126 333.4147790044526 338.6309786216212 393.34661591687916 298.90065348058033C453.2784528293057 259.17032833953954 519.9806110962645 257.9472841447256 540.3360742002476 301.20104906876674C560.6915373042305 344.45481399280783 550.9846757284236 466.7883999749365 491.0528388159971 506.5187251159773 "></path><path d="M528.6413708326488 309.4342949797028C547.3005453446331 349.08357949340717 538.4025889001434 461.22269997702506 483.46507173041914 497.6421646896458C428.52755456069485 534.0616294022666 283.6004629299569 523.8970101139865 264.94128841797254 484.24772560028214C246.28211390598818 444.59844108657785 338.9635169031701 343.74506373648603 393.90103407289445 307.3255990238653C448.8385512426188 270.90613431124456 509.98219632066446 269.7850104659985 528.6413708326488 309.4342949797028C547.3005453446331 349.08357949340717 538.4025889001434 461.22269997702506 483.46507173041914 497.6421646896458 "></path><path d="M516.9467285002063 317.6675408906389C533.9096144201922 353.7123449940065 525.8205631070197 455.6569999791137 475.8773656799975 488.76560426331434C425.9341682529754 521.8742085475151 294.1822667704864 512.6336455581695 277.2193808505006 476.5888414548019C260.2564949305148 440.54403735143444 344.51231583704384 348.85914885135094 394.455513264066 315.7505445671503C444.3987106910881 282.6419402829496 499.9838425802204 281.6227367872713 516.9467285002063 317.6675408906389C533.9096144201922 353.7123449940065 525.8205631070197 455.6569999791137 475.8773656799975 488.76560426331434 "></path><path d="M505.2520251326075 325.900786801575C520.5186224605948 358.34111049460586 513.2384762787395 450.0912999812024 468.28959859441966 479.889043836983C423.3407209100998 509.6867876927636 304.76400957585963 501.3702810023526 289.49741224787243 468.9299573093217C274.23081491988523 436.489633616291 350.06105373576133 353.97323396621584 395.0099314200812 324.17549011043525C439.95880910440115 294.37774625465465 489.9854278046204 293.4604631085442 505.2520251326075 325.900786801575C520.5186224605948 358.34111049460586 513.2384762787395 450.0912999812024 468.28959859441966 479.889043836983 "></path><path d="M493.557382800165 334.13403271251116C507.12769153615363 362.9698759952052 500.6564504856158 444.525599983291 460.70189254399804 471.0124834106515C420.74733460238036 497.49936683801207 315.3458134163891 490.1069164465357 301.7755046804005 461.2710731638416C288.20519594441186 432.4352298811475 355.6098526696351 359.08731908108075 395.56441061125275 332.60043565372024C435.51896855287043 306.1135522263597 479.98707406417634 305.29818942981706 493.557382800165 334.13403271251116C507.12769153615363 362.9698759952052 500.6564504856158 444.525599983291 460.70189254399804 471.0124834106515 "></path><path d="M481.8626794325662 342.3672633646582C493.73669957655636 367.5986262370155 488.07436365733565 438.95988472659053 453.1141254584202 462.135907725531C418.1538872595047 485.3119307244715 325.92755622176236 478.8435366319296 314.0535360777723 453.61217375957233C302.1795159337822 428.38081088721503 361.15859056835257 364.2013889371566 396.11882876726804 341.02536593821617C431.0790669661835 317.8493429392757 469.98865928857623 317.1359004923009 481.8626794325662 342.3672633646582C493.73669957655636 367.5986262370155 488.07436365733565 438.95988472659053 453.1141254584202 462.135907725531 "></path><path d="M470.1680371001238 350.6005397931724C480.3457686521152 372.227422255193 475.4923378642118 433.3942152462573 445.52641940799856 453.2593778167777C415.56050095178523 473.1245403872981 336.5093600622918 467.58020259369084 326.3316285103004 445.95332013167024C316.1538969583089 424.3264376696497 366.7073895022263 369.3155045695996 396.6733079584396 349.4503419990792C426.63922641465285 329.58517942855883 459.99030554813226 328.97365733115186 470.1680371001238 350.6005397931724C480.3457686521152 372.227422255193 475.4923378642118 433.3942152462573 445.52641940799856 453.2593778167777 "></path><path d="M458.47336425010315 358.8337551865304C466.9548072100961 376.8561572382142 462.91028155350983 427.8284847307678 437.93868283999876 444.3827868728681C412.9670841264877 460.9370890149685 347.0911333852432 456.3168075202957 338.6096904252503 438.2944054686119C330.1282474652574 420.27200341692816 372.2561579185219 374.4295591668864 397.227756632033 357.8752570247861C422.19935534554406 341.3209548826857 449.9919212901102 340.8113531348466 458.47336425010315 358.8337551865304C466.9548072100961 376.8561572382142 462.91028155350983 427.8284847307678 437.93868283999876 444.3827868728681 "></path><path d="M446.7786914000825 367.0670010974665C453.5638457680768 381.48492273881357 450.3282252428079 422.2627847328564 430.350946271999 435.5062264465367C410.37366730119015 448.74966816021697 357.67290670819455 445.0534429644788 350.8877523402002 430.63552132313174C344.1025979722059 416.2175996817847 377.80492633481754 379.5436442817513 397.7822053056264 366.30020256807103C417.7594842764352 353.0567608543908 439.99353703208817 352.64907945611947 446.7786914000825 367.0670010974665C453.5638457680768 381.48492273881357 450.3282252428079 422.2627847328564 430.350946271999 435.5062264465367 "></path><path d="M435.0840185500619 375.30026226719167C440.1728843260576 386.11370349820197 437.7461689321059 416.6970999937341 422.7632097039993 426.6296812789943C407.7802504758926 436.5622625642545 368.25468003114594 433.7900936674509 363.16581425515017 422.9766524364406C358.07694847915445 412.16321120543034 383.35369475111315 384.6577446554053 398.33665397921976 374.7251633701451C413.3196132073264 364.7925820848849 429.9951527740661 364.4868210361814 435.0840185500619 375.30026226719167C440.1728843260576 386.11370349820197 437.7461689321059 416.6970999937341 422.7632097039993 426.6296812789943 "></path><path d="M423.38934570004125 383.53350817812776C426.7819228840384 390.7424689988013 425.16411262140394 411.13139999582273 415.1754731359995 417.7531208526629C405.1868336505951 424.374841709503 378.8364533540973 422.5267291116339 375.4438761701001 415.3177682909604C372.05129898610295 408.1088074702869 388.90246316740877 389.7718297702702 398.8911026528132 383.1501089134301C408.87974213821764 376.5283880565899 419.9967685160441 376.32454735745426 423.38934570004125 383.53350817812776C426.7819228840384 390.7424689988013 425.16411262140394 411.13139999582273 415.1754731359995 417.7531208526629 "></path><path d="M411.69467285002065 391.7667540890639C413.3909614420192 395.37123449940066 412.58205631070194 405.5656999979114 407.58773656799974 408.8765604263314C402.59341682529754 412.1874208547515 389.41822667704866 411.26336455581696 387.72193808505006 407.6588841454802C386.0256494930515 404.0544037351434 394.4512315837044 394.8859148851351 399.4455513264066 391.575054456715C404.4398710691088 388.264194028295 409.99838425802204 388.16227367872716 411.69467285002065 391.7667540890639C413.3909614420192 395.37123449940066 412.58205631070194 405.5656999979114 407.58773656799974 408.8765604263314 "></path></g></svg>