<svg xmlns="http://www.w3.org/2000/svg" version="1.1" xmlns:xlink="http://www.w3.org/1999/xlink" xmlns:svgjs="http://svgjs.dev/svgjs" viewBox="0 0 2400 800" opacity="0.61"><defs><linearGradient x1="50%" y1="0%" x2="50%" y2="100%" id="sssurf-grad"><stop stop-color="#6ee7b7" stop-opacity="1" offset="0%"></stop><stop stop-color="#6ee7b7" stop-opacity="1" offset="100%"></stop></linearGradient></defs><g fill="url(#sssurf-grad)" transform="matrix(1,0,0,1,5.82373046875,359.4390869140625)"><path d="M-10,10C75.41666666666666,30,231.25,126.41666666666666,400,106C568.75,85.58333333333334,633.3333333333333,-75.08333333333333,800,-88C966.6666666666667,-100.91666666666667,1033.3333333333333,32.75,1200,44C1366.6666666666667,55.25,1433.3333333333333,-30.458333333333332,1600,-34C1766.6666666666667,-37.541666666666664,1833.3333333333333,22,2000,27C2166.6666666666665,32,2264.5833333333335,-87.70833333333333,2400,-10C2535.4166666666665,67.70833333333333,3254.1666666666665,210.41666666666669,2650,400C2045.8333333333335,589.5833333333333,156.25,795.8333333333334,-500,900" transform="matrix(1,0,0,1,0,35)" opacity="NaN"></path></g></svg>